%TF.GenerationSoftware,KiCad,Pcbnew,(6.0.8)*%
%TF.CreationDate,2023-02-08T15:19:56+01:00*%
%TF.ProjectId,power supply prototype,706f7765-7220-4737-9570-706c79207072,rev?*%
%TF.SameCoordinates,Original*%
%TF.FileFunction,Copper,L1,Top*%
%TF.FilePolarity,Positive*%
%FSLAX46Y46*%
G04 Gerber Fmt 4.6, Leading zero omitted, Abs format (unit mm)*
G04 Created by KiCad (PCBNEW (6.0.8)) date 2023-02-08 15:19:56*
%MOMM*%
%LPD*%
G01*
G04 APERTURE LIST*
G04 Aperture macros list*
%AMRoundRect*
0 Rectangle with rounded corners*
0 $1 Rounding radius*
0 $2 $3 $4 $5 $6 $7 $8 $9 X,Y pos of 4 corners*
0 Add a 4 corners polygon primitive as box body*
4,1,4,$2,$3,$4,$5,$6,$7,$8,$9,$2,$3,0*
0 Add four circle primitives for the rounded corners*
1,1,$1+$1,$2,$3*
1,1,$1+$1,$4,$5*
1,1,$1+$1,$6,$7*
1,1,$1+$1,$8,$9*
0 Add four rect primitives between the rounded corners*
20,1,$1+$1,$2,$3,$4,$5,0*
20,1,$1+$1,$4,$5,$6,$7,0*
20,1,$1+$1,$6,$7,$8,$9,0*
20,1,$1+$1,$8,$9,$2,$3,0*%
G04 Aperture macros list end*
%TA.AperFunction,SMDPad,CuDef*%
%ADD10R,0.914400X0.304800*%
%TD*%
%TA.AperFunction,SMDPad,CuDef*%
%ADD11R,1.498600X0.254000*%
%TD*%
%TA.AperFunction,SMDPad,CuDef*%
%ADD12R,0.355600X1.999996*%
%TD*%
%TA.AperFunction,SMDPad,CuDef*%
%ADD13R,0.304800X0.812800*%
%TD*%
%TA.AperFunction,SMDPad,CuDef*%
%ADD14RoundRect,0.237500X-0.237500X0.300000X-0.237500X-0.300000X0.237500X-0.300000X0.237500X0.300000X0*%
%TD*%
%TA.AperFunction,ComponentPad*%
%ADD15R,2.000000X2.000000*%
%TD*%
%TA.AperFunction,SMDPad,CuDef*%
%ADD16RoundRect,0.237500X0.237500X-0.300000X0.237500X0.300000X-0.237500X0.300000X-0.237500X-0.300000X0*%
%TD*%
%TA.AperFunction,SMDPad,CuDef*%
%ADD17RoundRect,0.237500X-0.300000X-0.237500X0.300000X-0.237500X0.300000X0.237500X-0.300000X0.237500X0*%
%TD*%
%TA.AperFunction,SMDPad,CuDef*%
%ADD18RoundRect,0.250000X-0.325000X-1.100000X0.325000X-1.100000X0.325000X1.100000X-0.325000X1.100000X0*%
%TD*%
%TA.AperFunction,SMDPad,CuDef*%
%ADD19RoundRect,0.812500X-0.812500X-1.687500X0.812500X-1.687500X0.812500X1.687500X-0.812500X1.687500X0*%
%TD*%
%TA.AperFunction,SMDPad,CuDef*%
%ADD20RoundRect,0.237500X0.300000X0.237500X-0.300000X0.237500X-0.300000X-0.237500X0.300000X-0.237500X0*%
%TD*%
%TA.AperFunction,SMDPad,CuDef*%
%ADD21RoundRect,0.237500X0.250000X0.237500X-0.250000X0.237500X-0.250000X-0.237500X0.250000X-0.237500X0*%
%TD*%
%TA.AperFunction,SMDPad,CuDef*%
%ADD22RoundRect,0.250000X-0.550000X1.500000X-0.550000X-1.500000X0.550000X-1.500000X0.550000X1.500000X0*%
%TD*%
%TA.AperFunction,SMDPad,CuDef*%
%ADD23RoundRect,0.237500X-0.237500X0.250000X-0.237500X-0.250000X0.237500X-0.250000X0.237500X0.250000X0*%
%TD*%
%TA.AperFunction,ComponentPad*%
%ADD24R,5.000000X5.000000*%
%TD*%
%TA.AperFunction,ComponentPad*%
%ADD25O,5.000000X5.000000*%
%TD*%
%TA.AperFunction,SMDPad,CuDef*%
%ADD26RoundRect,0.250000X1.100000X-0.325000X1.100000X0.325000X-1.100000X0.325000X-1.100000X-0.325000X0*%
%TD*%
%TA.AperFunction,SMDPad,CuDef*%
%ADD27RoundRect,0.237500X0.237500X-0.250000X0.237500X0.250000X-0.237500X0.250000X-0.237500X-0.250000X0*%
%TD*%
%TA.AperFunction,ComponentPad*%
%ADD28C,10.160000*%
%TD*%
%TA.AperFunction,ViaPad*%
%ADD29C,0.800000*%
%TD*%
%TA.AperFunction,Conductor*%
%ADD30C,0.200000*%
%TD*%
%TA.AperFunction,Conductor*%
%ADD31C,0.250000*%
%TD*%
G04 APERTURE END LIST*
D10*
%TO.P,U1,1,OUT*%
%TO.N,+5V*%
X130358601Y-84049996D03*
%TO.P,U1,2,RESET*%
%TO.N,/power supply/RESET*%
X130358601Y-84549997D03*
D11*
%TO.P,U1,3,BST*%
%TO.N,/power supply/BST*%
X130650700Y-85050000D03*
%TO.P,U1,4,PGND*%
%TO.N,-BATT*%
X130650700Y-85699999D03*
%TO.P,U1,5,PGND*%
X130650700Y-86350001D03*
D12*
%TO.P,U1,6,LX*%
%TO.N,/power supply/LX*%
X132000000Y-86225005D03*
D11*
%TO.P,U1,7,PGND*%
%TO.N,-BATT*%
X133349300Y-86350013D03*
%TO.P,U1,8,PGND*%
X133349300Y-85699999D03*
%TO.P,U1,9,SUPSW*%
%TO.N,+BATT*%
X133349300Y-85050013D03*
D10*
%TO.P,U1,10,SUP*%
X133641399Y-84549997D03*
%TO.P,U1,11,EN*%
X133641399Y-84049996D03*
D13*
%TO.P,U1,12,SYNC*%
%TO.N,-BATT*%
X133250000Y-83293600D03*
%TO.P,U1,13,BIAS*%
%TO.N,/power supply/BIAS*%
X132750001Y-83293600D03*
%TO.P,U1,14,GND*%
%TO.N,-BATT*%
X132250000Y-83293600D03*
%TO.P,U1,15,COMP*%
%TO.N,/power supply/COMP*%
X131750000Y-83293600D03*
%TO.P,U1,16,FB*%
%TO.N,/power supply/BIAS*%
X131249999Y-83293600D03*
%TO.P,U1,17,FOSC*%
%TO.N,/power supply/FOSC*%
X130750000Y-83293600D03*
%TD*%
D14*
%TO.P,Cbyp1,1*%
%TO.N,+BATT*%
X135500000Y-84637500D03*
%TO.P,Cbyp1,2*%
%TO.N,-BATT*%
X135500000Y-86362500D03*
%TD*%
D15*
%TO.P,TP4,1,1*%
%TO.N,/power supply/COMP*%
X134400000Y-78400000D03*
%TD*%
D16*
%TO.P,DNp,1*%
%TO.N,+5V*%
X147800000Y-92725000D03*
%TO.P,DNp,2*%
%TO.N,-BATT*%
X147800000Y-91000000D03*
%TD*%
D17*
%TO.P,Cc1,1*%
%TO.N,Net-(Cc1-Pad1)*%
X130137500Y-76400000D03*
%TO.P,Cc1,2*%
%TO.N,-BATT*%
X131862500Y-76400000D03*
%TD*%
D18*
%TO.P,Cout3,1*%
%TO.N,+5V*%
X154050000Y-96400000D03*
%TO.P,Cout3,2*%
%TO.N,-BATT*%
X157000000Y-96400000D03*
%TD*%
D19*
%TO.P,L1,2,2*%
%TO.N,Net-(L1-Pad2)*%
X140650000Y-96000000D03*
%TO.P,L1,1,1*%
%TO.N,/power supply/LX*%
X129350000Y-96000000D03*
%TD*%
D15*
%TO.P,TP1,1,1*%
%TO.N,+BATT*%
X144000000Y-78500000D03*
%TD*%
D20*
%TO.P,CF1,1*%
%TO.N,/power supply/COMP*%
X131862500Y-79900000D03*
%TO.P,CF1,2*%
%TO.N,-BATT*%
X130137500Y-79900000D03*
%TD*%
D21*
%TO.P,RCOMP1,1*%
%TO.N,/power supply/COMP*%
X131912500Y-78200000D03*
%TO.P,RCOMP1,2*%
%TO.N,Net-(Cc1-Pad1)*%
X130087500Y-78200000D03*
%TD*%
D15*
%TO.P,TP5,1,1*%
%TO.N,Net-(L1-Pad2)*%
X144500000Y-96000000D03*
%TD*%
%TO.P,TP3,1,1*%
%TO.N,+5V*%
X155750000Y-102500000D03*
%TD*%
D22*
%TO.P,CSup2,1*%
%TO.N,+BATT*%
X146750000Y-82050000D03*
%TO.P,CSup2,2*%
%TO.N,-BATT*%
X146750000Y-87450000D03*
%TD*%
D17*
%TO.P,CBIAS1,1*%
%TO.N,/power supply/BIAS*%
X133500000Y-80800000D03*
%TO.P,CBIAS1,2*%
%TO.N,-BATT*%
X135225000Y-80800000D03*
%TD*%
D15*
%TO.P,TP2,1,1*%
%TO.N,+5V*%
X151200000Y-96000000D03*
%TD*%
D17*
%TO.P,Cbst1,1*%
%TO.N,/power supply/LX*%
X124975000Y-84500000D03*
%TO.P,Cbst1,2*%
%TO.N,/power supply/BST*%
X126700000Y-84500000D03*
%TD*%
D23*
%TO.P,R_RST1,1*%
%TO.N,+5V*%
X126000000Y-81087500D03*
%TO.P,R_RST1,2*%
%TO.N,/power supply/RESET*%
X126000000Y-82912500D03*
%TD*%
D24*
%TO.P,XT60,1,Pin_1*%
%TO.N,+BATT*%
X158000000Y-81000000D03*
D25*
%TO.P,XT60,2,Pin_2*%
%TO.N,-BATT*%
X158000000Y-91000000D03*
%TD*%
D16*
%TO.P,DNP,1*%
%TO.N,+5V*%
X150000000Y-92725000D03*
%TO.P,DNP,2*%
%TO.N,-BATT*%
X150000000Y-91000000D03*
%TD*%
D14*
%TO.P,Csup1,1*%
%TO.N,+BATT*%
X138000000Y-84637500D03*
%TO.P,Csup1,2*%
%TO.N,-BATT*%
X138000000Y-86362500D03*
%TD*%
D26*
%TO.P,Cout1,1*%
%TO.N,+5V*%
X152600000Y-93075000D03*
%TO.P,Cout1,2*%
%TO.N,-BATT*%
X152600000Y-90125000D03*
%TD*%
D27*
%TO.P,R_OSC1,1*%
%TO.N,/power supply/FOSC*%
X128400000Y-81912500D03*
%TO.P,R_OSC1,2*%
%TO.N,-BATT*%
X128400000Y-80087500D03*
%TD*%
D28*
%TO.P,J1,2,Pin_2*%
%TO.N,+5V*%
X153100000Y-112000000D03*
%TO.P,J1,1,Pin_1*%
%TO.N,-BATT*%
X123130000Y-112000000D03*
%TD*%
D29*
%TO.N,-BATT*%
X136750000Y-77750000D03*
X136750000Y-79500000D03*
X138500000Y-90000000D03*
X137250000Y-90000000D03*
X136000000Y-90000000D03*
X134750000Y-90000000D03*
X139500000Y-88750000D03*
X139500000Y-87750000D03*
X138500000Y-88750000D03*
X138500000Y-87750000D03*
X137250000Y-88750000D03*
X137250000Y-87750000D03*
X136000000Y-88750000D03*
X136000000Y-87750000D03*
X134750000Y-88750000D03*
X134750000Y-87750000D03*
X133500000Y-88750000D03*
X133500000Y-87750000D03*
%TO.N,+5V*%
X148000000Y-94500000D03*
%TO.N,-BATT*%
X126400000Y-86800000D03*
X128500000Y-86800000D03*
X126900000Y-86000000D03*
X133400000Y-75900000D03*
X136700000Y-75900000D03*
X129000000Y-86000000D03*
X125800000Y-85900000D03*
X127400000Y-86800000D03*
X125300000Y-86700000D03*
X132100000Y-81200000D03*
X136800000Y-81800000D03*
X127900000Y-86000000D03*
%TO.N,/power supply/LX*%
X127000000Y-87800000D03*
X123600000Y-84400000D03*
%TO.N,+5V*%
X126000000Y-79500000D03*
%TO.N,/power supply/RESET*%
X124600000Y-82900000D03*
X128399248Y-84454917D03*
%TD*%
D30*
%TO.N,/power supply/BST*%
X127359917Y-85149917D02*
X127354917Y-85154917D01*
X128850000Y-85050000D02*
X128750083Y-85149917D01*
X128750083Y-85149917D02*
X127359917Y-85149917D01*
X128850000Y-85050000D02*
X130650700Y-85050000D01*
X126700000Y-84500000D02*
X127354917Y-85154917D01*
D31*
%TO.N,/power supply/BIAS*%
X131272600Y-84025000D02*
X132547600Y-84025000D01*
X132750001Y-81549999D02*
X133500000Y-80800000D01*
X132750001Y-83293600D02*
X132750001Y-81549999D01*
X131249999Y-83293600D02*
X131249999Y-84002399D01*
X132750001Y-83822599D02*
X132750001Y-83293600D01*
X131249999Y-84002399D02*
X131272600Y-84025000D01*
X132547600Y-84025000D02*
X132750001Y-83822599D01*
D30*
%TO.N,/power supply/LX*%
X123700000Y-84500000D02*
X123600000Y-84400000D01*
X124975000Y-84500000D02*
X123700000Y-84500000D01*
D31*
%TO.N,Net-(Cc1-Pad1)*%
X130137500Y-76400000D02*
X130137500Y-78150000D01*
X130137500Y-78150000D02*
X130087500Y-78200000D01*
%TO.N,/power supply/COMP*%
X131912500Y-78200000D02*
X131912500Y-79950000D01*
X131750000Y-83293600D02*
X131750000Y-82550000D01*
X131275000Y-80487500D02*
X131862500Y-79900000D01*
X131275000Y-82075000D02*
X131275000Y-80487500D01*
X132112500Y-78400000D02*
X131912500Y-78200000D01*
X131750000Y-82550000D02*
X131275000Y-82075000D01*
X134400000Y-78400000D02*
X132112500Y-78400000D01*
D30*
%TO.N,+5V*%
X128843600Y-83743600D02*
X128342559Y-83743600D01*
X126000000Y-81401041D02*
X126000000Y-81087500D01*
D31*
X130358601Y-84049996D02*
X129149996Y-84049996D01*
D30*
X128342559Y-83743600D02*
X126000000Y-81401041D01*
D31*
X129149996Y-84049996D02*
X128843600Y-83743600D01*
X126000000Y-79500000D02*
X126000000Y-81087500D01*
%TO.N,/power supply/FOSC*%
X128493600Y-83293600D02*
X130750000Y-83293600D01*
X128400000Y-83200000D02*
X128493600Y-83293600D01*
X128400000Y-81912500D02*
X128400000Y-83200000D01*
%TO.N,/power supply/RESET*%
X125987500Y-82900000D02*
X126000000Y-82912500D01*
X124600000Y-82900000D02*
X125987500Y-82900000D01*
X130358601Y-84549997D02*
X128449997Y-84549997D01*
X128399248Y-84499248D02*
X128399248Y-84454917D01*
X128449997Y-84549997D02*
X128399248Y-84499248D01*
%TD*%
%TA.AperFunction,Conductor*%
%TO.N,+BATT*%
G36*
X162139891Y-74020002D02*
G01*
X162186384Y-74073658D01*
X162197751Y-74128209D01*
X162019220Y-84304472D01*
X162002172Y-85276210D01*
X161980978Y-85343970D01*
X161926515Y-85389514D01*
X161876191Y-85400000D01*
X146000000Y-85400000D01*
X146000000Y-84247578D01*
X147550000Y-84247578D01*
X147553973Y-84261109D01*
X147560799Y-84262090D01*
X147616784Y-84243412D01*
X147629962Y-84237239D01*
X147767807Y-84151937D01*
X147779208Y-84142901D01*
X147893739Y-84028171D01*
X147902751Y-84016760D01*
X147987816Y-83878757D01*
X147993963Y-83865576D01*
X148045138Y-83711290D01*
X148048005Y-83697914D01*
X148057672Y-83603562D01*
X148058000Y-83597146D01*
X148058000Y-83544669D01*
X154992001Y-83544669D01*
X154992371Y-83551490D01*
X154997895Y-83602352D01*
X155001521Y-83617604D01*
X155046676Y-83738054D01*
X155055214Y-83753649D01*
X155131715Y-83855724D01*
X155144276Y-83868285D01*
X155246351Y-83944786D01*
X155261946Y-83953324D01*
X155382394Y-83998478D01*
X155397649Y-84002105D01*
X155448514Y-84007631D01*
X155455328Y-84008000D01*
X156981885Y-84008000D01*
X156997124Y-84003525D01*
X156998329Y-84002135D01*
X157000000Y-83994452D01*
X157000000Y-83989884D01*
X159000000Y-83989884D01*
X159004475Y-84005123D01*
X159005865Y-84006328D01*
X159013548Y-84007999D01*
X160544669Y-84007999D01*
X160551490Y-84007629D01*
X160602352Y-84002105D01*
X160617604Y-83998479D01*
X160738054Y-83953324D01*
X160753649Y-83944786D01*
X160855724Y-83868285D01*
X160868285Y-83855724D01*
X160944786Y-83753649D01*
X160953324Y-83738054D01*
X160998478Y-83617606D01*
X161002105Y-83602351D01*
X161007631Y-83551486D01*
X161008000Y-83544672D01*
X161008000Y-82018115D01*
X161003525Y-82002876D01*
X161002135Y-82001671D01*
X160994452Y-82000000D01*
X159018115Y-82000000D01*
X159002876Y-82004475D01*
X159001671Y-82005865D01*
X159000000Y-82013548D01*
X159000000Y-83989884D01*
X157000000Y-83989884D01*
X157000000Y-82018115D01*
X156995525Y-82002876D01*
X156994135Y-82001671D01*
X156986452Y-82000000D01*
X155010116Y-82000000D01*
X154994877Y-82004475D01*
X154993672Y-82005865D01*
X154992001Y-82013548D01*
X154992001Y-83544669D01*
X148058000Y-83544669D01*
X148058000Y-82868115D01*
X148053525Y-82852876D01*
X148052135Y-82851671D01*
X148044452Y-82850000D01*
X147568115Y-82850000D01*
X147552876Y-82854475D01*
X147551671Y-82855865D01*
X147550000Y-82863548D01*
X147550000Y-84247578D01*
X146000000Y-84247578D01*
X146000000Y-81231885D01*
X147550000Y-81231885D01*
X147554475Y-81247124D01*
X147555865Y-81248329D01*
X147563548Y-81250000D01*
X148039884Y-81250000D01*
X148055123Y-81245525D01*
X148056328Y-81244135D01*
X148057999Y-81236452D01*
X148057999Y-80502905D01*
X148057662Y-80496386D01*
X148047743Y-80400794D01*
X148044851Y-80387400D01*
X147993412Y-80233216D01*
X147987239Y-80220038D01*
X147901937Y-80082193D01*
X147892901Y-80070792D01*
X147803840Y-79981885D01*
X154992000Y-79981885D01*
X154996475Y-79997124D01*
X154997865Y-79998329D01*
X155005548Y-80000000D01*
X156981885Y-80000000D01*
X156997124Y-79995525D01*
X156998329Y-79994135D01*
X157000000Y-79986452D01*
X157000000Y-79981885D01*
X159000000Y-79981885D01*
X159004475Y-79997124D01*
X159005865Y-79998329D01*
X159013548Y-80000000D01*
X160989884Y-80000000D01*
X161005123Y-79995525D01*
X161006328Y-79994135D01*
X161007999Y-79986452D01*
X161007999Y-78455331D01*
X161007629Y-78448510D01*
X161002105Y-78397648D01*
X160998479Y-78382396D01*
X160953324Y-78261946D01*
X160944786Y-78246351D01*
X160868285Y-78144276D01*
X160855724Y-78131715D01*
X160753649Y-78055214D01*
X160738054Y-78046676D01*
X160617606Y-78001522D01*
X160602351Y-77997895D01*
X160551486Y-77992369D01*
X160544672Y-77992000D01*
X159018115Y-77992000D01*
X159002876Y-77996475D01*
X159001671Y-77997865D01*
X159000000Y-78005548D01*
X159000000Y-79981885D01*
X157000000Y-79981885D01*
X157000000Y-78010116D01*
X156995525Y-77994877D01*
X156994135Y-77993672D01*
X156986452Y-77992001D01*
X155455331Y-77992001D01*
X155448510Y-77992371D01*
X155397648Y-77997895D01*
X155382396Y-78001521D01*
X155261946Y-78046676D01*
X155246351Y-78055214D01*
X155144276Y-78131715D01*
X155131715Y-78144276D01*
X155055214Y-78246351D01*
X155046676Y-78261946D01*
X155001522Y-78382394D01*
X154997895Y-78397649D01*
X154992369Y-78448514D01*
X154992000Y-78455328D01*
X154992000Y-79981885D01*
X147803840Y-79981885D01*
X147778171Y-79956261D01*
X147766760Y-79947249D01*
X147628757Y-79862184D01*
X147615576Y-79856037D01*
X147567194Y-79839989D01*
X147553101Y-79839500D01*
X147550000Y-79845711D01*
X147550000Y-81231885D01*
X146000000Y-81231885D01*
X146000000Y-74000000D01*
X162071770Y-74000000D01*
X162139891Y-74020002D01*
G37*
%TD.AperFunction*%
%TD*%
%TA.AperFunction,Conductor*%
%TO.N,+BATT*%
G36*
X146000000Y-85400000D02*
G01*
X139035675Y-85400000D01*
X138967554Y-85379998D01*
X138921061Y-85326342D01*
X138910957Y-85256068D01*
X138916082Y-85234333D01*
X138950789Y-85129694D01*
X138951278Y-85115601D01*
X138945066Y-85112500D01*
X137061511Y-85112500D01*
X137047980Y-85116473D01*
X137046999Y-85123299D01*
X137083973Y-85234124D01*
X137086557Y-85305073D01*
X137050374Y-85366157D01*
X136986909Y-85397982D01*
X136964449Y-85400000D01*
X136535675Y-85400000D01*
X136467554Y-85379998D01*
X136421061Y-85326342D01*
X136410957Y-85256068D01*
X136416082Y-85234333D01*
X136450789Y-85129694D01*
X136451278Y-85115601D01*
X136445066Y-85112500D01*
X134561511Y-85112500D01*
X134547980Y-85116473D01*
X134546999Y-85123299D01*
X134583973Y-85234124D01*
X134586557Y-85305073D01*
X134550374Y-85366157D01*
X134486909Y-85397982D01*
X134464449Y-85400000D01*
X134400000Y-85400000D01*
X134400000Y-84159399D01*
X134548722Y-84159399D01*
X134554934Y-84162500D01*
X135006885Y-84162500D01*
X135022124Y-84158025D01*
X135023329Y-84156635D01*
X135025000Y-84148952D01*
X135025000Y-84144385D01*
X135975000Y-84144385D01*
X135979475Y-84159624D01*
X135980865Y-84160829D01*
X135988548Y-84162500D01*
X136438489Y-84162500D01*
X136449050Y-84159399D01*
X137048722Y-84159399D01*
X137054934Y-84162500D01*
X137506885Y-84162500D01*
X137522124Y-84158025D01*
X137523329Y-84156635D01*
X137525000Y-84148952D01*
X137525000Y-84144385D01*
X138475000Y-84144385D01*
X138479475Y-84159624D01*
X138480865Y-84160829D01*
X138488548Y-84162500D01*
X138938489Y-84162500D01*
X138952020Y-84158527D01*
X138953001Y-84151701D01*
X138912222Y-84029471D01*
X138906048Y-84016292D01*
X138823263Y-83882513D01*
X138814227Y-83871112D01*
X138702879Y-83759958D01*
X138691468Y-83750946D01*
X138557535Y-83668389D01*
X138544354Y-83662242D01*
X138492194Y-83644941D01*
X138478101Y-83644452D01*
X138475000Y-83650663D01*
X138475000Y-84144385D01*
X137525000Y-84144385D01*
X137525000Y-83657363D01*
X137521027Y-83643832D01*
X137514201Y-83642851D01*
X137454471Y-83662778D01*
X137441292Y-83668952D01*
X137307513Y-83751737D01*
X137296112Y-83760773D01*
X137184958Y-83872121D01*
X137175946Y-83883532D01*
X137093387Y-84017467D01*
X137087243Y-84030645D01*
X137049211Y-84145306D01*
X137048722Y-84159399D01*
X136449050Y-84159399D01*
X136452020Y-84158527D01*
X136453001Y-84151701D01*
X136412222Y-84029471D01*
X136406048Y-84016292D01*
X136323263Y-83882513D01*
X136314227Y-83871112D01*
X136202879Y-83759958D01*
X136191468Y-83750946D01*
X136057535Y-83668389D01*
X136044354Y-83662242D01*
X135992194Y-83644941D01*
X135978101Y-83644452D01*
X135975000Y-83650663D01*
X135975000Y-84144385D01*
X135025000Y-84144385D01*
X135025000Y-83657363D01*
X135021027Y-83643832D01*
X135014201Y-83642851D01*
X134954471Y-83662778D01*
X134941292Y-83668952D01*
X134807513Y-83751737D01*
X134796112Y-83760773D01*
X134684958Y-83872121D01*
X134675946Y-83883532D01*
X134593387Y-84017467D01*
X134587243Y-84030645D01*
X134549211Y-84145306D01*
X134548722Y-84159399D01*
X134400000Y-84159399D01*
X134400000Y-83126000D01*
X134420002Y-83057879D01*
X134473658Y-83011386D01*
X134526000Y-83000000D01*
X137800000Y-83000000D01*
X137800000Y-79543915D01*
X142500000Y-79543915D01*
X142500369Y-79550729D01*
X142505789Y-79600621D01*
X142509414Y-79615867D01*
X142553767Y-79734177D01*
X142562299Y-79749763D01*
X142637430Y-79850009D01*
X142649991Y-79862570D01*
X142750237Y-79937701D01*
X142765823Y-79946233D01*
X142884133Y-79990586D01*
X142899379Y-79994211D01*
X142949271Y-79999631D01*
X142956085Y-80000000D01*
X143381885Y-80000000D01*
X143397124Y-79995525D01*
X143398329Y-79994135D01*
X143400000Y-79986452D01*
X143400000Y-79981885D01*
X144600000Y-79981885D01*
X144604475Y-79997124D01*
X144605865Y-79998329D01*
X144613548Y-80000000D01*
X145043915Y-80000000D01*
X145050729Y-79999631D01*
X145100621Y-79994211D01*
X145115867Y-79990586D01*
X145234177Y-79946233D01*
X145249763Y-79937701D01*
X145350009Y-79862570D01*
X145362570Y-79850009D01*
X145437701Y-79749763D01*
X145446233Y-79734177D01*
X145490586Y-79615867D01*
X145494211Y-79600621D01*
X145499631Y-79550729D01*
X145500000Y-79543915D01*
X145500000Y-79118115D01*
X145495525Y-79102876D01*
X145494135Y-79101671D01*
X145486452Y-79100000D01*
X144618115Y-79100000D01*
X144602876Y-79104475D01*
X144601671Y-79105865D01*
X144600000Y-79113548D01*
X144600000Y-79981885D01*
X143400000Y-79981885D01*
X143400000Y-79118115D01*
X143395525Y-79102876D01*
X143394135Y-79101671D01*
X143386452Y-79100000D01*
X142518115Y-79100000D01*
X142502876Y-79104475D01*
X142501671Y-79105865D01*
X142500000Y-79113548D01*
X142500000Y-79543915D01*
X137800000Y-79543915D01*
X137800000Y-77881885D01*
X142500000Y-77881885D01*
X142504475Y-77897124D01*
X142505865Y-77898329D01*
X142513548Y-77900000D01*
X143381885Y-77900000D01*
X143397124Y-77895525D01*
X143398329Y-77894135D01*
X143400000Y-77886452D01*
X143400000Y-77881885D01*
X144600000Y-77881885D01*
X144604475Y-77897124D01*
X144605865Y-77898329D01*
X144613548Y-77900000D01*
X145481885Y-77900000D01*
X145497124Y-77895525D01*
X145498329Y-77894135D01*
X145500000Y-77886452D01*
X145500000Y-77456085D01*
X145499631Y-77449271D01*
X145494211Y-77399379D01*
X145490586Y-77384133D01*
X145446233Y-77265823D01*
X145437701Y-77250237D01*
X145362570Y-77149991D01*
X145350009Y-77137430D01*
X145249763Y-77062299D01*
X145234177Y-77053767D01*
X145115867Y-77009414D01*
X145100621Y-77005789D01*
X145050729Y-77000369D01*
X145043915Y-77000000D01*
X144618115Y-77000000D01*
X144602876Y-77004475D01*
X144601671Y-77005865D01*
X144600000Y-77013548D01*
X144600000Y-77881885D01*
X143400000Y-77881885D01*
X143400000Y-77018115D01*
X143395525Y-77002876D01*
X143394135Y-77001671D01*
X143386452Y-77000000D01*
X142956085Y-77000000D01*
X142949271Y-77000369D01*
X142899379Y-77005789D01*
X142884133Y-77009414D01*
X142765823Y-77053767D01*
X142750237Y-77062299D01*
X142649991Y-77137430D01*
X142637430Y-77149991D01*
X142562299Y-77250237D01*
X142553767Y-77265823D01*
X142509414Y-77384133D01*
X142505789Y-77399379D01*
X142500369Y-77449271D01*
X142500000Y-77456085D01*
X142500000Y-77881885D01*
X137800000Y-77881885D01*
X137800000Y-74126000D01*
X137820002Y-74057879D01*
X137873658Y-74011386D01*
X137926000Y-74000000D01*
X146000000Y-74000000D01*
X146000000Y-85400000D01*
G37*
%TD.AperFunction*%
%TD*%
%TA.AperFunction,Conductor*%
%TO.N,+BATT*%
G36*
X134400000Y-85400000D02*
G01*
X134229861Y-85400000D01*
X134191974Y-85392464D01*
X134184940Y-85389550D01*
X134176831Y-85384132D01*
X134167268Y-85382230D01*
X134167266Y-85382229D01*
X134144595Y-85377720D01*
X134118348Y-85372499D01*
X133299000Y-85372499D01*
X133240809Y-85353592D01*
X133204845Y-85304092D01*
X133200000Y-85273499D01*
X133200000Y-83999500D01*
X133218907Y-83941309D01*
X133268407Y-83905345D01*
X133299000Y-83900500D01*
X133422148Y-83900500D01*
X133448395Y-83895279D01*
X133471066Y-83890770D01*
X133471068Y-83890769D01*
X133480631Y-83888867D01*
X133546952Y-83844552D01*
X133552371Y-83836442D01*
X133559263Y-83829550D01*
X133562080Y-83832367D01*
X133595352Y-83806126D01*
X133629637Y-83800000D01*
X134400000Y-83800000D01*
X134400000Y-85400000D01*
G37*
%TD.AperFunction*%
%TD*%
%TA.AperFunction,Conductor*%
%TO.N,/power supply/LX*%
G36*
X132358691Y-85018907D02*
G01*
X132394655Y-85068407D01*
X132399500Y-85099000D01*
X132399500Y-85196761D01*
X132399833Y-85198433D01*
X132400000Y-85201838D01*
X132400000Y-85548174D01*
X132399833Y-85551579D01*
X132399500Y-85553251D01*
X132399500Y-85846747D01*
X132399833Y-85848419D01*
X132400000Y-85851824D01*
X132400000Y-86198188D01*
X132399833Y-86201593D01*
X132399500Y-86203265D01*
X132399500Y-86496761D01*
X132399833Y-86498433D01*
X132400000Y-86501838D01*
X132400000Y-98501000D01*
X132381093Y-98559191D01*
X132331593Y-98595155D01*
X132301000Y-98600000D01*
X130000000Y-98600000D01*
X130000000Y-87400000D01*
X130010307Y-87394846D01*
X130010309Y-87394846D01*
X131449772Y-86675114D01*
X131459739Y-86671699D01*
X131459657Y-86671502D01*
X131468665Y-86667771D01*
X131478231Y-86665868D01*
X131502697Y-86649520D01*
X131513415Y-86643293D01*
X131600000Y-86600000D01*
X131600000Y-86501826D01*
X131600167Y-86498421D01*
X131600500Y-86496749D01*
X131600500Y-86203253D01*
X131600167Y-86201581D01*
X131600000Y-86198176D01*
X131600000Y-85851824D01*
X131600167Y-85848419D01*
X131600500Y-85846747D01*
X131600500Y-85553251D01*
X131600167Y-85551579D01*
X131600000Y-85548174D01*
X131600000Y-85201825D01*
X131600167Y-85198420D01*
X131600500Y-85196748D01*
X131600500Y-85099000D01*
X131619407Y-85040809D01*
X131668907Y-85004845D01*
X131699500Y-85000000D01*
X132300500Y-85000000D01*
X132358691Y-85018907D01*
G37*
%TD.AperFunction*%
%TD*%
%TA.AperFunction,Conductor*%
%TO.N,/power supply/LX*%
G36*
X127365029Y-87401078D02*
G01*
X127400000Y-87405682D01*
X127408188Y-87404604D01*
X127434971Y-87401078D01*
X127451417Y-87400000D01*
X128448583Y-87400000D01*
X128465029Y-87401078D01*
X128500000Y-87405682D01*
X128508188Y-87404604D01*
X128534971Y-87401078D01*
X128551417Y-87400000D01*
X130000000Y-87400000D01*
X130000000Y-98600000D01*
X126726000Y-98600000D01*
X126657879Y-98579998D01*
X126611386Y-98526342D01*
X126600000Y-98474000D01*
X126600000Y-87526000D01*
X126620002Y-87457879D01*
X126673658Y-87411386D01*
X126726000Y-87400000D01*
X127348583Y-87400000D01*
X127365029Y-87401078D01*
G37*
%TD.AperFunction*%
%TD*%
%TA.AperFunction,Conductor*%
%TO.N,-BATT*%
G36*
X167954854Y-68210550D02*
G01*
X167957286Y-68211646D01*
X167964113Y-68211474D01*
X167964119Y-68211475D01*
X167964197Y-68211473D01*
X167965455Y-68211608D01*
X167974977Y-68212559D01*
X167975758Y-68212717D01*
X167991462Y-68214406D01*
X168353278Y-68302716D01*
X168361668Y-68305141D01*
X168742622Y-68432822D01*
X168750778Y-68435943D01*
X169104228Y-68588470D01*
X169119670Y-68595134D01*
X169127536Y-68598928D01*
X169481765Y-68788506D01*
X169489285Y-68792946D01*
X169826366Y-69011580D01*
X169833488Y-69016636D01*
X170151042Y-69262784D01*
X170157710Y-69268417D01*
X170453494Y-69540343D01*
X170459657Y-69546506D01*
X170616108Y-69716683D01*
X170731580Y-69842286D01*
X170737216Y-69848958D01*
X170983364Y-70166512D01*
X170988420Y-70173634D01*
X171137325Y-70403209D01*
X171207054Y-70510715D01*
X171211491Y-70518230D01*
X171284869Y-70655337D01*
X171401072Y-70872464D01*
X171404865Y-70880328D01*
X171525107Y-71158962D01*
X171564057Y-71249221D01*
X171567178Y-71257378D01*
X171694859Y-71638332D01*
X171697284Y-71646722D01*
X171785464Y-72008003D01*
X171786992Y-72022447D01*
X171787508Y-72025052D01*
X171788423Y-72034377D01*
X171788205Y-72041974D01*
X171789439Y-72044736D01*
X171789493Y-72045289D01*
X171786972Y-91119527D01*
X171783955Y-113948817D01*
X171783908Y-113949282D01*
X171782803Y-113951735D01*
X171782976Y-113958609D01*
X171782975Y-113958616D01*
X171782976Y-113958647D01*
X171782921Y-113959162D01*
X171781899Y-113969379D01*
X171781733Y-113970200D01*
X171780043Y-113985913D01*
X171691731Y-114347724D01*
X171689306Y-114356113D01*
X171561621Y-114737071D01*
X171558503Y-114745220D01*
X171502721Y-114874483D01*
X171399311Y-115114109D01*
X171395517Y-115121976D01*
X171308876Y-115283865D01*
X171205932Y-115476217D01*
X171205931Y-115476218D01*
X171201490Y-115483738D01*
X170982858Y-115820814D01*
X170977803Y-115827933D01*
X170731662Y-116145476D01*
X170731657Y-116145482D01*
X170726027Y-116152147D01*
X170454110Y-116447922D01*
X170447935Y-116454098D01*
X170152137Y-116726038D01*
X170145502Y-116731642D01*
X169827921Y-116977813D01*
X169820814Y-116982858D01*
X169483737Y-117201490D01*
X169476218Y-117205930D01*
X169121966Y-117395522D01*
X169114117Y-117399307D01*
X168745224Y-117558502D01*
X168737067Y-117561623D01*
X168356116Y-117689305D01*
X168347727Y-117691730D01*
X167986448Y-117779913D01*
X167971994Y-117781443D01*
X167969358Y-117781965D01*
X167960100Y-117782873D01*
X167952473Y-117782655D01*
X167949698Y-117783894D01*
X167949139Y-117783949D01*
X159419500Y-117783949D01*
X159358370Y-117764087D01*
X159320590Y-117712087D01*
X159315500Y-117679949D01*
X159315500Y-113000000D01*
X164634435Y-113000000D01*
X164654673Y-113308768D01*
X164715040Y-113612253D01*
X164814503Y-113905263D01*
X164951361Y-114182782D01*
X165123271Y-114440065D01*
X165327293Y-114672707D01*
X165559935Y-114876729D01*
X165817218Y-115048639D01*
X165820264Y-115050141D01*
X165820269Y-115050144D01*
X165949975Y-115114108D01*
X166094737Y-115185497D01*
X166387747Y-115284960D01*
X166391082Y-115285623D01*
X166391088Y-115285625D01*
X166687893Y-115344663D01*
X166687896Y-115344663D01*
X166691232Y-115345327D01*
X166922724Y-115360500D01*
X167077276Y-115360500D01*
X167308768Y-115345327D01*
X167312104Y-115344663D01*
X167312107Y-115344663D01*
X167608912Y-115285625D01*
X167608918Y-115285623D01*
X167612253Y-115284960D01*
X167905263Y-115185497D01*
X168050025Y-115114108D01*
X168179731Y-115050144D01*
X168179736Y-115050141D01*
X168182782Y-115048639D01*
X168440065Y-114876729D01*
X168672707Y-114672707D01*
X168876729Y-114440065D01*
X168935590Y-114351974D01*
X169046748Y-114185613D01*
X169046749Y-114185612D01*
X169048639Y-114182783D01*
X169185497Y-113905263D01*
X169284960Y-113612253D01*
X169345327Y-113308768D01*
X169365565Y-113000000D01*
X169345327Y-112691232D01*
X169284960Y-112387747D01*
X169185497Y-112094737D01*
X169048639Y-111817218D01*
X168876729Y-111559935D01*
X168672707Y-111327293D01*
X168440065Y-111123271D01*
X168182782Y-110951361D01*
X168179736Y-110949859D01*
X168179731Y-110949856D01*
X168041685Y-110881779D01*
X167905263Y-110814503D01*
X167612253Y-110715040D01*
X167608918Y-110714377D01*
X167608912Y-110714375D01*
X167312107Y-110655337D01*
X167312104Y-110655337D01*
X167308768Y-110654673D01*
X167077276Y-110639500D01*
X166922724Y-110639500D01*
X166691232Y-110654673D01*
X166687896Y-110655337D01*
X166687893Y-110655337D01*
X166391088Y-110714375D01*
X166391082Y-110714377D01*
X166387747Y-110715040D01*
X166094737Y-110814503D01*
X165958315Y-110881779D01*
X165820269Y-110949856D01*
X165820264Y-110949859D01*
X165817218Y-110951361D01*
X165559935Y-111123271D01*
X165327293Y-111327293D01*
X165123271Y-111559935D01*
X164951361Y-111817217D01*
X164814503Y-112094737D01*
X164715040Y-112387747D01*
X164654673Y-112691232D01*
X164634435Y-113000000D01*
X159315500Y-113000000D01*
X159315500Y-98899000D01*
X159312847Y-98865291D01*
X159311710Y-98858114D01*
X159308962Y-98840757D01*
X159308961Y-98840753D01*
X159308002Y-98834698D01*
X159269498Y-98741739D01*
X159233534Y-98692239D01*
X159208114Y-98663144D01*
X159191225Y-98653053D01*
X159130796Y-98616949D01*
X159130795Y-98616949D01*
X159125783Y-98613954D01*
X159120232Y-98612151D01*
X159120229Y-98612149D01*
X159071480Y-98596310D01*
X159071477Y-98596309D01*
X159067592Y-98595047D01*
X159054331Y-98592947D01*
X159005037Y-98585139D01*
X159005032Y-98585139D01*
X159001000Y-98584500D01*
X156337718Y-98584500D01*
X156276588Y-98564638D01*
X156238104Y-98510384D01*
X156228021Y-98476772D01*
X156173411Y-98294739D01*
X156174870Y-98230480D01*
X156213821Y-98179351D01*
X156275386Y-98160882D01*
X156327597Y-98176323D01*
X156347334Y-98188489D01*
X156358205Y-98193559D01*
X156409367Y-98210529D01*
X156421217Y-98210601D01*
X156424953Y-98199222D01*
X157575000Y-98199222D01*
X157578652Y-98210462D01*
X157590824Y-98210414D01*
X157642999Y-98193007D01*
X157653871Y-98187914D01*
X157793894Y-98101264D01*
X157803306Y-98093804D01*
X157919641Y-97977268D01*
X157927080Y-97967848D01*
X158013488Y-97827667D01*
X158018560Y-97816792D01*
X158070516Y-97660148D01*
X158072883Y-97649108D01*
X158082729Y-97553004D01*
X158083000Y-97547712D01*
X158083000Y-96991471D01*
X158078670Y-96978145D01*
X158074341Y-96975000D01*
X157591471Y-96975000D01*
X157578145Y-96979330D01*
X157575000Y-96983659D01*
X157575000Y-98199222D01*
X156424953Y-98199222D01*
X156425000Y-98199078D01*
X156425000Y-96991471D01*
X156420670Y-96978145D01*
X156416341Y-96975000D01*
X155933474Y-96975000D01*
X155892525Y-96988305D01*
X155828249Y-96988305D01*
X155776249Y-96950525D01*
X155760773Y-96919279D01*
X155427548Y-95808529D01*
X155917000Y-95808529D01*
X155921330Y-95821855D01*
X155925659Y-95825000D01*
X156408529Y-95825000D01*
X156421855Y-95820670D01*
X156425000Y-95816341D01*
X156425000Y-95808529D01*
X157575000Y-95808529D01*
X157579330Y-95821855D01*
X157583659Y-95825000D01*
X158066528Y-95825000D01*
X158079854Y-95820670D01*
X158082999Y-95816341D01*
X158082999Y-95252321D01*
X158082722Y-95246972D01*
X158072619Y-95149590D01*
X158070234Y-95138546D01*
X158018006Y-94981998D01*
X158012914Y-94971130D01*
X157926264Y-94831106D01*
X157918804Y-94821694D01*
X157802268Y-94705359D01*
X157792848Y-94697920D01*
X157652666Y-94611511D01*
X157641795Y-94606441D01*
X157590633Y-94589471D01*
X157578783Y-94589399D01*
X157575000Y-94600922D01*
X157575000Y-95808529D01*
X156425000Y-95808529D01*
X156425000Y-94600778D01*
X156421348Y-94589538D01*
X156409176Y-94589586D01*
X156357001Y-94606993D01*
X156346129Y-94612086D01*
X156206106Y-94698736D01*
X156196694Y-94706196D01*
X156080359Y-94822732D01*
X156072920Y-94832152D01*
X155986512Y-94972333D01*
X155981440Y-94983208D01*
X155929484Y-95139852D01*
X155927117Y-95150892D01*
X155917271Y-95246996D01*
X155917000Y-95252288D01*
X155917000Y-95808529D01*
X155427548Y-95808529D01*
X155107240Y-94740838D01*
X155107232Y-94740812D01*
X155107142Y-94740512D01*
X155105469Y-94735188D01*
X155103876Y-94730338D01*
X155102082Y-94725105D01*
X155059900Y-94606993D01*
X154621559Y-93379639D01*
X154615500Y-93344660D01*
X154615500Y-91899000D01*
X154612847Y-91865291D01*
X154608002Y-91834698D01*
X154569498Y-91741739D01*
X154533534Y-91692239D01*
X154509256Y-91664451D01*
X155064420Y-91664451D01*
X155133612Y-91928195D01*
X155135465Y-91933896D01*
X155259295Y-92251507D01*
X155261781Y-92256937D01*
X155421303Y-92558219D01*
X155424404Y-92563339D01*
X155617486Y-92844275D01*
X155621156Y-92849007D01*
X155845258Y-93105901D01*
X155849437Y-93110168D01*
X156101586Y-93339606D01*
X156106223Y-93343361D01*
X156383061Y-93542290D01*
X156388129Y-93545506D01*
X156685986Y-93711291D01*
X156691378Y-93713897D01*
X157006316Y-93844349D01*
X157011980Y-93846321D01*
X157336226Y-93938685D01*
X157347595Y-93936945D01*
X157348311Y-93936237D01*
X157350000Y-93929280D01*
X157350000Y-93922389D01*
X158650000Y-93922389D01*
X158654330Y-93935715D01*
X158654667Y-93935960D01*
X158662780Y-93936491D01*
X158715784Y-93926668D01*
X158721591Y-93925241D01*
X159047406Y-93825007D01*
X159053034Y-93822914D01*
X159365175Y-93685894D01*
X159370503Y-93683179D01*
X159664839Y-93511183D01*
X159669816Y-93507877D01*
X159942435Y-93303188D01*
X159946996Y-93299334D01*
X160194288Y-93064664D01*
X160198370Y-93060316D01*
X160417046Y-92798782D01*
X160420614Y-92793979D01*
X160607773Y-92509055D01*
X160610765Y-92503873D01*
X160763937Y-92199326D01*
X160766317Y-92193826D01*
X160883464Y-91873704D01*
X160885200Y-91867953D01*
X160933681Y-91666017D01*
X160932631Y-91652677D01*
X160923140Y-91650000D01*
X158666471Y-91650000D01*
X158653145Y-91654330D01*
X158650000Y-91658659D01*
X158650000Y-93922389D01*
X157350000Y-93922389D01*
X157350000Y-91666471D01*
X157345670Y-91653145D01*
X157341341Y-91650000D01*
X155077100Y-91650000D01*
X155064721Y-91654022D01*
X155064420Y-91664451D01*
X154509256Y-91664451D01*
X154508114Y-91663144D01*
X154500608Y-91658659D01*
X154430796Y-91616949D01*
X154430795Y-91616949D01*
X154425783Y-91613954D01*
X154420232Y-91612151D01*
X154420229Y-91612149D01*
X154371480Y-91596310D01*
X154371477Y-91596309D01*
X154367592Y-91595047D01*
X154347205Y-91591818D01*
X154305037Y-91585139D01*
X154305032Y-91585139D01*
X154301000Y-91584500D01*
X151072145Y-91584500D01*
X151011015Y-91564638D01*
X150973235Y-91512638D01*
X150970455Y-91458700D01*
X150973060Y-91446551D01*
X150982729Y-91352173D01*
X150983000Y-91346881D01*
X150983000Y-91208059D01*
X151002862Y-91146929D01*
X151054862Y-91109149D01*
X151119138Y-91109149D01*
X151141572Y-91119527D01*
X151172333Y-91138489D01*
X151183208Y-91143560D01*
X151339852Y-91195516D01*
X151350892Y-91197883D01*
X151446996Y-91207729D01*
X151452288Y-91208000D01*
X152008529Y-91208000D01*
X152021855Y-91203670D01*
X152025000Y-91199341D01*
X152025000Y-91191528D01*
X153175000Y-91191528D01*
X153179330Y-91204854D01*
X153183659Y-91207999D01*
X153747679Y-91207999D01*
X153753028Y-91207722D01*
X153850410Y-91197619D01*
X153861454Y-91195234D01*
X154018002Y-91143006D01*
X154028870Y-91137914D01*
X154168894Y-91051264D01*
X154178306Y-91043804D01*
X154294641Y-90927268D01*
X154302080Y-90917848D01*
X154388489Y-90777666D01*
X154393559Y-90766795D01*
X154410529Y-90715633D01*
X154410601Y-90703783D01*
X154399078Y-90700000D01*
X153191471Y-90700000D01*
X153178145Y-90704330D01*
X153175000Y-90708659D01*
X153175000Y-91191528D01*
X152025000Y-91191528D01*
X152025000Y-90333870D01*
X155066021Y-90333870D01*
X155067548Y-90347697D01*
X155076235Y-90350000D01*
X157333529Y-90350000D01*
X157346855Y-90345670D01*
X157350000Y-90341341D01*
X157350000Y-90333529D01*
X158650000Y-90333529D01*
X158654330Y-90346855D01*
X158658659Y-90350000D01*
X160923658Y-90350000D01*
X160936984Y-90345670D01*
X160937401Y-90345095D01*
X160937942Y-90337467D01*
X160934003Y-90314902D01*
X160932640Y-90309090D01*
X160835819Y-89982228D01*
X160833787Y-89976585D01*
X160700047Y-89663038D01*
X160697378Y-89657661D01*
X160528480Y-89361549D01*
X160525222Y-89356533D01*
X160323411Y-89081800D01*
X160319589Y-89077180D01*
X160087544Y-88827472D01*
X160083208Y-88823313D01*
X159823989Y-88601919D01*
X159819235Y-88598310D01*
X159536278Y-88408171D01*
X159531126Y-88405124D01*
X159228197Y-88248771D01*
X159222737Y-88246340D01*
X158903836Y-88125837D01*
X158898144Y-88124053D01*
X158665974Y-88065736D01*
X158652805Y-88066633D01*
X158650000Y-88076384D01*
X158650000Y-90333529D01*
X157350000Y-90333529D01*
X157350000Y-88079421D01*
X157345755Y-88066357D01*
X157336489Y-88065896D01*
X157192634Y-88097261D01*
X157186893Y-88098864D01*
X156864368Y-88209289D01*
X156858822Y-88211552D01*
X156551131Y-88358313D01*
X156545893Y-88361193D01*
X156257113Y-88542344D01*
X156252226Y-88545817D01*
X155986184Y-88758957D01*
X155981734Y-88762965D01*
X155741950Y-89005273D01*
X155737993Y-89009761D01*
X155527646Y-89278026D01*
X155524234Y-89282935D01*
X155346106Y-89573613D01*
X155343289Y-89578865D01*
X155199748Y-89888100D01*
X155197553Y-89893643D01*
X155090514Y-90217301D01*
X155088962Y-90223093D01*
X155066021Y-90333870D01*
X152025000Y-90333870D01*
X152025000Y-89533529D01*
X153175000Y-89533529D01*
X153179330Y-89546855D01*
X153183659Y-89550000D01*
X154399222Y-89550000D01*
X154410462Y-89546348D01*
X154410414Y-89534176D01*
X154393007Y-89482001D01*
X154387914Y-89471129D01*
X154301264Y-89331106D01*
X154293804Y-89321694D01*
X154177268Y-89205359D01*
X154167848Y-89197920D01*
X154027667Y-89111512D01*
X154016792Y-89106440D01*
X153860148Y-89054484D01*
X153849108Y-89052117D01*
X153753004Y-89042271D01*
X153747712Y-89042000D01*
X153191471Y-89042000D01*
X153178145Y-89046330D01*
X153175000Y-89050659D01*
X153175000Y-89533529D01*
X152025000Y-89533529D01*
X152025000Y-89058472D01*
X152020670Y-89045146D01*
X152016341Y-89042001D01*
X151452321Y-89042001D01*
X151446972Y-89042278D01*
X151349590Y-89052381D01*
X151338546Y-89054766D01*
X151181998Y-89106994D01*
X151171130Y-89112086D01*
X151031106Y-89198736D01*
X151021694Y-89206196D01*
X150905359Y-89322732D01*
X150897920Y-89332152D01*
X150811512Y-89472333D01*
X150806440Y-89483208D01*
X150754484Y-89639852D01*
X150752117Y-89650892D01*
X150742271Y-89746996D01*
X150742000Y-89752288D01*
X150742000Y-89948920D01*
X150722138Y-90010050D01*
X150670138Y-90047830D01*
X150605862Y-90047830D01*
X150583428Y-90037452D01*
X150559848Y-90022917D01*
X150548977Y-90017847D01*
X150490634Y-89998496D01*
X150478782Y-89998423D01*
X150475000Y-90009943D01*
X150475000Y-91371000D01*
X150455138Y-91432130D01*
X150403138Y-91469910D01*
X150371000Y-91475000D01*
X149051434Y-91475000D01*
X149040194Y-91478652D01*
X149040200Y-91480091D01*
X149020578Y-91541298D01*
X148968727Y-91579283D01*
X148936201Y-91584500D01*
X148863798Y-91584500D01*
X148802668Y-91564638D01*
X148764888Y-91512638D01*
X148759800Y-91479865D01*
X148759807Y-91478782D01*
X148748287Y-91475000D01*
X146851434Y-91475000D01*
X146840194Y-91478652D01*
X146840308Y-91507505D01*
X146838671Y-91507511D01*
X146839006Y-91549866D01*
X146801638Y-91602163D01*
X146779368Y-91614708D01*
X146748044Y-91627578D01*
X146748039Y-91627581D01*
X146742389Y-91629902D01*
X146692752Y-91665676D01*
X146663561Y-91690984D01*
X146614056Y-91773126D01*
X146612231Y-91778671D01*
X146612229Y-91778675D01*
X146596204Y-91827361D01*
X146594926Y-91831244D01*
X146584124Y-91897795D01*
X146584108Y-91901881D01*
X146584108Y-91901885D01*
X146581825Y-92497838D01*
X146577402Y-93652160D01*
X146571148Y-95284500D01*
X146570386Y-95483494D01*
X146569141Y-95808494D01*
X146565210Y-96834500D01*
X146564579Y-96999236D01*
X146562504Y-97540813D01*
X146546244Y-101784500D01*
X146545482Y-101983494D01*
X146540306Y-103334500D01*
X146539675Y-103499236D01*
X146525320Y-107245813D01*
X146524993Y-107331184D01*
X146507104Y-112000000D01*
X146507104Y-112000002D01*
X146507099Y-112001323D01*
X146507099Y-112001327D01*
X146489216Y-116668816D01*
X146488893Y-116752995D01*
X146485340Y-117680347D01*
X146465244Y-117741401D01*
X146413100Y-117778981D01*
X146381341Y-117783949D01*
X104051168Y-117783949D01*
X104050706Y-117783903D01*
X104048265Y-117782803D01*
X104041413Y-117782975D01*
X104041412Y-117782975D01*
X104041353Y-117782976D01*
X104040396Y-117782873D01*
X104030594Y-117781894D01*
X104029795Y-117781733D01*
X104014087Y-117780043D01*
X103652276Y-117691731D01*
X103643887Y-117689306D01*
X103262929Y-117561621D01*
X103254777Y-117558502D01*
X103098968Y-117491263D01*
X102885891Y-117399311D01*
X102878024Y-117395517D01*
X102523782Y-117205931D01*
X102516262Y-117201490D01*
X102179186Y-116982858D01*
X102172065Y-116977802D01*
X101882046Y-116752995D01*
X101854512Y-116731652D01*
X101847847Y-116726022D01*
X101714083Y-116603047D01*
X101552077Y-116454109D01*
X101545902Y-116447935D01*
X101397464Y-116286474D01*
X101273962Y-116152137D01*
X101268358Y-116145502D01*
X101022187Y-115827921D01*
X101017142Y-115820814D01*
X100798510Y-115483737D01*
X100794069Y-115476217D01*
X100604478Y-115121966D01*
X100600693Y-115114117D01*
X100441497Y-114745222D01*
X100438377Y-114737067D01*
X100310695Y-114356116D01*
X100308270Y-114347727D01*
X100220087Y-113986448D01*
X100218557Y-113971988D01*
X100218041Y-113969386D01*
X100217127Y-113960073D01*
X100217345Y-113952473D01*
X100216111Y-113949709D01*
X100216056Y-113949152D01*
X100216171Y-113000000D01*
X102634435Y-113000000D01*
X102654673Y-113308768D01*
X102715040Y-113612253D01*
X102814503Y-113905263D01*
X102951361Y-114182782D01*
X103123271Y-114440065D01*
X103327293Y-114672707D01*
X103559935Y-114876729D01*
X103817218Y-115048639D01*
X103820264Y-115050141D01*
X103820269Y-115050144D01*
X103949975Y-115114108D01*
X104094737Y-115185497D01*
X104387747Y-115284960D01*
X104391082Y-115285623D01*
X104391088Y-115285625D01*
X104687893Y-115344663D01*
X104687896Y-115344663D01*
X104691232Y-115345327D01*
X104922724Y-115360500D01*
X105077276Y-115360500D01*
X105308768Y-115345327D01*
X105312104Y-115344663D01*
X105312107Y-115344663D01*
X105608912Y-115285625D01*
X105608918Y-115285623D01*
X105612253Y-115284960D01*
X105905263Y-115185497D01*
X106050025Y-115114108D01*
X106179731Y-115050144D01*
X106179736Y-115050141D01*
X106182782Y-115048639D01*
X106440065Y-114876729D01*
X106672707Y-114672707D01*
X106876729Y-114440065D01*
X106935590Y-114351974D01*
X107046748Y-114185613D01*
X107046749Y-114185612D01*
X107048639Y-114182783D01*
X107185497Y-113905263D01*
X107284960Y-113612253D01*
X107345327Y-113308768D01*
X107365565Y-113000000D01*
X107345327Y-112691232D01*
X107284960Y-112387747D01*
X107185497Y-112094737D01*
X107048639Y-111817218D01*
X106876729Y-111559935D01*
X106672707Y-111327293D01*
X106440065Y-111123271D01*
X106182782Y-110951361D01*
X106179736Y-110949859D01*
X106179731Y-110949856D01*
X106041685Y-110881779D01*
X105905263Y-110814503D01*
X105612253Y-110715040D01*
X105608918Y-110714377D01*
X105608912Y-110714375D01*
X105312107Y-110655337D01*
X105312104Y-110655337D01*
X105308768Y-110654673D01*
X105077276Y-110639500D01*
X104922724Y-110639500D01*
X104691232Y-110654673D01*
X104687896Y-110655337D01*
X104687893Y-110655337D01*
X104391088Y-110714375D01*
X104391082Y-110714377D01*
X104387747Y-110715040D01*
X104094737Y-110814503D01*
X103958315Y-110881779D01*
X103820269Y-110949856D01*
X103820264Y-110949859D01*
X103817218Y-110951361D01*
X103559935Y-111123271D01*
X103327293Y-111327293D01*
X103123271Y-111559935D01*
X102951361Y-111817217D01*
X102814503Y-112094737D01*
X102715040Y-112387747D01*
X102654673Y-112691232D01*
X102634435Y-113000000D01*
X100216171Y-113000000D01*
X100216244Y-112391088D01*
X100219623Y-84393560D01*
X122985050Y-84393560D01*
X123001265Y-84540432D01*
X123052045Y-84679197D01*
X123055542Y-84684401D01*
X123055543Y-84684403D01*
X123129852Y-84794985D01*
X123134460Y-84801843D01*
X123243751Y-84901291D01*
X123373609Y-84971798D01*
X123516537Y-85009294D01*
X123592614Y-85010489D01*
X123658015Y-85011517D01*
X123658019Y-85011517D01*
X123664283Y-85011615D01*
X123808318Y-84978627D01*
X123940327Y-84912233D01*
X124030267Y-84835417D01*
X124089648Y-84810821D01*
X124097808Y-84810500D01*
X124152084Y-84810500D01*
X124213214Y-84830362D01*
X124250209Y-84880040D01*
X124274601Y-84949500D01*
X124279222Y-84955757D01*
X124279223Y-84955758D01*
X124320407Y-85011517D01*
X124354638Y-85057862D01*
X124463000Y-85137899D01*
X124470338Y-85140476D01*
X124470340Y-85140477D01*
X124584121Y-85180434D01*
X124584124Y-85180435D01*
X124590105Y-85182535D01*
X124596418Y-85183132D01*
X124596419Y-85183132D01*
X124604562Y-85183902D01*
X124621471Y-85185500D01*
X124974495Y-85185500D01*
X125328528Y-85185499D01*
X125341891Y-85184236D01*
X125353581Y-85183132D01*
X125353584Y-85183131D01*
X125359895Y-85182535D01*
X125365881Y-85180433D01*
X125479660Y-85140477D01*
X125479662Y-85140476D01*
X125487000Y-85137899D01*
X125595362Y-85057862D01*
X125629593Y-85011517D01*
X125670777Y-84955758D01*
X125670778Y-84955757D01*
X125675399Y-84949500D01*
X125677977Y-84942160D01*
X125717934Y-84828379D01*
X125717935Y-84828376D01*
X125720035Y-84822395D01*
X125723000Y-84791029D01*
X125722999Y-84208972D01*
X125720035Y-84177605D01*
X125698078Y-84115080D01*
X125677977Y-84057840D01*
X125677976Y-84057838D01*
X125675399Y-84050500D01*
X125633389Y-83993622D01*
X125599982Y-83948393D01*
X125595362Y-83942138D01*
X125527578Y-83892072D01*
X125493258Y-83866723D01*
X125493257Y-83866722D01*
X125487000Y-83862101D01*
X125479662Y-83859524D01*
X125479660Y-83859523D01*
X125365879Y-83819566D01*
X125365876Y-83819565D01*
X125359895Y-83817465D01*
X125353582Y-83816868D01*
X125353581Y-83816868D01*
X125345438Y-83816098D01*
X125328529Y-83814500D01*
X124975505Y-83814500D01*
X124621472Y-83814501D01*
X124608109Y-83815764D01*
X124596419Y-83816868D01*
X124596416Y-83816869D01*
X124590105Y-83817465D01*
X124584120Y-83819567D01*
X124584119Y-83819567D01*
X124470340Y-83859523D01*
X124470338Y-83859524D01*
X124463000Y-83862101D01*
X124456743Y-83866722D01*
X124456742Y-83866723D01*
X124422422Y-83892072D01*
X124354638Y-83942138D01*
X124274601Y-84050500D01*
X124273148Y-84049427D01*
X124233833Y-84087529D01*
X124170199Y-84096589D01*
X124113393Y-84066516D01*
X124102365Y-84053044D01*
X124064856Y-83998469D01*
X124064855Y-83998468D01*
X124061306Y-83993304D01*
X124008524Y-83946276D01*
X123955664Y-83899179D01*
X123955662Y-83899178D01*
X123950980Y-83895006D01*
X123944092Y-83891359D01*
X123825933Y-83828797D01*
X123825931Y-83828796D01*
X123820391Y-83825863D01*
X123814311Y-83824336D01*
X123814309Y-83824335D01*
X123683157Y-83791392D01*
X123677078Y-83789865D01*
X123670812Y-83789832D01*
X123670810Y-83789832D01*
X123604840Y-83789487D01*
X123529315Y-83789092D01*
X123385634Y-83823587D01*
X123380066Y-83826461D01*
X123380063Y-83826462D01*
X123259899Y-83888483D01*
X123259895Y-83888485D01*
X123254328Y-83891359D01*
X123249604Y-83895480D01*
X123147699Y-83984376D01*
X123147696Y-83984379D01*
X123142978Y-83988495D01*
X123139377Y-83993619D01*
X123139374Y-83993622D01*
X123067008Y-84096589D01*
X123058012Y-84109389D01*
X123004337Y-84247060D01*
X123003519Y-84253275D01*
X123003518Y-84253278D01*
X122987907Y-84371856D01*
X122985050Y-84393560D01*
X100219623Y-84393560D01*
X100219804Y-82893560D01*
X123985050Y-82893560D01*
X124001265Y-83040432D01*
X124052045Y-83179197D01*
X124055542Y-83184401D01*
X124055543Y-83184403D01*
X124118984Y-83278812D01*
X124134460Y-83301843D01*
X124243751Y-83401291D01*
X124373609Y-83471798D01*
X124516537Y-83509294D01*
X124592614Y-83510489D01*
X124658015Y-83511517D01*
X124658019Y-83511517D01*
X124664283Y-83511615D01*
X124808318Y-83478627D01*
X124940327Y-83412233D01*
X124953139Y-83401291D01*
X125047919Y-83320341D01*
X125052688Y-83316268D01*
X125079603Y-83278812D01*
X125131405Y-83240760D01*
X125164060Y-83235500D01*
X125239584Y-83235500D01*
X125300714Y-83255362D01*
X125337709Y-83305040D01*
X125362101Y-83374500D01*
X125442138Y-83482862D01*
X125448393Y-83487482D01*
X125493412Y-83520733D01*
X125550500Y-83562899D01*
X125557838Y-83565476D01*
X125557840Y-83565477D01*
X125671621Y-83605434D01*
X125671624Y-83605435D01*
X125677605Y-83607535D01*
X125683918Y-83608132D01*
X125683919Y-83608132D01*
X125692062Y-83608902D01*
X125708971Y-83610500D01*
X125999584Y-83610500D01*
X126291028Y-83610499D01*
X126304391Y-83609236D01*
X126316081Y-83608132D01*
X126316084Y-83608131D01*
X126322395Y-83607535D01*
X126328381Y-83605433D01*
X126442160Y-83565477D01*
X126442162Y-83565476D01*
X126449500Y-83562899D01*
X126506589Y-83520733D01*
X126551607Y-83487482D01*
X126557862Y-83482862D01*
X126637899Y-83374500D01*
X126640477Y-83367160D01*
X126680434Y-83253379D01*
X126680435Y-83253376D01*
X126682535Y-83247395D01*
X126685500Y-83216029D01*
X126685499Y-82776730D01*
X126705361Y-82715602D01*
X126757361Y-82677821D01*
X126821637Y-82677821D01*
X126863038Y-82703192D01*
X128002917Y-83843071D01*
X128032098Y-83900341D01*
X128022043Y-83963825D01*
X127997747Y-83994979D01*
X127963763Y-84024625D01*
X127946946Y-84039294D01*
X127946944Y-84039296D01*
X127942226Y-84043412D01*
X127938625Y-84048536D01*
X127938622Y-84048539D01*
X127860865Y-84159176D01*
X127857260Y-84164306D01*
X127854983Y-84170145D01*
X127854983Y-84170146D01*
X127805863Y-84296134D01*
X127803585Y-84301977D01*
X127802767Y-84308192D01*
X127802766Y-84308195D01*
X127785116Y-84442262D01*
X127784298Y-84448477D01*
X127800513Y-84595349D01*
X127802667Y-84601235D01*
X127838691Y-84699677D01*
X127841046Y-84763909D01*
X127805196Y-84817259D01*
X127741025Y-84839417D01*
X127552000Y-84839417D01*
X127490870Y-84819555D01*
X127453090Y-84767555D01*
X127448000Y-84735417D01*
X127447999Y-84211426D01*
X127447999Y-84208972D01*
X127445035Y-84177605D01*
X127423078Y-84115080D01*
X127402977Y-84057840D01*
X127402976Y-84057838D01*
X127400399Y-84050500D01*
X127358389Y-83993622D01*
X127324982Y-83948393D01*
X127320362Y-83942138D01*
X127252578Y-83892072D01*
X127218258Y-83866723D01*
X127218257Y-83866722D01*
X127212000Y-83862101D01*
X127204662Y-83859524D01*
X127204660Y-83859523D01*
X127090879Y-83819566D01*
X127090876Y-83819565D01*
X127084895Y-83817465D01*
X127078582Y-83816868D01*
X127078581Y-83816868D01*
X127070438Y-83816098D01*
X127053529Y-83814500D01*
X126700505Y-83814500D01*
X126346472Y-83814501D01*
X126333109Y-83815764D01*
X126321419Y-83816868D01*
X126321416Y-83816869D01*
X126315105Y-83817465D01*
X126309120Y-83819567D01*
X126309119Y-83819567D01*
X126195340Y-83859523D01*
X126195338Y-83859524D01*
X126188000Y-83862101D01*
X126181743Y-83866722D01*
X126181742Y-83866723D01*
X126147422Y-83892072D01*
X126079638Y-83942138D01*
X126075018Y-83948393D01*
X126041612Y-83993622D01*
X125999601Y-84050500D01*
X125997024Y-84057838D01*
X125997023Y-84057840D01*
X125961437Y-84159176D01*
X125954965Y-84177605D01*
X125952000Y-84208971D01*
X125952001Y-84791028D01*
X125953023Y-84801843D01*
X125954027Y-84812465D01*
X125954965Y-84822395D01*
X125957067Y-84828380D01*
X125957067Y-84828381D01*
X125987503Y-84915049D01*
X125999601Y-84949500D01*
X126004222Y-84955757D01*
X126004223Y-84955758D01*
X126045407Y-85011517D01*
X126079638Y-85057862D01*
X126188000Y-85137899D01*
X126195338Y-85140476D01*
X126195340Y-85140477D01*
X126309121Y-85180434D01*
X126309124Y-85180435D01*
X126315105Y-85182535D01*
X126321418Y-85183132D01*
X126321419Y-85183132D01*
X126329562Y-85183902D01*
X126346471Y-85185500D01*
X126378717Y-85185500D01*
X126903308Y-85185499D01*
X126964438Y-85205361D01*
X126976847Y-85215960D01*
X127094797Y-85333910D01*
X127101622Y-85341436D01*
X127106194Y-85347002D01*
X127110828Y-85355414D01*
X127118181Y-85361595D01*
X127141721Y-85381383D01*
X127148340Y-85387453D01*
X127155779Y-85394892D01*
X127162543Y-85399532D01*
X127170602Y-85405660D01*
X127199371Y-85429844D01*
X127208455Y-85432963D01*
X127213607Y-85435878D01*
X127219024Y-85438279D01*
X127226942Y-85443710D01*
X127236283Y-85445927D01*
X127236284Y-85445927D01*
X127248405Y-85448803D01*
X127263486Y-85452382D01*
X127273244Y-85455208D01*
X127299691Y-85464289D01*
X127299698Y-85464290D01*
X127308773Y-85467406D01*
X127318362Y-85467046D01*
X127324226Y-85467912D01*
X127330146Y-85468201D01*
X127339487Y-85470418D01*
X127376710Y-85465353D01*
X127386822Y-85464476D01*
X127424362Y-85463067D01*
X127427325Y-85461794D01*
X127439698Y-85460417D01*
X128694864Y-85460417D01*
X128699039Y-85460724D01*
X128703939Y-85462406D01*
X128713530Y-85462046D01*
X128754980Y-85460490D01*
X128758881Y-85460417D01*
X128778959Y-85460417D01*
X128783550Y-85459562D01*
X128788818Y-85459220D01*
X128802672Y-85458700D01*
X128819528Y-85458067D01*
X128828350Y-85454277D01*
X128828354Y-85454276D01*
X128830293Y-85453443D01*
X128852288Y-85446760D01*
X128863798Y-85444616D01*
X128887123Y-85430239D01*
X128900636Y-85423220D01*
X128925805Y-85412406D01*
X128930857Y-85408256D01*
X128935218Y-85403895D01*
X128953946Y-85389091D01*
X128954091Y-85388959D01*
X128958632Y-85386160D01*
X128958635Y-85386159D01*
X128962264Y-85383922D01*
X128962557Y-85384397D01*
X129014376Y-85361108D01*
X129025608Y-85360500D01*
X129768104Y-85360500D01*
X129807905Y-85368417D01*
X129810748Y-85369595D01*
X129819267Y-85375287D01*
X129829313Y-85377285D01*
X129829315Y-85377286D01*
X129845138Y-85380433D01*
X129880667Y-85387500D01*
X129951018Y-85387500D01*
X131280500Y-85387499D01*
X131341630Y-85407361D01*
X131379410Y-85459361D01*
X131384500Y-85491499D01*
X131384500Y-85548174D01*
X131384759Y-85558731D01*
X131384790Y-85559361D01*
X131384875Y-85561096D01*
X131385000Y-85566191D01*
X131385000Y-85833807D01*
X131384875Y-85838902D01*
X131384759Y-85841267D01*
X131384500Y-85851824D01*
X131384500Y-86198176D01*
X131384759Y-86208733D01*
X131384875Y-86211098D01*
X131385000Y-86216193D01*
X131385000Y-86402289D01*
X131365138Y-86463419D01*
X131327511Y-86495308D01*
X129971087Y-87173520D01*
X129924577Y-87184500D01*
X128551417Y-87184500D01*
X128543095Y-87184772D01*
X128538201Y-87184932D01*
X128538186Y-87184933D01*
X128537322Y-87184961D01*
X128536468Y-87185017D01*
X128536447Y-87185018D01*
X128521754Y-87185981D01*
X128521727Y-87185983D01*
X128520876Y-87186039D01*
X128515213Y-87186597D01*
X128510199Y-87187091D01*
X128489801Y-87187091D01*
X128484787Y-87186597D01*
X128479124Y-87186039D01*
X128478273Y-87185983D01*
X128478246Y-87185981D01*
X128463553Y-87185018D01*
X128463532Y-87185017D01*
X128462678Y-87184961D01*
X128461814Y-87184933D01*
X128461799Y-87184932D01*
X128456905Y-87184772D01*
X128448583Y-87184500D01*
X127451417Y-87184500D01*
X127443095Y-87184772D01*
X127438201Y-87184932D01*
X127438186Y-87184933D01*
X127437322Y-87184961D01*
X127436468Y-87185017D01*
X127436447Y-87185018D01*
X127421754Y-87185981D01*
X127421727Y-87185983D01*
X127420876Y-87186039D01*
X127415213Y-87186597D01*
X127410199Y-87187091D01*
X127389801Y-87187091D01*
X127384787Y-87186597D01*
X127379124Y-87186039D01*
X127378273Y-87185983D01*
X127378246Y-87185981D01*
X127363553Y-87185018D01*
X127363532Y-87185017D01*
X127362678Y-87184961D01*
X127361814Y-87184933D01*
X127361799Y-87184932D01*
X127356905Y-87184772D01*
X127348583Y-87184500D01*
X126726000Y-87184500D01*
X126723229Y-87184798D01*
X126723228Y-87184798D01*
X126682961Y-87189127D01*
X126682954Y-87189128D01*
X126680193Y-87189425D01*
X126649561Y-87196088D01*
X126628562Y-87200656D01*
X126628537Y-87200662D01*
X126627851Y-87200811D01*
X126627163Y-87200979D01*
X126627142Y-87200984D01*
X126624552Y-87201617D01*
X126617176Y-87203420D01*
X126532536Y-87248522D01*
X126528124Y-87252345D01*
X126528121Y-87252347D01*
X126480083Y-87293972D01*
X126480072Y-87293982D01*
X126478880Y-87295015D01*
X126460050Y-87313464D01*
X126413231Y-87397166D01*
X126393229Y-87465287D01*
X126384500Y-87526000D01*
X126384500Y-98474000D01*
X126389425Y-98519807D01*
X126390018Y-98522531D01*
X126399820Y-98567592D01*
X126400811Y-98572149D01*
X126403420Y-98582824D01*
X126406479Y-98588565D01*
X126406480Y-98588567D01*
X126428983Y-98630796D01*
X126448522Y-98667464D01*
X126452345Y-98671876D01*
X126452347Y-98671879D01*
X126493972Y-98719917D01*
X126493982Y-98719928D01*
X126495015Y-98721120D01*
X126496120Y-98722248D01*
X126496122Y-98722250D01*
X126507178Y-98733534D01*
X126513464Y-98739950D01*
X126519954Y-98743580D01*
X126592072Y-98783920D01*
X126592074Y-98783921D01*
X126597166Y-98786769D01*
X126637946Y-98798743D01*
X126661483Y-98805654D01*
X126665287Y-98806771D01*
X126726000Y-98815500D01*
X132301000Y-98815500D01*
X132317466Y-98814204D01*
X132332669Y-98813008D01*
X132332680Y-98813007D01*
X132334709Y-98812847D01*
X132338763Y-98812205D01*
X132359243Y-98808962D01*
X132359247Y-98808961D01*
X132365302Y-98808002D01*
X132378347Y-98802599D01*
X132423442Y-98783920D01*
X132458261Y-98769498D01*
X132507761Y-98733534D01*
X132509509Y-98732007D01*
X132509515Y-98732002D01*
X132522140Y-98720971D01*
X132536856Y-98708114D01*
X132549637Y-98686723D01*
X132570980Y-98651000D01*
X138534500Y-98651000D01*
X138537153Y-98684709D01*
X138537472Y-98686723D01*
X138540860Y-98708114D01*
X138541998Y-98715302D01*
X138580502Y-98808261D01*
X138616466Y-98857761D01*
X138641886Y-98886856D01*
X138648911Y-98891053D01*
X138648912Y-98891054D01*
X138690491Y-98915896D01*
X138724217Y-98936046D01*
X138729768Y-98937849D01*
X138729771Y-98937851D01*
X138778520Y-98953690D01*
X138778523Y-98953691D01*
X138782408Y-98954953D01*
X138786444Y-98955592D01*
X138786443Y-98955592D01*
X138844963Y-98964861D01*
X138844968Y-98964861D01*
X138849000Y-98965500D01*
X145651000Y-98965500D01*
X145667466Y-98964204D01*
X145682669Y-98963008D01*
X145682680Y-98963007D01*
X145684709Y-98962847D01*
X145688763Y-98962205D01*
X145709243Y-98958962D01*
X145709247Y-98958961D01*
X145715302Y-98958002D01*
X145721121Y-98955592D01*
X145763952Y-98937851D01*
X145808261Y-98919498D01*
X145857761Y-98883534D01*
X145859509Y-98882007D01*
X145859515Y-98882002D01*
X145880692Y-98863499D01*
X145886856Y-98858114D01*
X145912317Y-98815500D01*
X145933051Y-98780796D01*
X145933051Y-98780795D01*
X145936046Y-98775783D01*
X145938089Y-98769498D01*
X145953690Y-98721480D01*
X145953691Y-98721477D01*
X145954953Y-98717592D01*
X145958671Y-98694119D01*
X145964861Y-98655037D01*
X145964861Y-98655032D01*
X145965500Y-98651000D01*
X145965500Y-93349000D01*
X145962847Y-93315291D01*
X145958002Y-93284698D01*
X145919498Y-93191739D01*
X145883534Y-93142239D01*
X145858114Y-93113144D01*
X145775783Y-93063954D01*
X145770232Y-93062151D01*
X145770229Y-93062149D01*
X145721480Y-93046310D01*
X145721477Y-93046309D01*
X145717592Y-93045047D01*
X145692280Y-93041038D01*
X145655037Y-93035139D01*
X145655032Y-93035139D01*
X145651000Y-93034500D01*
X138849000Y-93034500D01*
X138832534Y-93035796D01*
X138817331Y-93036992D01*
X138817320Y-93036993D01*
X138815291Y-93037153D01*
X138813276Y-93037472D01*
X138813277Y-93037472D01*
X138790757Y-93041038D01*
X138790753Y-93041039D01*
X138784698Y-93041998D01*
X138779030Y-93044346D01*
X138779029Y-93044346D01*
X138750051Y-93056349D01*
X138691739Y-93080502D01*
X138642239Y-93116466D01*
X138640491Y-93117993D01*
X138640485Y-93117998D01*
X138638986Y-93119308D01*
X138613144Y-93141886D01*
X138608947Y-93148911D01*
X138608946Y-93148912D01*
X138579976Y-93197401D01*
X138563954Y-93224217D01*
X138545047Y-93282408D01*
X138544408Y-93286443D01*
X138535988Y-93339606D01*
X138534500Y-93349000D01*
X138534500Y-98651000D01*
X132570980Y-98651000D01*
X132583051Y-98630796D01*
X132583051Y-98630795D01*
X132586046Y-98625783D01*
X132588917Y-98616949D01*
X132603690Y-98571480D01*
X132603691Y-98571477D01*
X132604953Y-98567592D01*
X132612090Y-98522531D01*
X132614861Y-98505037D01*
X132614861Y-98505032D01*
X132615500Y-98501000D01*
X132615500Y-90521218D01*
X146840193Y-90521218D01*
X146851714Y-90525000D01*
X147308529Y-90525000D01*
X147321855Y-90520670D01*
X147325000Y-90516341D01*
X147325000Y-90508529D01*
X148275000Y-90508529D01*
X148279330Y-90521855D01*
X148283659Y-90525000D01*
X148748566Y-90525000D01*
X148759806Y-90521348D01*
X148759805Y-90521218D01*
X149040193Y-90521218D01*
X149051714Y-90525000D01*
X149508529Y-90525000D01*
X149521855Y-90520670D01*
X149525000Y-90516341D01*
X149525000Y-90009786D01*
X149521348Y-89998546D01*
X149509176Y-89998594D01*
X149449840Y-90018390D01*
X149438970Y-90023482D01*
X149301421Y-90108599D01*
X149292011Y-90116057D01*
X149177735Y-90230532D01*
X149170296Y-90239952D01*
X149085418Y-90377651D01*
X149080346Y-90388526D01*
X149040266Y-90509366D01*
X149040193Y-90521218D01*
X148759805Y-90521218D01*
X148759758Y-90509176D01*
X148719110Y-90387340D01*
X148714018Y-90376470D01*
X148628901Y-90238921D01*
X148621443Y-90229511D01*
X148506968Y-90115235D01*
X148497548Y-90107796D01*
X148359848Y-90022917D01*
X148348977Y-90017847D01*
X148290634Y-89998496D01*
X148278782Y-89998423D01*
X148275000Y-90009943D01*
X148275000Y-90508529D01*
X147325000Y-90508529D01*
X147325000Y-90009786D01*
X147321348Y-89998546D01*
X147309176Y-89998594D01*
X147249840Y-90018390D01*
X147238970Y-90023482D01*
X147101421Y-90108599D01*
X147092011Y-90116057D01*
X146977735Y-90230532D01*
X146970296Y-90239952D01*
X146885418Y-90377651D01*
X146880346Y-90388526D01*
X146840266Y-90509366D01*
X146840193Y-90521218D01*
X132615500Y-90521218D01*
X132615500Y-86501838D01*
X132615241Y-86491281D01*
X132615125Y-86488916D01*
X132615000Y-86483821D01*
X132615000Y-86216205D01*
X132615125Y-86211110D01*
X132615210Y-86209375D01*
X132615241Y-86208745D01*
X132615500Y-86198188D01*
X132615500Y-85851824D01*
X132615241Y-85841267D01*
X132615125Y-85838902D01*
X132615000Y-85833807D01*
X132615000Y-85566191D01*
X132615125Y-85561096D01*
X132615210Y-85559361D01*
X132615241Y-85558731D01*
X132615500Y-85548174D01*
X132615500Y-85491513D01*
X132635362Y-85430383D01*
X132687362Y-85392603D01*
X132719500Y-85387513D01*
X132946153Y-85387513D01*
X133007283Y-85407375D01*
X133029017Y-85431839D01*
X133030502Y-85430760D01*
X133053975Y-85463067D01*
X133066466Y-85480260D01*
X133091886Y-85509355D01*
X133098911Y-85513552D01*
X133098912Y-85513553D01*
X133155844Y-85547568D01*
X133174217Y-85558545D01*
X133179768Y-85560348D01*
X133179771Y-85560350D01*
X133228520Y-85576189D01*
X133228523Y-85576190D01*
X133232408Y-85577452D01*
X133236444Y-85578091D01*
X133236443Y-85578091D01*
X133294963Y-85587360D01*
X133294968Y-85587360D01*
X133299000Y-85587999D01*
X134082344Y-85587999D01*
X134112535Y-85592478D01*
X134143222Y-85601787D01*
X134149933Y-85603823D01*
X134152438Y-85604321D01*
X134152441Y-85604322D01*
X134183114Y-85610423D01*
X134187820Y-85611359D01*
X134190356Y-85611609D01*
X134190364Y-85611610D01*
X134227311Y-85615249D01*
X134227314Y-85615249D01*
X134229861Y-85615500D01*
X134464449Y-85615500D01*
X134465579Y-85615449D01*
X134465593Y-85615449D01*
X134482584Y-85614687D01*
X134482603Y-85614686D01*
X134483734Y-85614635D01*
X134484869Y-85614533D01*
X134484884Y-85614532D01*
X134501332Y-85613054D01*
X134501334Y-85613054D01*
X134506194Y-85612617D01*
X134510889Y-85611281D01*
X134510890Y-85611281D01*
X134578814Y-85591955D01*
X134578818Y-85591953D01*
X134583508Y-85590619D01*
X134608491Y-85578091D01*
X134645562Y-85559502D01*
X134645573Y-85559496D01*
X134646973Y-85558794D01*
X134669772Y-85545557D01*
X134709973Y-85503191D01*
X134731764Y-85480226D01*
X134731765Y-85480225D01*
X134735787Y-85475986D01*
X134739086Y-85470418D01*
X134754906Y-85443710D01*
X134771970Y-85414902D01*
X134783990Y-85391446D01*
X134785183Y-85392057D01*
X134819181Y-85346859D01*
X134878906Y-85328000D01*
X135008441Y-85328000D01*
X135050323Y-85338403D01*
X135050500Y-85337899D01*
X135055833Y-85339772D01*
X135055835Y-85339772D01*
X135057838Y-85340476D01*
X135057840Y-85340477D01*
X135171621Y-85380434D01*
X135171624Y-85380435D01*
X135177605Y-85382535D01*
X135183918Y-85383132D01*
X135183919Y-85383132D01*
X135192062Y-85383902D01*
X135208971Y-85385500D01*
X135499584Y-85385500D01*
X135791028Y-85385499D01*
X135804391Y-85384236D01*
X135816081Y-85383132D01*
X135816084Y-85383131D01*
X135822395Y-85382535D01*
X135837342Y-85377286D01*
X135942160Y-85340477D01*
X135942162Y-85340476D01*
X135944165Y-85339772D01*
X135944167Y-85339772D01*
X135949500Y-85337899D01*
X135949677Y-85338403D01*
X135991559Y-85328000D01*
X136121456Y-85328000D01*
X136182586Y-85347862D01*
X136213238Y-85383091D01*
X136238361Y-85430239D01*
X136255037Y-85461533D01*
X136258197Y-85467464D01*
X136262020Y-85471876D01*
X136262022Y-85471879D01*
X136303647Y-85519917D01*
X136303657Y-85519928D01*
X136304690Y-85521120D01*
X136323139Y-85539950D01*
X136337842Y-85548174D01*
X136401747Y-85583920D01*
X136401749Y-85583921D01*
X136406841Y-85586769D01*
X136474962Y-85606771D01*
X136535675Y-85615500D01*
X136964449Y-85615500D01*
X136965579Y-85615449D01*
X136965593Y-85615449D01*
X136982584Y-85614687D01*
X136982603Y-85614686D01*
X136983734Y-85614635D01*
X136984869Y-85614533D01*
X136984884Y-85614532D01*
X137001332Y-85613054D01*
X137001334Y-85613054D01*
X137006194Y-85612617D01*
X137010889Y-85611281D01*
X137010890Y-85611281D01*
X137078814Y-85591955D01*
X137078818Y-85591953D01*
X137083508Y-85590619D01*
X137108491Y-85578091D01*
X137145562Y-85559502D01*
X137145573Y-85559496D01*
X137146973Y-85558794D01*
X137169772Y-85545557D01*
X137209973Y-85503191D01*
X137231764Y-85480226D01*
X137231765Y-85480225D01*
X137235787Y-85475986D01*
X137239086Y-85470418D01*
X137254906Y-85443710D01*
X137271970Y-85414902D01*
X137283990Y-85391446D01*
X137285183Y-85392057D01*
X137319181Y-85346859D01*
X137378906Y-85328000D01*
X137508441Y-85328000D01*
X137550323Y-85338403D01*
X137550500Y-85337899D01*
X137555833Y-85339772D01*
X137555835Y-85339772D01*
X137557838Y-85340476D01*
X137557840Y-85340477D01*
X137671621Y-85380434D01*
X137671624Y-85380435D01*
X137677605Y-85382535D01*
X137683918Y-85383132D01*
X137683919Y-85383132D01*
X137692062Y-85383902D01*
X137708971Y-85385500D01*
X137999584Y-85385500D01*
X138291028Y-85385499D01*
X138304391Y-85384236D01*
X138316081Y-85383132D01*
X138316084Y-85383131D01*
X138322395Y-85382535D01*
X138337342Y-85377286D01*
X138442160Y-85340477D01*
X138442162Y-85340476D01*
X138444165Y-85339772D01*
X138444167Y-85339772D01*
X138449500Y-85337899D01*
X138449677Y-85338403D01*
X138491559Y-85328000D01*
X138621456Y-85328000D01*
X138682586Y-85347862D01*
X138713238Y-85383091D01*
X138738361Y-85430239D01*
X138755037Y-85461533D01*
X138758197Y-85467464D01*
X138762020Y-85471876D01*
X138762022Y-85471879D01*
X138803647Y-85519917D01*
X138803657Y-85519928D01*
X138804690Y-85521120D01*
X138823139Y-85539950D01*
X138837842Y-85548174D01*
X138901747Y-85583920D01*
X138901749Y-85583921D01*
X138906841Y-85586769D01*
X138974962Y-85606771D01*
X139035675Y-85615500D01*
X161876191Y-85615500D01*
X161920151Y-85610969D01*
X161922766Y-85610424D01*
X161922773Y-85610423D01*
X161964218Y-85601787D01*
X161964220Y-85601786D01*
X161970475Y-85600483D01*
X162064758Y-85554829D01*
X162072717Y-85548174D01*
X162118011Y-85510297D01*
X162118014Y-85510294D01*
X162119221Y-85509285D01*
X162138372Y-85491169D01*
X162171154Y-85434902D01*
X162183713Y-85413346D01*
X162183714Y-85413344D01*
X162186652Y-85408301D01*
X162188393Y-85402734D01*
X162188395Y-85402730D01*
X162206737Y-85344088D01*
X162206738Y-85344082D01*
X162207846Y-85340541D01*
X162217639Y-85279990D01*
X162413218Y-74131989D01*
X162408720Y-74084249D01*
X162405538Y-74068975D01*
X162397520Y-74030499D01*
X162397519Y-74030493D01*
X162397353Y-74029698D01*
X162394350Y-74017176D01*
X162349248Y-73932536D01*
X162345425Y-73928124D01*
X162345423Y-73928121D01*
X162303798Y-73880083D01*
X162303788Y-73880072D01*
X162302755Y-73878880D01*
X162284306Y-73860050D01*
X162251107Y-73841480D01*
X162205698Y-73816080D01*
X162205696Y-73816079D01*
X162200604Y-73813231D01*
X162132483Y-73793229D01*
X162071770Y-73784500D01*
X137926000Y-73784500D01*
X137923229Y-73784798D01*
X137923228Y-73784798D01*
X137882961Y-73789127D01*
X137882954Y-73789128D01*
X137880193Y-73789425D01*
X137857884Y-73794278D01*
X137828562Y-73800656D01*
X137828537Y-73800662D01*
X137827851Y-73800811D01*
X137827163Y-73800979D01*
X137827142Y-73800984D01*
X137824552Y-73801617D01*
X137817176Y-73803420D01*
X137811435Y-73806479D01*
X137811433Y-73806480D01*
X137737691Y-73845775D01*
X137732536Y-73848522D01*
X137728124Y-73852345D01*
X137728121Y-73852347D01*
X137680083Y-73893972D01*
X137680072Y-73893982D01*
X137678880Y-73895015D01*
X137660050Y-73913464D01*
X137613231Y-73997166D01*
X137593229Y-74065287D01*
X137584500Y-74126000D01*
X137584500Y-82680500D01*
X137564638Y-82741630D01*
X137512638Y-82779410D01*
X137480500Y-82784500D01*
X134526000Y-82784500D01*
X134523229Y-82784798D01*
X134523228Y-82784798D01*
X134482961Y-82789127D01*
X134482954Y-82789128D01*
X134480193Y-82789425D01*
X134449561Y-82796088D01*
X134428562Y-82800656D01*
X134428537Y-82800662D01*
X134427851Y-82800811D01*
X134427163Y-82800979D01*
X134427142Y-82800984D01*
X134424552Y-82801617D01*
X134417176Y-82803420D01*
X134411435Y-82806479D01*
X134411433Y-82806480D01*
X134355136Y-82836479D01*
X134332536Y-82848522D01*
X134328124Y-82852345D01*
X134328121Y-82852347D01*
X134280083Y-82893972D01*
X134280072Y-82893982D01*
X134278880Y-82895015D01*
X134260050Y-82913464D01*
X134213231Y-82997166D01*
X134193229Y-83065287D01*
X134184500Y-83126000D01*
X134184500Y-83480500D01*
X134164638Y-83541630D01*
X134112638Y-83579410D01*
X134080500Y-83584500D01*
X133629637Y-83584500D01*
X133591732Y-83587860D01*
X133557447Y-83593986D01*
X133551619Y-83596605D01*
X133551615Y-83596606D01*
X133510158Y-83615235D01*
X133461901Y-83636919D01*
X133430850Y-83661408D01*
X133421789Y-83667800D01*
X133419787Y-83669058D01*
X133364454Y-83685000D01*
X133299000Y-83685000D01*
X133277882Y-83686662D01*
X133276435Y-83686776D01*
X133268275Y-83687097D01*
X133216901Y-83687097D01*
X133155771Y-83667235D01*
X133117991Y-83615235D01*
X133112901Y-83583097D01*
X133112900Y-82871574D01*
X133112900Y-82866468D01*
X133111903Y-82861452D01*
X133108680Y-82845249D01*
X133100688Y-82805067D01*
X133094996Y-82796548D01*
X133093417Y-82792736D01*
X133085501Y-82752938D01*
X133085501Y-81732045D01*
X133105363Y-81670915D01*
X133115962Y-81658506D01*
X133258508Y-81515961D01*
X133315778Y-81486780D01*
X133332047Y-81485500D01*
X133823100Y-81485499D01*
X133853528Y-81485499D01*
X133866891Y-81484236D01*
X133878581Y-81483132D01*
X133878584Y-81483131D01*
X133884895Y-81482535D01*
X133890881Y-81480433D01*
X134004660Y-81440477D01*
X134004662Y-81440476D01*
X134012000Y-81437899D01*
X134018258Y-81433277D01*
X134116132Y-81360987D01*
X134177104Y-81340645D01*
X134238388Y-81360027D01*
X134266357Y-81389916D01*
X134333599Y-81498579D01*
X134341057Y-81507989D01*
X134455532Y-81622265D01*
X134464952Y-81629704D01*
X134602651Y-81714582D01*
X134613526Y-81719654D01*
X134734366Y-81759734D01*
X134746218Y-81759807D01*
X134749908Y-81748566D01*
X135700000Y-81748566D01*
X135703652Y-81759806D01*
X135715824Y-81759758D01*
X135837660Y-81719110D01*
X135848530Y-81714018D01*
X135986079Y-81628901D01*
X135995489Y-81621443D01*
X136109765Y-81506968D01*
X136117204Y-81497548D01*
X136202083Y-81359848D01*
X136207153Y-81348977D01*
X136226504Y-81290634D01*
X136226577Y-81278782D01*
X136215057Y-81275000D01*
X135716471Y-81275000D01*
X135703145Y-81279330D01*
X135700000Y-81283659D01*
X135700000Y-81748566D01*
X134749908Y-81748566D01*
X134750000Y-81748286D01*
X134750000Y-80429000D01*
X134769862Y-80367870D01*
X134821862Y-80330090D01*
X134854000Y-80325000D01*
X136215214Y-80325000D01*
X136226454Y-80321348D01*
X136226406Y-80309176D01*
X136206610Y-80249840D01*
X136201518Y-80238970D01*
X136116401Y-80101421D01*
X136108943Y-80092011D01*
X135994468Y-79977735D01*
X135985048Y-79970296D01*
X135847349Y-79885418D01*
X135836474Y-79880346D01*
X135682596Y-79829308D01*
X135671556Y-79826941D01*
X135577173Y-79817271D01*
X135571881Y-79817000D01*
X135435952Y-79817000D01*
X135374822Y-79797138D01*
X135337042Y-79745138D01*
X135337042Y-79680862D01*
X135374822Y-79628862D01*
X135420901Y-79611348D01*
X135420732Y-79610499D01*
X135472088Y-79600285D01*
X135472089Y-79600285D01*
X135482133Y-79598287D01*
X135490646Y-79592599D01*
X135490648Y-79592598D01*
X135543248Y-79557451D01*
X135551762Y-79551762D01*
X135598287Y-79482133D01*
X135610500Y-79420733D01*
X135610499Y-77379268D01*
X135604328Y-77348238D01*
X135600285Y-77327912D01*
X135600285Y-77327911D01*
X135598287Y-77317867D01*
X135592599Y-77309354D01*
X135592598Y-77309352D01*
X135557451Y-77256752D01*
X135551762Y-77248238D01*
X135482133Y-77201713D01*
X135420733Y-77189500D01*
X134400200Y-77189500D01*
X133379268Y-77189501D01*
X133374261Y-77190497D01*
X133374259Y-77190497D01*
X133327912Y-77199715D01*
X133327911Y-77199715D01*
X133317867Y-77201713D01*
X133309354Y-77207401D01*
X133309352Y-77207402D01*
X133256752Y-77242549D01*
X133248238Y-77248238D01*
X133201713Y-77317867D01*
X133189500Y-77379267D01*
X133189500Y-77960500D01*
X133169638Y-78021630D01*
X133117638Y-78059410D01*
X133085500Y-78064500D01*
X132714499Y-78064500D01*
X132653369Y-78044638D01*
X132615589Y-77992638D01*
X132610499Y-77960500D01*
X132610499Y-77908972D01*
X132607535Y-77877605D01*
X132562899Y-77750500D01*
X132482862Y-77642138D01*
X132374500Y-77562101D01*
X132367162Y-77559524D01*
X132367160Y-77559523D01*
X132253379Y-77519566D01*
X132253376Y-77519565D01*
X132247395Y-77517465D01*
X132241082Y-77516868D01*
X132241081Y-77516868D01*
X132232938Y-77516098D01*
X132216029Y-77514500D01*
X131912934Y-77514500D01*
X131608972Y-77514501D01*
X131595609Y-77515764D01*
X131583919Y-77516868D01*
X131583916Y-77516869D01*
X131577605Y-77517465D01*
X131571620Y-77519567D01*
X131571619Y-77519567D01*
X131457840Y-77559523D01*
X131457838Y-77559524D01*
X131450500Y-77562101D01*
X131342138Y-77642138D01*
X131262101Y-77750500D01*
X131217465Y-77877605D01*
X131214500Y-77908971D01*
X131214501Y-78491028D01*
X131217465Y-78522395D01*
X131262101Y-78649500D01*
X131342138Y-78757862D01*
X131348393Y-78762482D01*
X131390191Y-78793354D01*
X131450500Y-78837899D01*
X131457838Y-78840476D01*
X131507460Y-78857902D01*
X131558555Y-78896897D01*
X131577000Y-78956027D01*
X131577000Y-79113437D01*
X131557138Y-79174567D01*
X131505138Y-79212347D01*
X131490099Y-79215460D01*
X131490110Y-79215510D01*
X131483919Y-79216868D01*
X131477605Y-79217465D01*
X131471620Y-79219567D01*
X131471619Y-79219567D01*
X131357840Y-79259523D01*
X131357838Y-79259524D01*
X131350500Y-79262101D01*
X131344243Y-79266722D01*
X131344242Y-79266723D01*
X131246368Y-79339013D01*
X131185396Y-79359355D01*
X131124112Y-79339973D01*
X131096143Y-79310084D01*
X131028901Y-79201421D01*
X131021443Y-79192011D01*
X130906968Y-79077735D01*
X130897548Y-79070296D01*
X130759849Y-78985418D01*
X130748974Y-78980347D01*
X130668660Y-78953708D01*
X130616892Y-78915611D01*
X130597403Y-78854361D01*
X130617638Y-78793354D01*
X130639610Y-78771343D01*
X130657862Y-78757862D01*
X130737899Y-78649500D01*
X130782535Y-78522395D01*
X130785500Y-78491029D01*
X130785499Y-77908972D01*
X130782535Y-77877605D01*
X130737899Y-77750500D01*
X130657862Y-77642138D01*
X130549500Y-77562101D01*
X130542160Y-77559523D01*
X130535294Y-77555888D01*
X130535958Y-77554634D01*
X130491444Y-77520661D01*
X130473000Y-77461532D01*
X130473000Y-77173585D01*
X130492862Y-77112455D01*
X130542540Y-77075460D01*
X130581425Y-77061805D01*
X130642160Y-77040477D01*
X130642162Y-77040476D01*
X130649500Y-77037899D01*
X130757862Y-76957862D01*
X130837899Y-76849500D01*
X130882535Y-76722395D01*
X130885500Y-76691029D01*
X130885499Y-76108972D01*
X130882535Y-76077605D01*
X130837899Y-75950500D01*
X130757862Y-75842138D01*
X130649500Y-75762101D01*
X130642162Y-75759524D01*
X130642160Y-75759523D01*
X130528379Y-75719566D01*
X130528376Y-75719565D01*
X130522395Y-75717465D01*
X130516082Y-75716868D01*
X130516081Y-75716868D01*
X130507938Y-75716098D01*
X130491029Y-75714500D01*
X130138005Y-75714500D01*
X129783972Y-75714501D01*
X129770609Y-75715764D01*
X129758919Y-75716868D01*
X129758916Y-75716869D01*
X129752605Y-75717465D01*
X129746620Y-75719567D01*
X129746619Y-75719567D01*
X129632840Y-75759523D01*
X129632838Y-75759524D01*
X129625500Y-75762101D01*
X129517138Y-75842138D01*
X129437101Y-75950500D01*
X129392465Y-76077605D01*
X129389500Y-76108971D01*
X129389501Y-76691028D01*
X129392465Y-76722395D01*
X129437101Y-76849500D01*
X129517138Y-76957862D01*
X129625500Y-77037899D01*
X129632838Y-77040476D01*
X129632840Y-77040477D01*
X129693575Y-77061805D01*
X129732460Y-77075460D01*
X129783554Y-77114454D01*
X129802000Y-77173585D01*
X129802000Y-77426415D01*
X129782138Y-77487545D01*
X129732460Y-77524540D01*
X129693575Y-77538195D01*
X129632840Y-77559523D01*
X129632838Y-77559524D01*
X129625500Y-77562101D01*
X129517138Y-77642138D01*
X129437101Y-77750500D01*
X129392465Y-77877605D01*
X129389500Y-77908971D01*
X129389501Y-78491028D01*
X129392465Y-78522395D01*
X129437101Y-78649500D01*
X129517138Y-78757862D01*
X129566497Y-78794319D01*
X129603866Y-78846611D01*
X129603362Y-78910885D01*
X129565175Y-78962587D01*
X129537622Y-78976626D01*
X129524838Y-78980891D01*
X129513970Y-78985982D01*
X129376421Y-79071099D01*
X129367011Y-79078557D01*
X129252735Y-79193032D01*
X129245296Y-79202452D01*
X129240049Y-79210964D01*
X129191065Y-79252579D01*
X129126974Y-79257455D01*
X129096945Y-79244924D01*
X128959848Y-79160417D01*
X128948977Y-79155347D01*
X128890634Y-79135996D01*
X128878782Y-79135923D01*
X128875000Y-79147443D01*
X128875000Y-79596029D01*
X128879330Y-79609355D01*
X128883659Y-79612500D01*
X129035529Y-79612500D01*
X129048855Y-79608170D01*
X129052000Y-79603841D01*
X129052000Y-79529000D01*
X129071862Y-79467870D01*
X129123862Y-79430090D01*
X129156000Y-79425000D01*
X130508500Y-79425000D01*
X130569630Y-79444862D01*
X130607410Y-79496862D01*
X130612500Y-79529000D01*
X130612500Y-80848566D01*
X130616152Y-80859806D01*
X130628324Y-80859758D01*
X130750160Y-80819110D01*
X130761033Y-80814017D01*
X130780773Y-80801801D01*
X130843207Y-80786523D01*
X130902697Y-80810860D01*
X130936519Y-80865517D01*
X130939500Y-80890237D01*
X130939500Y-82055815D01*
X130939104Y-82064877D01*
X130935621Y-82104692D01*
X130937976Y-82113481D01*
X130945963Y-82143289D01*
X130947927Y-82152147D01*
X130954869Y-82191518D01*
X130959418Y-82199397D01*
X130961414Y-82204882D01*
X130963888Y-82210186D01*
X130966243Y-82218976D01*
X130985998Y-82247188D01*
X130989164Y-82251710D01*
X130994038Y-82259362D01*
X131009474Y-82286098D01*
X131009478Y-82286103D01*
X131014027Y-82293982D01*
X131020996Y-82299829D01*
X131020997Y-82299831D01*
X131044655Y-82319682D01*
X131051344Y-82325812D01*
X131224693Y-82499162D01*
X131253874Y-82556432D01*
X131243819Y-82619916D01*
X131198369Y-82665366D01*
X131151155Y-82676701D01*
X131076867Y-82676701D01*
X131071860Y-82677697D01*
X131071858Y-82677697D01*
X131020288Y-82687954D01*
X130979712Y-82687954D01*
X130923133Y-82676700D01*
X130750034Y-82676700D01*
X130576868Y-82676701D01*
X130571861Y-82677697D01*
X130571859Y-82677697D01*
X130525512Y-82686915D01*
X130525511Y-82686915D01*
X130515467Y-82688913D01*
X130506954Y-82694601D01*
X130506952Y-82694602D01*
X130475524Y-82715602D01*
X130445838Y-82735438D01*
X130399313Y-82805067D01*
X130387100Y-82866467D01*
X130386885Y-82866424D01*
X130362061Y-82923180D01*
X130306609Y-82955683D01*
X130284318Y-82958100D01*
X128839500Y-82958100D01*
X128778370Y-82938238D01*
X128740590Y-82886238D01*
X128735500Y-82854100D01*
X128735500Y-82676637D01*
X128755362Y-82615507D01*
X128805041Y-82578512D01*
X128842160Y-82565477D01*
X128842162Y-82565476D01*
X128849500Y-82562899D01*
X128935794Y-82499162D01*
X128951607Y-82487482D01*
X128957862Y-82482862D01*
X128987716Y-82442443D01*
X129033277Y-82380758D01*
X129033278Y-82380757D01*
X129037899Y-82374500D01*
X129049264Y-82342138D01*
X129080434Y-82253379D01*
X129080435Y-82253376D01*
X129082535Y-82247395D01*
X129085500Y-82216029D01*
X129085499Y-81608972D01*
X129082535Y-81577605D01*
X129065596Y-81529370D01*
X129040477Y-81457840D01*
X129040476Y-81457838D01*
X129037899Y-81450500D01*
X129031948Y-81442442D01*
X128962482Y-81348393D01*
X128957862Y-81342138D01*
X128908010Y-81305317D01*
X128855758Y-81266723D01*
X128855757Y-81266722D01*
X128849500Y-81262101D01*
X128830304Y-81255360D01*
X128779209Y-81216365D01*
X128760793Y-81154784D01*
X128782090Y-81094139D01*
X128831850Y-81058581D01*
X128950160Y-81019110D01*
X128961030Y-81014018D01*
X129098579Y-80928901D01*
X129107989Y-80921443D01*
X129222265Y-80806968D01*
X129229702Y-80797550D01*
X129246117Y-80770920D01*
X129295101Y-80729304D01*
X129359192Y-80724428D01*
X129389222Y-80736959D01*
X129515151Y-80814582D01*
X129526026Y-80819654D01*
X129646866Y-80859734D01*
X129658718Y-80859807D01*
X129662500Y-80848286D01*
X129662500Y-80391471D01*
X129658170Y-80378145D01*
X129653841Y-80375000D01*
X129439471Y-80375000D01*
X129426145Y-80379330D01*
X129423000Y-80383659D01*
X129423000Y-80458500D01*
X129403138Y-80519630D01*
X129351138Y-80557410D01*
X129319000Y-80562500D01*
X127468116Y-80562500D01*
X127456876Y-80566152D01*
X127456924Y-80578322D01*
X127480892Y-80650164D01*
X127485981Y-80661029D01*
X127571099Y-80798579D01*
X127578557Y-80807989D01*
X127693032Y-80922265D01*
X127702452Y-80929704D01*
X127840151Y-81014582D01*
X127851024Y-81019652D01*
X127968093Y-81058483D01*
X128019861Y-81096581D01*
X128039349Y-81157830D01*
X128019114Y-81218838D01*
X127969811Y-81255319D01*
X127950500Y-81262101D01*
X127944243Y-81266722D01*
X127944242Y-81266723D01*
X127891990Y-81305317D01*
X127842138Y-81342138D01*
X127837518Y-81348393D01*
X127768053Y-81442442D01*
X127762101Y-81450500D01*
X127759524Y-81457838D01*
X127759523Y-81457840D01*
X127727335Y-81549500D01*
X127717465Y-81577605D01*
X127714500Y-81608971D01*
X127714501Y-82216028D01*
X127717465Y-82247395D01*
X127719567Y-82253380D01*
X127719567Y-82253381D01*
X127744222Y-82323587D01*
X127762101Y-82374500D01*
X127766722Y-82380757D01*
X127766723Y-82380758D01*
X127812284Y-82442443D01*
X127842138Y-82482862D01*
X127848393Y-82487482D01*
X127864207Y-82499162D01*
X127950500Y-82562899D01*
X127957838Y-82565476D01*
X127957840Y-82565477D01*
X127994959Y-82578512D01*
X128046055Y-82617507D01*
X128064500Y-82676637D01*
X128064500Y-82775349D01*
X128044638Y-82836479D01*
X127992638Y-82874259D01*
X127928362Y-82874259D01*
X127886961Y-82848888D01*
X126671084Y-81633012D01*
X126641903Y-81575742D01*
X126646498Y-81525014D01*
X126680434Y-81428379D01*
X126680435Y-81428376D01*
X126682535Y-81422395D01*
X126685500Y-81391029D01*
X126685499Y-80783972D01*
X126682535Y-80752605D01*
X126650376Y-80661029D01*
X126640477Y-80632840D01*
X126640476Y-80632838D01*
X126637899Y-80625500D01*
X126557862Y-80517138D01*
X126496237Y-80471621D01*
X126455758Y-80441723D01*
X126455757Y-80441722D01*
X126449500Y-80437101D01*
X126442162Y-80434524D01*
X126442160Y-80434523D01*
X126405041Y-80421488D01*
X126353945Y-80382493D01*
X126335500Y-80323363D01*
X126335500Y-80064300D01*
X126355362Y-80003170D01*
X126371955Y-79985221D01*
X126452688Y-79916268D01*
X126538915Y-79796271D01*
X126559471Y-79745138D01*
X126591690Y-79664989D01*
X126591690Y-79664987D01*
X126594029Y-79659170D01*
X126597037Y-79638038D01*
X126601210Y-79608718D01*
X127456777Y-79608718D01*
X127468297Y-79612500D01*
X127908529Y-79612500D01*
X127921855Y-79608170D01*
X127925000Y-79603841D01*
X127925000Y-79147286D01*
X127921348Y-79136046D01*
X127909176Y-79136094D01*
X127849840Y-79155890D01*
X127838970Y-79160982D01*
X127701421Y-79246099D01*
X127692011Y-79253557D01*
X127577735Y-79368032D01*
X127570296Y-79377452D01*
X127485417Y-79515152D01*
X127480347Y-79526023D01*
X127456850Y-79596866D01*
X127456777Y-79608718D01*
X126601210Y-79608718D01*
X126614369Y-79516251D01*
X126614849Y-79512879D01*
X126614984Y-79500000D01*
X126605392Y-79420733D01*
X126597986Y-79359533D01*
X126597985Y-79359529D01*
X126597232Y-79353306D01*
X126545001Y-79215080D01*
X126541453Y-79209917D01*
X126541451Y-79209914D01*
X126464856Y-79098469D01*
X126464855Y-79098468D01*
X126461306Y-79093304D01*
X126350980Y-78995006D01*
X126344092Y-78991359D01*
X126225933Y-78928797D01*
X126225931Y-78928796D01*
X126220391Y-78925863D01*
X126214311Y-78924336D01*
X126214309Y-78924335D01*
X126083157Y-78891392D01*
X126077078Y-78889865D01*
X126070812Y-78889832D01*
X126070810Y-78889832D01*
X126004840Y-78889487D01*
X125929315Y-78889092D01*
X125785634Y-78923587D01*
X125780066Y-78926461D01*
X125780063Y-78926462D01*
X125659899Y-78988483D01*
X125659895Y-78988485D01*
X125654328Y-78991359D01*
X125649604Y-78995480D01*
X125547699Y-79084376D01*
X125547696Y-79084379D01*
X125542978Y-79088495D01*
X125539377Y-79093619D01*
X125539374Y-79093622D01*
X125461617Y-79204259D01*
X125458012Y-79209389D01*
X125455735Y-79215228D01*
X125455735Y-79215229D01*
X125441173Y-79252579D01*
X125404337Y-79347060D01*
X125403519Y-79353275D01*
X125403518Y-79353278D01*
X125388432Y-79467870D01*
X125385050Y-79493560D01*
X125385738Y-79499790D01*
X125399988Y-79628862D01*
X125401265Y-79640432D01*
X125452045Y-79779197D01*
X125455542Y-79784401D01*
X125455543Y-79784403D01*
X125523802Y-79885982D01*
X125534460Y-79901843D01*
X125609688Y-79970296D01*
X125630494Y-79989228D01*
X125662339Y-80045060D01*
X125664500Y-80066149D01*
X125664500Y-80323363D01*
X125644638Y-80384493D01*
X125594959Y-80421488D01*
X125557840Y-80434523D01*
X125557838Y-80434524D01*
X125550500Y-80437101D01*
X125544243Y-80441722D01*
X125544242Y-80441723D01*
X125503763Y-80471621D01*
X125442138Y-80517138D01*
X125362101Y-80625500D01*
X125359524Y-80632838D01*
X125359523Y-80632840D01*
X125325648Y-80729304D01*
X125317465Y-80752605D01*
X125314500Y-80783971D01*
X125314501Y-81391028D01*
X125317465Y-81422395D01*
X125319567Y-81428380D01*
X125319567Y-81428381D01*
X125348763Y-81511518D01*
X125362101Y-81549500D01*
X125366722Y-81555757D01*
X125366723Y-81555758D01*
X125406027Y-81608971D01*
X125442138Y-81657862D01*
X125448393Y-81662482D01*
X125525062Y-81719110D01*
X125550500Y-81737899D01*
X125557838Y-81740476D01*
X125557840Y-81740477D01*
X125671621Y-81780434D01*
X125671624Y-81780435D01*
X125677605Y-81782535D01*
X125683918Y-81783132D01*
X125683919Y-81783132D01*
X125692062Y-81783902D01*
X125708971Y-81785500D01*
X125902268Y-81785500D01*
X125963398Y-81805362D01*
X125975807Y-81815961D01*
X126196807Y-82036961D01*
X126225988Y-82094231D01*
X126215933Y-82157715D01*
X126170483Y-82203165D01*
X126123268Y-82214500D01*
X125717364Y-82214501D01*
X125708972Y-82214501D01*
X125695609Y-82215764D01*
X125683919Y-82216868D01*
X125683916Y-82216869D01*
X125677605Y-82217465D01*
X125671620Y-82219567D01*
X125671619Y-82219567D01*
X125557840Y-82259523D01*
X125557838Y-82259524D01*
X125550500Y-82262101D01*
X125544243Y-82266722D01*
X125544242Y-82266723D01*
X125467254Y-82323587D01*
X125442138Y-82342138D01*
X125437518Y-82348393D01*
X125374671Y-82433482D01*
X125362101Y-82450500D01*
X125359524Y-82457838D01*
X125359523Y-82457840D01*
X125346488Y-82494959D01*
X125307493Y-82546055D01*
X125248363Y-82564500D01*
X125164955Y-82564500D01*
X125103825Y-82544638D01*
X125079246Y-82519406D01*
X125064859Y-82498472D01*
X125064854Y-82498466D01*
X125061306Y-82493304D01*
X125051286Y-82484376D01*
X124955664Y-82399179D01*
X124955662Y-82399178D01*
X124950980Y-82395006D01*
X124944092Y-82391359D01*
X124825933Y-82328797D01*
X124825931Y-82328796D01*
X124820391Y-82325863D01*
X124814311Y-82324336D01*
X124814309Y-82324335D01*
X124683157Y-82291392D01*
X124677078Y-82289865D01*
X124670812Y-82289832D01*
X124670810Y-82289832D01*
X124604840Y-82289487D01*
X124529315Y-82289092D01*
X124385634Y-82323587D01*
X124380066Y-82326461D01*
X124380063Y-82326462D01*
X124259899Y-82388483D01*
X124259895Y-82388485D01*
X124254328Y-82391359D01*
X124249604Y-82395480D01*
X124147699Y-82484376D01*
X124147696Y-82484379D01*
X124142978Y-82488495D01*
X124139377Y-82493619D01*
X124139374Y-82493622D01*
X124062549Y-82602933D01*
X124058012Y-82609389D01*
X124055735Y-82615228D01*
X124055735Y-82615229D01*
X124031380Y-82677697D01*
X124004337Y-82747060D01*
X124003519Y-82753275D01*
X124003518Y-82753278D01*
X123987945Y-82871571D01*
X123985050Y-82893560D01*
X100219804Y-82893560D01*
X100220998Y-73000000D01*
X102634435Y-73000000D01*
X102654673Y-73308768D01*
X102715040Y-73612253D01*
X102814503Y-73905263D01*
X102827953Y-73932536D01*
X102926313Y-74131989D01*
X102951361Y-74182782D01*
X103123271Y-74440065D01*
X103327293Y-74672707D01*
X103559935Y-74876729D01*
X103817218Y-75048639D01*
X103820264Y-75050141D01*
X103820269Y-75050144D01*
X103958315Y-75118221D01*
X104094737Y-75185497D01*
X104387747Y-75284960D01*
X104391082Y-75285623D01*
X104391088Y-75285625D01*
X104687893Y-75344663D01*
X104687896Y-75344663D01*
X104691232Y-75345327D01*
X104922724Y-75360500D01*
X105077276Y-75360500D01*
X105308768Y-75345327D01*
X105312104Y-75344663D01*
X105312107Y-75344663D01*
X105608912Y-75285625D01*
X105608918Y-75285623D01*
X105612253Y-75284960D01*
X105905263Y-75185497D01*
X106041685Y-75118221D01*
X106179731Y-75050144D01*
X106179736Y-75050141D01*
X106182782Y-75048639D01*
X106440065Y-74876729D01*
X106672707Y-74672707D01*
X106876729Y-74440065D01*
X107048639Y-74182783D01*
X107072258Y-74134890D01*
X107127132Y-74023616D01*
X107185497Y-73905263D01*
X107284960Y-73612253D01*
X107345327Y-73308768D01*
X107365565Y-73000000D01*
X164634435Y-73000000D01*
X164654673Y-73308768D01*
X164715040Y-73612253D01*
X164814503Y-73905263D01*
X164827953Y-73932536D01*
X164926313Y-74131989D01*
X164951361Y-74182782D01*
X165123271Y-74440065D01*
X165327293Y-74672707D01*
X165559935Y-74876729D01*
X165817218Y-75048639D01*
X165820264Y-75050141D01*
X165820269Y-75050144D01*
X165958315Y-75118221D01*
X166094737Y-75185497D01*
X166387747Y-75284960D01*
X166391082Y-75285623D01*
X166391088Y-75285625D01*
X166687893Y-75344663D01*
X166687896Y-75344663D01*
X166691232Y-75345327D01*
X166922724Y-75360500D01*
X167077276Y-75360500D01*
X167308768Y-75345327D01*
X167312104Y-75344663D01*
X167312107Y-75344663D01*
X167608912Y-75285625D01*
X167608918Y-75285623D01*
X167612253Y-75284960D01*
X167905263Y-75185497D01*
X168041685Y-75118221D01*
X168179731Y-75050144D01*
X168179736Y-75050141D01*
X168182782Y-75048639D01*
X168440065Y-74876729D01*
X168672707Y-74672707D01*
X168876729Y-74440065D01*
X169048639Y-74182783D01*
X169072258Y-74134890D01*
X169127132Y-74023616D01*
X169185497Y-73905263D01*
X169284960Y-73612253D01*
X169345327Y-73308768D01*
X169365565Y-73000000D01*
X169345327Y-72691232D01*
X169284960Y-72387747D01*
X169185497Y-72094737D01*
X169048639Y-71817218D01*
X168876729Y-71559935D01*
X168672707Y-71327293D01*
X168588263Y-71253237D01*
X168480763Y-71158962D01*
X168440065Y-71123271D01*
X168182782Y-70951361D01*
X168179736Y-70949859D01*
X168179731Y-70949856D01*
X168022796Y-70872464D01*
X167905263Y-70814503D01*
X167612253Y-70715040D01*
X167608918Y-70714377D01*
X167608912Y-70714375D01*
X167312107Y-70655337D01*
X167312104Y-70655337D01*
X167308768Y-70654673D01*
X167077276Y-70639500D01*
X166922724Y-70639500D01*
X166691232Y-70654673D01*
X166687896Y-70655337D01*
X166687893Y-70655337D01*
X166391088Y-70714375D01*
X166391082Y-70714377D01*
X166387747Y-70715040D01*
X166094737Y-70814503D01*
X165977204Y-70872464D01*
X165820269Y-70949856D01*
X165820264Y-70949859D01*
X165817218Y-70951361D01*
X165559935Y-71123271D01*
X165519237Y-71158962D01*
X165411738Y-71253237D01*
X165327293Y-71327293D01*
X165123271Y-71559935D01*
X165121382Y-71562762D01*
X165121379Y-71562766D01*
X164975070Y-71781734D01*
X164951361Y-71817217D01*
X164814503Y-72094737D01*
X164715040Y-72387747D01*
X164654673Y-72691232D01*
X164634435Y-73000000D01*
X107365565Y-73000000D01*
X107345327Y-72691232D01*
X107284960Y-72387747D01*
X107185497Y-72094737D01*
X107048639Y-71817218D01*
X106876729Y-71559935D01*
X106672707Y-71327293D01*
X106588263Y-71253237D01*
X106480763Y-71158962D01*
X106440065Y-71123271D01*
X106182782Y-70951361D01*
X106179736Y-70949859D01*
X106179731Y-70949856D01*
X106022796Y-70872464D01*
X105905263Y-70814503D01*
X105612253Y-70715040D01*
X105608918Y-70714377D01*
X105608912Y-70714375D01*
X105312107Y-70655337D01*
X105312104Y-70655337D01*
X105308768Y-70654673D01*
X105077276Y-70639500D01*
X104922724Y-70639500D01*
X104691232Y-70654673D01*
X104687896Y-70655337D01*
X104687893Y-70655337D01*
X104391088Y-70714375D01*
X104391082Y-70714377D01*
X104387747Y-70715040D01*
X104094737Y-70814503D01*
X103977204Y-70872464D01*
X103820269Y-70949856D01*
X103820264Y-70949859D01*
X103817218Y-70951361D01*
X103559935Y-71123271D01*
X103519237Y-71158962D01*
X103411738Y-71253237D01*
X103327293Y-71327293D01*
X103123271Y-71559935D01*
X103121382Y-71562762D01*
X103121379Y-71562766D01*
X102975070Y-71781734D01*
X102951361Y-71817217D01*
X102814503Y-72094737D01*
X102715040Y-72387747D01*
X102654673Y-72691232D01*
X102634435Y-73000000D01*
X100220998Y-73000000D01*
X100221116Y-72021826D01*
X100224081Y-71997187D01*
X100308267Y-71652272D01*
X100310692Y-71643882D01*
X100438373Y-71262928D01*
X100441494Y-71254771D01*
X100482839Y-71158962D01*
X100600686Y-70885878D01*
X100604479Y-70878014D01*
X100639054Y-70813411D01*
X100794060Y-70523780D01*
X100798497Y-70516265D01*
X100873006Y-70401391D01*
X101017131Y-70179184D01*
X101022187Y-70172062D01*
X101268340Y-69854503D01*
X101273976Y-69847832D01*
X101545888Y-69552063D01*
X101552064Y-69545887D01*
X101847832Y-69273976D01*
X101854503Y-69268340D01*
X102172063Y-69022186D01*
X102179185Y-69017130D01*
X102516265Y-68798497D01*
X102523785Y-68794057D01*
X102878015Y-68604479D01*
X102885881Y-68600685D01*
X102889953Y-68598928D01*
X103254773Y-68441494D01*
X103262929Y-68438373D01*
X103643883Y-68310691D01*
X103652273Y-68308266D01*
X104013553Y-68220087D01*
X104028008Y-68218557D01*
X104030664Y-68218031D01*
X104039881Y-68217126D01*
X104047525Y-68217345D01*
X104050308Y-68216102D01*
X104050871Y-68216047D01*
X139249926Y-68212994D01*
X167954394Y-68210504D01*
X167954854Y-68210550D01*
G37*
%TD.AperFunction*%
%TA.AperFunction,Conductor*%
G36*
X133146631Y-78755362D02*
G01*
X133184411Y-78807362D01*
X133189501Y-78839500D01*
X133189501Y-79420732D01*
X133190497Y-79425738D01*
X133190497Y-79425741D01*
X133196881Y-79457840D01*
X133201713Y-79482133D01*
X133207401Y-79490646D01*
X133207402Y-79490648D01*
X133233029Y-79529000D01*
X133248238Y-79551762D01*
X133317867Y-79598287D01*
X133379267Y-79610500D01*
X133397541Y-79610500D01*
X134855635Y-79610499D01*
X134916764Y-79630361D01*
X134954544Y-79682361D01*
X134954544Y-79746637D01*
X134916764Y-79798637D01*
X134866368Y-79817944D01*
X134777163Y-79827200D01*
X134766116Y-79829587D01*
X134612340Y-79880890D01*
X134601470Y-79885982D01*
X134463921Y-79971099D01*
X134454511Y-79978557D01*
X134340235Y-80093032D01*
X134332796Y-80102452D01*
X134266516Y-80209978D01*
X134217531Y-80251593D01*
X134153441Y-80256469D01*
X134116196Y-80239061D01*
X134018258Y-80166723D01*
X134018257Y-80166722D01*
X134012000Y-80162101D01*
X134004662Y-80159524D01*
X134004660Y-80159523D01*
X133890879Y-80119566D01*
X133890876Y-80119565D01*
X133884895Y-80117465D01*
X133878582Y-80116868D01*
X133878581Y-80116868D01*
X133870438Y-80116098D01*
X133853529Y-80114500D01*
X133500505Y-80114500D01*
X133146472Y-80114501D01*
X133133109Y-80115764D01*
X133121419Y-80116868D01*
X133121416Y-80116869D01*
X133115105Y-80117465D01*
X133109120Y-80119567D01*
X133109119Y-80119567D01*
X132995340Y-80159523D01*
X132995338Y-80159524D01*
X132988000Y-80162101D01*
X132981743Y-80166722D01*
X132981742Y-80166723D01*
X132906368Y-80222395D01*
X132879638Y-80242138D01*
X132875018Y-80248393D01*
X132804754Y-80343524D01*
X132799601Y-80350500D01*
X132797024Y-80357838D01*
X132797023Y-80357840D01*
X132760276Y-80462482D01*
X132754965Y-80477605D01*
X132752000Y-80508971D01*
X132752001Y-80786523D01*
X132752001Y-81030453D01*
X132732139Y-81091583D01*
X132721540Y-81103992D01*
X132526345Y-81299187D01*
X132519656Y-81305317D01*
X132495998Y-81325168D01*
X132495997Y-81325170D01*
X132489028Y-81331017D01*
X132484479Y-81338896D01*
X132484475Y-81338901D01*
X132469039Y-81365637D01*
X132464165Y-81373289D01*
X132441244Y-81406023D01*
X132438889Y-81414813D01*
X132436415Y-81420117D01*
X132434419Y-81425602D01*
X132429870Y-81433481D01*
X132428290Y-81442442D01*
X132422928Y-81472852D01*
X132420964Y-81481710D01*
X132410622Y-81520307D01*
X132411415Y-81529370D01*
X132414105Y-81560121D01*
X132414501Y-81569184D01*
X132414501Y-82752937D01*
X132406584Y-82792736D01*
X132405003Y-82796553D01*
X132399314Y-82805067D01*
X132387101Y-82866467D01*
X132387102Y-83255362D01*
X132387102Y-83585500D01*
X132367240Y-83646630D01*
X132315240Y-83684410D01*
X132283102Y-83689500D01*
X132216900Y-83689500D01*
X132155770Y-83669638D01*
X132117990Y-83617638D01*
X132112900Y-83585500D01*
X132112899Y-82871574D01*
X132112899Y-82866468D01*
X132111902Y-82861452D01*
X132108679Y-82845249D01*
X132100687Y-82805067D01*
X132094995Y-82796548D01*
X132093416Y-82792736D01*
X132085500Y-82752938D01*
X132085500Y-82569183D01*
X132085896Y-82560119D01*
X132088586Y-82529372D01*
X132089379Y-82520308D01*
X132079037Y-82481711D01*
X132077073Y-82472853D01*
X132071711Y-82442443D01*
X132070131Y-82433482D01*
X132065582Y-82425603D01*
X132063586Y-82420118D01*
X132061112Y-82414812D01*
X132058757Y-82406024D01*
X132053538Y-82398571D01*
X132053537Y-82398568D01*
X132035834Y-82373286D01*
X132030960Y-82365636D01*
X132015523Y-82338899D01*
X132010973Y-82331018D01*
X132004004Y-82325171D01*
X132004003Y-82325169D01*
X131980351Y-82305323D01*
X131973662Y-82299193D01*
X131640961Y-81966493D01*
X131611780Y-81909223D01*
X131610500Y-81892954D01*
X131610500Y-80689500D01*
X131630362Y-80628370D01*
X131682362Y-80590590D01*
X131714500Y-80585500D01*
X132194872Y-80585499D01*
X132216028Y-80585499D01*
X132229391Y-80584236D01*
X132241081Y-80583132D01*
X132241084Y-80583131D01*
X132247395Y-80582535D01*
X132259392Y-80578322D01*
X132367160Y-80540477D01*
X132367162Y-80540476D01*
X132374500Y-80537899D01*
X132399235Y-80519630D01*
X132476607Y-80462482D01*
X132482862Y-80457862D01*
X132562899Y-80349500D01*
X132565477Y-80342160D01*
X132605434Y-80228379D01*
X132605435Y-80228376D01*
X132607535Y-80222395D01*
X132610500Y-80191029D01*
X132610499Y-79608972D01*
X132607535Y-79577605D01*
X132600732Y-79558232D01*
X132565477Y-79457840D01*
X132565476Y-79457838D01*
X132562899Y-79450500D01*
X132482862Y-79342138D01*
X132374500Y-79262101D01*
X132317540Y-79242098D01*
X132266445Y-79203103D01*
X132248000Y-79143973D01*
X132248000Y-78956027D01*
X132267862Y-78894897D01*
X132317540Y-78857902D01*
X132367162Y-78840476D01*
X132374500Y-78837899D01*
X132434810Y-78793354D01*
X132482862Y-78757862D01*
X132484547Y-78760143D01*
X132530398Y-78736780D01*
X132546667Y-78735500D01*
X133085501Y-78735500D01*
X133146631Y-78755362D01*
G37*
%TD.AperFunction*%
%TD*%
%TA.AperFunction,Conductor*%
%TO.N,+5V*%
G36*
X154359191Y-91818907D02*
G01*
X154395155Y-91868407D01*
X154400000Y-91899000D01*
X154400000Y-93400000D01*
X154402863Y-93408016D01*
X154899137Y-94797585D01*
X154900730Y-94802435D01*
X155412473Y-96508243D01*
X156100000Y-98800000D01*
X159001000Y-98800000D01*
X159059191Y-98818907D01*
X159095155Y-98868407D01*
X159100000Y-98899000D01*
X159100000Y-117694949D01*
X159081093Y-117753140D01*
X159031593Y-117789104D01*
X159001000Y-117793949D01*
X146799786Y-117793949D01*
X146741595Y-117775042D01*
X146705631Y-117725542D01*
X146700787Y-117694570D01*
X146704391Y-116753821D01*
X151179584Y-116753821D01*
X151185368Y-116759605D01*
X151341762Y-116824385D01*
X151345833Y-116825867D01*
X151768937Y-116959272D01*
X151773100Y-116960387D01*
X152206215Y-117056407D01*
X152210488Y-117057160D01*
X152650325Y-117115065D01*
X152654619Y-117115441D01*
X153097847Y-117134793D01*
X153102153Y-117134793D01*
X153545381Y-117115441D01*
X153549675Y-117115065D01*
X153989512Y-117057160D01*
X153993785Y-117056407D01*
X154426900Y-116960387D01*
X154431063Y-116959272D01*
X154854167Y-116825867D01*
X154858238Y-116824385D01*
X155011846Y-116760759D01*
X155020507Y-116753361D01*
X155017377Y-116745805D01*
X153111086Y-114839514D01*
X153099203Y-114833460D01*
X153094172Y-114834256D01*
X151184755Y-116743673D01*
X151179584Y-116753821D01*
X146704391Y-116753821D01*
X146715884Y-113754167D01*
X146722597Y-112002153D01*
X147965207Y-112002153D01*
X147984559Y-112445381D01*
X147984935Y-112449675D01*
X148042840Y-112889512D01*
X148043593Y-112893785D01*
X148139613Y-113326900D01*
X148140728Y-113331063D01*
X148274133Y-113754167D01*
X148275615Y-113758238D01*
X148339241Y-113911846D01*
X148346639Y-113920507D01*
X148354195Y-113917377D01*
X150260486Y-112011086D01*
X150265728Y-112000797D01*
X155933460Y-112000797D01*
X155934256Y-112005828D01*
X157843673Y-113915245D01*
X157853821Y-113920416D01*
X157859605Y-113914632D01*
X157924385Y-113758238D01*
X157925867Y-113754167D01*
X158059272Y-113331063D01*
X158060387Y-113326900D01*
X158156407Y-112893785D01*
X158157160Y-112889512D01*
X158215065Y-112449675D01*
X158215441Y-112445381D01*
X158234793Y-112002153D01*
X158234793Y-111997847D01*
X158215441Y-111554619D01*
X158215065Y-111550325D01*
X158157160Y-111110488D01*
X158156407Y-111106215D01*
X158060387Y-110673100D01*
X158059272Y-110668937D01*
X157925867Y-110245833D01*
X157924385Y-110241762D01*
X157860759Y-110088154D01*
X157853361Y-110079493D01*
X157845805Y-110082623D01*
X155939514Y-111988914D01*
X155933460Y-112000797D01*
X150265728Y-112000797D01*
X150266540Y-111999203D01*
X150265744Y-111994172D01*
X148356327Y-110084755D01*
X148346179Y-110079584D01*
X148340395Y-110085368D01*
X148275615Y-110241762D01*
X148274133Y-110245833D01*
X148140728Y-110668937D01*
X148139613Y-110673100D01*
X148043593Y-111106215D01*
X148042840Y-111110488D01*
X147984935Y-111550325D01*
X147984559Y-111554619D01*
X147965207Y-111997847D01*
X147965207Y-112002153D01*
X146722597Y-112002153D01*
X146740818Y-107246639D01*
X151179493Y-107246639D01*
X151182623Y-107254195D01*
X153088914Y-109160486D01*
X153100797Y-109166540D01*
X153105828Y-109165744D01*
X155015245Y-107256327D01*
X155020416Y-107246179D01*
X155014632Y-107240395D01*
X154858238Y-107175615D01*
X154854167Y-107174133D01*
X154431063Y-107040728D01*
X154426900Y-107039613D01*
X153993785Y-106943593D01*
X153989512Y-106942840D01*
X153549675Y-106884935D01*
X153545381Y-106884559D01*
X153102153Y-106865207D01*
X153097847Y-106865207D01*
X152654619Y-106884559D01*
X152650325Y-106884935D01*
X152210488Y-106942840D01*
X152206215Y-106943593D01*
X151773100Y-107039613D01*
X151768937Y-107040728D01*
X151345833Y-107174133D01*
X151341762Y-107175615D01*
X151188154Y-107239241D01*
X151179493Y-107246639D01*
X146740818Y-107246639D01*
X146755173Y-103500062D01*
X154700000Y-103500062D01*
X154700949Y-103509699D01*
X154700999Y-103509947D01*
X154708317Y-103527614D01*
X154708533Y-103527938D01*
X154722062Y-103541467D01*
X154722386Y-103541683D01*
X154740053Y-103549001D01*
X154740301Y-103549051D01*
X154749938Y-103550000D01*
X155234320Y-103550000D01*
X155247005Y-103545878D01*
X155250000Y-103541757D01*
X155250000Y-103534320D01*
X156250000Y-103534320D01*
X156254122Y-103547005D01*
X156258243Y-103550000D01*
X156750062Y-103550000D01*
X156759699Y-103549051D01*
X156759947Y-103549001D01*
X156777614Y-103541683D01*
X156777938Y-103541467D01*
X156791467Y-103527938D01*
X156791683Y-103527614D01*
X156799001Y-103509947D01*
X156799051Y-103509699D01*
X156800000Y-103500062D01*
X156800000Y-103015680D01*
X156795878Y-103002995D01*
X156791757Y-103000000D01*
X156265680Y-103000000D01*
X156252995Y-103004122D01*
X156250000Y-103008243D01*
X156250000Y-103534320D01*
X155250000Y-103534320D01*
X155250000Y-103015680D01*
X155245878Y-103002995D01*
X155241757Y-103000000D01*
X154715680Y-103000000D01*
X154702995Y-103004122D01*
X154700000Y-103008243D01*
X154700000Y-103500062D01*
X146755173Y-103500062D01*
X146760980Y-101984320D01*
X154700000Y-101984320D01*
X154704122Y-101997005D01*
X154708243Y-102000000D01*
X155234320Y-102000000D01*
X155247005Y-101995878D01*
X155250000Y-101991757D01*
X155250000Y-101984320D01*
X156250000Y-101984320D01*
X156254122Y-101997005D01*
X156258243Y-102000000D01*
X156784320Y-102000000D01*
X156797005Y-101995878D01*
X156800000Y-101991757D01*
X156800000Y-101499938D01*
X156799051Y-101490301D01*
X156799001Y-101490053D01*
X156791683Y-101472386D01*
X156791467Y-101472062D01*
X156777938Y-101458533D01*
X156777614Y-101458317D01*
X156759947Y-101450999D01*
X156759699Y-101450949D01*
X156750062Y-101450000D01*
X156265680Y-101450000D01*
X156252995Y-101454122D01*
X156250000Y-101458243D01*
X156250000Y-101984320D01*
X155250000Y-101984320D01*
X155250000Y-101465680D01*
X155245878Y-101452995D01*
X155241757Y-101450000D01*
X154749938Y-101450000D01*
X154740301Y-101450949D01*
X154740053Y-101450999D01*
X154722386Y-101458317D01*
X154722062Y-101458533D01*
X154708533Y-101472062D01*
X154708317Y-101472386D01*
X154700999Y-101490053D01*
X154700949Y-101490301D01*
X154700000Y-101499938D01*
X154700000Y-101984320D01*
X146760980Y-101984320D01*
X146778002Y-97541639D01*
X153425000Y-97541639D01*
X153425346Y-97547485D01*
X153427234Y-97563353D01*
X153431128Y-97577519D01*
X153469768Y-97664509D01*
X153471647Y-97667244D01*
X153473664Y-97668269D01*
X153475000Y-97662691D01*
X153475000Y-97658571D01*
X154625000Y-97658571D01*
X154627986Y-97667762D01*
X154630519Y-97664063D01*
X154669000Y-97577020D01*
X154672873Y-97562815D01*
X154674668Y-97547420D01*
X154675000Y-97541708D01*
X154675000Y-96990680D01*
X154670878Y-96977995D01*
X154666757Y-96975000D01*
X154640680Y-96975000D01*
X154627995Y-96979122D01*
X154625000Y-96983243D01*
X154625000Y-97658571D01*
X153475000Y-97658571D01*
X153475000Y-96990680D01*
X153470878Y-96977995D01*
X153466757Y-96975000D01*
X153440680Y-96975000D01*
X153427995Y-96979122D01*
X153425000Y-96983243D01*
X153425000Y-97541639D01*
X146778002Y-97541639D01*
X146780077Y-97000062D01*
X150150000Y-97000062D01*
X150150949Y-97009699D01*
X150150999Y-97009947D01*
X150158317Y-97027614D01*
X150158533Y-97027938D01*
X150172062Y-97041467D01*
X150172386Y-97041683D01*
X150190053Y-97049001D01*
X150190301Y-97049051D01*
X150199938Y-97050000D01*
X150684320Y-97050000D01*
X150697005Y-97045878D01*
X150700000Y-97041757D01*
X150700000Y-97034320D01*
X151700000Y-97034320D01*
X151704122Y-97047005D01*
X151708243Y-97050000D01*
X152200062Y-97050000D01*
X152209699Y-97049051D01*
X152209947Y-97049001D01*
X152227614Y-97041683D01*
X152227938Y-97041467D01*
X152241467Y-97027938D01*
X152241683Y-97027614D01*
X152249001Y-97009947D01*
X152249051Y-97009699D01*
X152250000Y-97000062D01*
X152250000Y-96515680D01*
X152245878Y-96502995D01*
X152241757Y-96500000D01*
X151715680Y-96500000D01*
X151702995Y-96504122D01*
X151700000Y-96508243D01*
X151700000Y-97034320D01*
X150700000Y-97034320D01*
X150700000Y-96515680D01*
X150695878Y-96502995D01*
X150691757Y-96500000D01*
X150165680Y-96500000D01*
X150152995Y-96504122D01*
X150150000Y-96508243D01*
X150150000Y-97000062D01*
X146780077Y-97000062D01*
X146784639Y-95809320D01*
X153425000Y-95809320D01*
X153429122Y-95822005D01*
X153433243Y-95825000D01*
X153459320Y-95825000D01*
X153472005Y-95820878D01*
X153475000Y-95816757D01*
X153475000Y-95809320D01*
X154625000Y-95809320D01*
X154629122Y-95822005D01*
X154633243Y-95825000D01*
X154659320Y-95825000D01*
X154672005Y-95820878D01*
X154675000Y-95816757D01*
X154675000Y-95258361D01*
X154674654Y-95252515D01*
X154672766Y-95236647D01*
X154668872Y-95222481D01*
X154630232Y-95135491D01*
X154628353Y-95132756D01*
X154626336Y-95131731D01*
X154625000Y-95137309D01*
X154625000Y-95809320D01*
X153475000Y-95809320D01*
X153475000Y-95141429D01*
X153472014Y-95132238D01*
X153469481Y-95135937D01*
X153431000Y-95222980D01*
X153427127Y-95237185D01*
X153425332Y-95252580D01*
X153425000Y-95258292D01*
X153425000Y-95809320D01*
X146784639Y-95809320D01*
X146785884Y-95484320D01*
X150150000Y-95484320D01*
X150154122Y-95497005D01*
X150158243Y-95500000D01*
X150684320Y-95500000D01*
X150697005Y-95495878D01*
X150700000Y-95491757D01*
X150700000Y-95484320D01*
X151700000Y-95484320D01*
X151704122Y-95497005D01*
X151708243Y-95500000D01*
X152234320Y-95500000D01*
X152247005Y-95495878D01*
X152250000Y-95491757D01*
X152250000Y-94999938D01*
X152249051Y-94990301D01*
X152249001Y-94990053D01*
X152241683Y-94972386D01*
X152241467Y-94972062D01*
X152227938Y-94958533D01*
X152227614Y-94958317D01*
X152209947Y-94950999D01*
X152209699Y-94950949D01*
X152200062Y-94950000D01*
X151715680Y-94950000D01*
X151702995Y-94954122D01*
X151700000Y-94958243D01*
X151700000Y-95484320D01*
X150700000Y-95484320D01*
X150700000Y-94965680D01*
X150695878Y-94952995D01*
X150691757Y-94950000D01*
X150199938Y-94950000D01*
X150190301Y-94950949D01*
X150190053Y-94950999D01*
X150172386Y-94958317D01*
X150172062Y-94958533D01*
X150158533Y-94972062D01*
X150158317Y-94972386D01*
X150150999Y-94990053D01*
X150150949Y-94990301D01*
X150150000Y-94999938D01*
X150150000Y-95484320D01*
X146785884Y-95484320D01*
X146792900Y-93652986D01*
X151332238Y-93652986D01*
X151335937Y-93655519D01*
X151422980Y-93694000D01*
X151437185Y-93697873D01*
X151452580Y-93699668D01*
X151458292Y-93700000D01*
X152009320Y-93700000D01*
X152022005Y-93695878D01*
X152025000Y-93691757D01*
X152025000Y-93684320D01*
X153175000Y-93684320D01*
X153179122Y-93697005D01*
X153183243Y-93700000D01*
X153741639Y-93700000D01*
X153747485Y-93699654D01*
X153763353Y-93697766D01*
X153777519Y-93693872D01*
X153864509Y-93655232D01*
X153867244Y-93653353D01*
X153868269Y-93651336D01*
X153862691Y-93650000D01*
X153190680Y-93650000D01*
X153177995Y-93654122D01*
X153175000Y-93658243D01*
X153175000Y-93684320D01*
X152025000Y-93684320D01*
X152025000Y-93665680D01*
X152020878Y-93652995D01*
X152016757Y-93650000D01*
X151341429Y-93650000D01*
X151332238Y-93652986D01*
X146792900Y-93652986D01*
X146797323Y-92498664D01*
X151331731Y-92498664D01*
X151337309Y-92500000D01*
X152009320Y-92500000D01*
X152022005Y-92495878D01*
X152025000Y-92491757D01*
X152025000Y-92484320D01*
X153175000Y-92484320D01*
X153179122Y-92497005D01*
X153183243Y-92500000D01*
X153858571Y-92500000D01*
X153867762Y-92497014D01*
X153864063Y-92494481D01*
X153777020Y-92456000D01*
X153762815Y-92452127D01*
X153747420Y-92450332D01*
X153741708Y-92450000D01*
X153190680Y-92450000D01*
X153177995Y-92454122D01*
X153175000Y-92458243D01*
X153175000Y-92484320D01*
X152025000Y-92484320D01*
X152025000Y-92465680D01*
X152020878Y-92452995D01*
X152016757Y-92450000D01*
X151458361Y-92450000D01*
X151452515Y-92450346D01*
X151436647Y-92452234D01*
X151422481Y-92456128D01*
X151335491Y-92494768D01*
X151332756Y-92496647D01*
X151331731Y-92498664D01*
X146797323Y-92498664D01*
X146799622Y-91898621D01*
X146818752Y-91840503D01*
X146868389Y-91804729D01*
X146898621Y-91800000D01*
X154301000Y-91800000D01*
X154359191Y-91818907D01*
G37*
%TD.AperFunction*%
%TD*%
%TA.AperFunction,Conductor*%
%TO.N,Net-(L1-Pad2)*%
G36*
X145709191Y-93268907D02*
G01*
X145745155Y-93318407D01*
X145750000Y-93349000D01*
X145750000Y-98651000D01*
X145731093Y-98709191D01*
X145681593Y-98745155D01*
X145651000Y-98750000D01*
X138849000Y-98750000D01*
X138790809Y-98731093D01*
X138754845Y-98681593D01*
X138750000Y-98651000D01*
X138750000Y-97760413D01*
X138975001Y-97760413D01*
X138975116Y-97763789D01*
X138977644Y-97800893D01*
X138978997Y-97809479D01*
X139021980Y-97981873D01*
X139025659Y-97991875D01*
X139104218Y-98150131D01*
X139109960Y-98159109D01*
X139220660Y-98296792D01*
X139228208Y-98304340D01*
X139365891Y-98415040D01*
X139374869Y-98420782D01*
X139533125Y-98499341D01*
X139543127Y-98503020D01*
X139715518Y-98546003D01*
X139724108Y-98547356D01*
X139761214Y-98549885D01*
X139764584Y-98550000D01*
X140134320Y-98550000D01*
X140147005Y-98545878D01*
X140150000Y-98541757D01*
X140150000Y-98534319D01*
X141150000Y-98534319D01*
X141154122Y-98547004D01*
X141158243Y-98549999D01*
X141535413Y-98549999D01*
X141538789Y-98549884D01*
X141575893Y-98547356D01*
X141584479Y-98546003D01*
X141756873Y-98503020D01*
X141766875Y-98499341D01*
X141925131Y-98420782D01*
X141934109Y-98415040D01*
X142071792Y-98304340D01*
X142079340Y-98296792D01*
X142190040Y-98159109D01*
X142195782Y-98150131D01*
X142274341Y-97991875D01*
X142278020Y-97981873D01*
X142321003Y-97809482D01*
X142322356Y-97800892D01*
X142324885Y-97763786D01*
X142325000Y-97760416D01*
X142325000Y-97000062D01*
X143450000Y-97000062D01*
X143450949Y-97009699D01*
X143450999Y-97009947D01*
X143458317Y-97027614D01*
X143458533Y-97027938D01*
X143472062Y-97041467D01*
X143472386Y-97041683D01*
X143490053Y-97049001D01*
X143490301Y-97049051D01*
X143499938Y-97050000D01*
X143984320Y-97050000D01*
X143997005Y-97045878D01*
X144000000Y-97041757D01*
X144000000Y-97034320D01*
X145000000Y-97034320D01*
X145004122Y-97047005D01*
X145008243Y-97050000D01*
X145500062Y-97050000D01*
X145509699Y-97049051D01*
X145509947Y-97049001D01*
X145527614Y-97041683D01*
X145527938Y-97041467D01*
X145541467Y-97027938D01*
X145541683Y-97027614D01*
X145549001Y-97009947D01*
X145549051Y-97009699D01*
X145550000Y-97000062D01*
X145550000Y-96515680D01*
X145545878Y-96502995D01*
X145541757Y-96500000D01*
X145015680Y-96500000D01*
X145002995Y-96504122D01*
X145000000Y-96508243D01*
X145000000Y-97034320D01*
X144000000Y-97034320D01*
X144000000Y-96515680D01*
X143995878Y-96502995D01*
X143991757Y-96500000D01*
X143465680Y-96500000D01*
X143452995Y-96504122D01*
X143450000Y-96508243D01*
X143450000Y-97000062D01*
X142325000Y-97000062D01*
X142325000Y-96515680D01*
X142320878Y-96502995D01*
X142316757Y-96500000D01*
X141165680Y-96500000D01*
X141152995Y-96504122D01*
X141150000Y-96508243D01*
X141150000Y-98534319D01*
X140150000Y-98534319D01*
X140150000Y-96515680D01*
X140145878Y-96502995D01*
X140141757Y-96500000D01*
X138990681Y-96500000D01*
X138977996Y-96504122D01*
X138975001Y-96508243D01*
X138975001Y-97760413D01*
X138750000Y-97760413D01*
X138750000Y-95484320D01*
X138975000Y-95484320D01*
X138979122Y-95497005D01*
X138983243Y-95500000D01*
X140134320Y-95500000D01*
X140147005Y-95495878D01*
X140150000Y-95491757D01*
X140150000Y-95484320D01*
X141150000Y-95484320D01*
X141154122Y-95497005D01*
X141158243Y-95500000D01*
X142309319Y-95500000D01*
X142322004Y-95495878D01*
X142324999Y-95491757D01*
X142324999Y-95484320D01*
X143450000Y-95484320D01*
X143454122Y-95497005D01*
X143458243Y-95500000D01*
X143984320Y-95500000D01*
X143997005Y-95495878D01*
X144000000Y-95491757D01*
X144000000Y-95484320D01*
X145000000Y-95484320D01*
X145004122Y-95497005D01*
X145008243Y-95500000D01*
X145534320Y-95500000D01*
X145547005Y-95495878D01*
X145550000Y-95491757D01*
X145550000Y-94999938D01*
X145549051Y-94990301D01*
X145549001Y-94990053D01*
X145541683Y-94972386D01*
X145541467Y-94972062D01*
X145527938Y-94958533D01*
X145527614Y-94958317D01*
X145509947Y-94950999D01*
X145509699Y-94950949D01*
X145500062Y-94950000D01*
X145015680Y-94950000D01*
X145002995Y-94954122D01*
X145000000Y-94958243D01*
X145000000Y-95484320D01*
X144000000Y-95484320D01*
X144000000Y-94965680D01*
X143995878Y-94952995D01*
X143991757Y-94950000D01*
X143499938Y-94950000D01*
X143490301Y-94950949D01*
X143490053Y-94950999D01*
X143472386Y-94958317D01*
X143472062Y-94958533D01*
X143458533Y-94972062D01*
X143458317Y-94972386D01*
X143450999Y-94990053D01*
X143450949Y-94990301D01*
X143450000Y-94999938D01*
X143450000Y-95484320D01*
X142324999Y-95484320D01*
X142324999Y-94239587D01*
X142324884Y-94236211D01*
X142322356Y-94199107D01*
X142321003Y-94190521D01*
X142278020Y-94018127D01*
X142274341Y-94008125D01*
X142195782Y-93849869D01*
X142190040Y-93840891D01*
X142079340Y-93703208D01*
X142071792Y-93695660D01*
X141934109Y-93584960D01*
X141925131Y-93579218D01*
X141766875Y-93500659D01*
X141756873Y-93496980D01*
X141584482Y-93453997D01*
X141575892Y-93452644D01*
X141538786Y-93450115D01*
X141535416Y-93450000D01*
X141165680Y-93450000D01*
X141152995Y-93454122D01*
X141150000Y-93458243D01*
X141150000Y-95484320D01*
X140150000Y-95484320D01*
X140150000Y-93465681D01*
X140145878Y-93452996D01*
X140141757Y-93450001D01*
X139764587Y-93450001D01*
X139761211Y-93450116D01*
X139724107Y-93452644D01*
X139715521Y-93453997D01*
X139543127Y-93496980D01*
X139533125Y-93500659D01*
X139374869Y-93579218D01*
X139365891Y-93584960D01*
X139228208Y-93695660D01*
X139220660Y-93703208D01*
X139109960Y-93840891D01*
X139104218Y-93849869D01*
X139025659Y-94008125D01*
X139021980Y-94018127D01*
X138978997Y-94190518D01*
X138977644Y-94199108D01*
X138975115Y-94236214D01*
X138975000Y-94239584D01*
X138975000Y-95484320D01*
X138750000Y-95484320D01*
X138750000Y-93349000D01*
X138768907Y-93290809D01*
X138818407Y-93254845D01*
X138849000Y-93250000D01*
X145651000Y-93250000D01*
X145709191Y-93268907D01*
G37*
%TD.AperFunction*%
%TD*%
M02*
