%TF.GenerationSoftware,KiCad,Pcbnew,(6.0.8)*%
%TF.CreationDate,2023-02-08T15:19:57+01:00*%
%TF.ProjectId,power supply prototype,706f7765-7220-4737-9570-706c79207072,rev?*%
%TF.SameCoordinates,Original*%
%TF.FileFunction,Copper,L4,Bot*%
%TF.FilePolarity,Positive*%
%FSLAX46Y46*%
G04 Gerber Fmt 4.6, Leading zero omitted, Abs format (unit mm)*
G04 Created by KiCad (PCBNEW (6.0.8)) date 2023-02-08 15:19:57*
%MOMM*%
%LPD*%
G01*
G04 APERTURE LIST*
%TA.AperFunction,ComponentPad*%
%ADD10R,2.000000X2.000000*%
%TD*%
%TA.AperFunction,ComponentPad*%
%ADD11R,5.000000X5.000000*%
%TD*%
%TA.AperFunction,ComponentPad*%
%ADD12O,5.000000X5.000000*%
%TD*%
%TA.AperFunction,ComponentPad*%
%ADD13C,10.160000*%
%TD*%
%TA.AperFunction,ViaPad*%
%ADD14C,0.800000*%
%TD*%
G04 APERTURE END LIST*
D10*
%TO.P,TP4,1,1*%
%TO.N,/power supply/COMP*%
X134400000Y-78400000D03*
%TD*%
%TO.P,TP1,1,1*%
%TO.N,+BATT*%
X144000000Y-78500000D03*
%TD*%
%TO.P,TP5,1,1*%
%TO.N,Net-(L1-Pad2)*%
X144500000Y-96000000D03*
%TD*%
%TO.P,TP3,1,1*%
%TO.N,+5V*%
X155750000Y-102500000D03*
%TD*%
%TO.P,TP2,1,1*%
%TO.N,+5V*%
X151200000Y-96000000D03*
%TD*%
D11*
%TO.P,XT60,1,Pin_1*%
%TO.N,+BATT*%
X158000000Y-81000000D03*
D12*
%TO.P,XT60,2,Pin_2*%
%TO.N,-BATT*%
X158000000Y-91000000D03*
%TD*%
D13*
%TO.P,J1,2,Pin_2*%
%TO.N,+5V*%
X153100000Y-112000000D03*
%TO.P,J1,1,Pin_1*%
%TO.N,-BATT*%
X123130000Y-112000000D03*
%TD*%
D14*
%TO.N,-BATT*%
X136750000Y-77750000D03*
X136750000Y-79500000D03*
X138500000Y-90000000D03*
X137250000Y-90000000D03*
X136000000Y-90000000D03*
X134750000Y-90000000D03*
X139500000Y-88750000D03*
X139500000Y-87750000D03*
X138500000Y-88750000D03*
X138500000Y-87750000D03*
X137250000Y-88750000D03*
X137250000Y-87750000D03*
X136000000Y-88750000D03*
X136000000Y-87750000D03*
X134750000Y-88750000D03*
X134750000Y-87750000D03*
X133500000Y-88750000D03*
X133500000Y-87750000D03*
%TO.N,+5V*%
X148000000Y-94500000D03*
%TO.N,-BATT*%
X126400000Y-86800000D03*
X128500000Y-86800000D03*
X126900000Y-86000000D03*
X133400000Y-75900000D03*
X136700000Y-75900000D03*
X129000000Y-86000000D03*
X125800000Y-85900000D03*
X127400000Y-86800000D03*
X125300000Y-86700000D03*
X132100000Y-81200000D03*
X136800000Y-81800000D03*
X127900000Y-86000000D03*
%TO.N,/power supply/LX*%
X127000000Y-87800000D03*
X123600000Y-84400000D03*
%TO.N,+5V*%
X126000000Y-79500000D03*
%TO.N,/power supply/RESET*%
X124600000Y-82900000D03*
X128399248Y-84454917D03*
%TD*%
%TA.AperFunction,Conductor*%
%TO.N,-BATT*%
G36*
X167954854Y-68210550D02*
G01*
X167957286Y-68211646D01*
X167964113Y-68211474D01*
X167964119Y-68211475D01*
X167964197Y-68211473D01*
X167965455Y-68211608D01*
X167974977Y-68212559D01*
X167975758Y-68212717D01*
X167991462Y-68214406D01*
X168353278Y-68302716D01*
X168361668Y-68305141D01*
X168742622Y-68432822D01*
X168750778Y-68435943D01*
X169104228Y-68588470D01*
X169119670Y-68595134D01*
X169127536Y-68598928D01*
X169481765Y-68788506D01*
X169489285Y-68792946D01*
X169826366Y-69011580D01*
X169833488Y-69016636D01*
X170151042Y-69262784D01*
X170157710Y-69268417D01*
X170453494Y-69540343D01*
X170459657Y-69546506D01*
X170616108Y-69716683D01*
X170731580Y-69842286D01*
X170737216Y-69848958D01*
X170983364Y-70166512D01*
X170988420Y-70173634D01*
X171137325Y-70403209D01*
X171207054Y-70510715D01*
X171211491Y-70518230D01*
X171284869Y-70655337D01*
X171401072Y-70872464D01*
X171404865Y-70880328D01*
X171525107Y-71158962D01*
X171564057Y-71249221D01*
X171567178Y-71257378D01*
X171694859Y-71638332D01*
X171697284Y-71646722D01*
X171785464Y-72008003D01*
X171786992Y-72022447D01*
X171787508Y-72025052D01*
X171788423Y-72034377D01*
X171788205Y-72041974D01*
X171789439Y-72044736D01*
X171789493Y-72045289D01*
X171787215Y-89282935D01*
X171783955Y-113948817D01*
X171783908Y-113949282D01*
X171782803Y-113951735D01*
X171782976Y-113958609D01*
X171782975Y-113958616D01*
X171782976Y-113958647D01*
X171782921Y-113959162D01*
X171781899Y-113969379D01*
X171781733Y-113970200D01*
X171780043Y-113985913D01*
X171691731Y-114347724D01*
X171689306Y-114356113D01*
X171561621Y-114737071D01*
X171558503Y-114745220D01*
X171502721Y-114874483D01*
X171399311Y-115114109D01*
X171395517Y-115121976D01*
X171308876Y-115283865D01*
X171205932Y-115476217D01*
X171205931Y-115476218D01*
X171201491Y-115483737D01*
X171033434Y-115742839D01*
X170982858Y-115820814D01*
X170977803Y-115827933D01*
X170731662Y-116145476D01*
X170731657Y-116145482D01*
X170726027Y-116152147D01*
X170554180Y-116339072D01*
X170454110Y-116447922D01*
X170447935Y-116454098D01*
X170152137Y-116726038D01*
X170145502Y-116731642D01*
X169827921Y-116977813D01*
X169820814Y-116982858D01*
X169483737Y-117201490D01*
X169476218Y-117205930D01*
X169121966Y-117395522D01*
X169114117Y-117399307D01*
X168745224Y-117558502D01*
X168737067Y-117561623D01*
X168356116Y-117689305D01*
X168347727Y-117691730D01*
X167986448Y-117779913D01*
X167971994Y-117781443D01*
X167969358Y-117781965D01*
X167960100Y-117782873D01*
X167952473Y-117782655D01*
X167949698Y-117783894D01*
X167949139Y-117783949D01*
X104051168Y-117783949D01*
X104050706Y-117783903D01*
X104048265Y-117782803D01*
X104041413Y-117782975D01*
X104041412Y-117782975D01*
X104041353Y-117782976D01*
X104040396Y-117782873D01*
X104030594Y-117781894D01*
X104029795Y-117781733D01*
X104014087Y-117780043D01*
X103652276Y-117691731D01*
X103643887Y-117689306D01*
X103262929Y-117561621D01*
X103254777Y-117558502D01*
X103098968Y-117491263D01*
X102885891Y-117399311D01*
X102878024Y-117395517D01*
X102523782Y-117205931D01*
X102516262Y-117201490D01*
X102179186Y-116982858D01*
X102172065Y-116977802D01*
X102170851Y-116976861D01*
X101854512Y-116731652D01*
X101847847Y-116726022D01*
X101714083Y-116603047D01*
X101552077Y-116454109D01*
X101545902Y-116447935D01*
X101544508Y-116446418D01*
X101273962Y-116152137D01*
X101268358Y-116145502D01*
X101022187Y-115827921D01*
X101017142Y-115820814D01*
X100798510Y-115483737D01*
X100794069Y-115476217D01*
X100756266Y-115405583D01*
X100604478Y-115121966D01*
X100600693Y-115114117D01*
X100441497Y-114745222D01*
X100438377Y-114737067D01*
X100310695Y-114356116D01*
X100308270Y-114347727D01*
X100220087Y-113986448D01*
X100218557Y-113971988D01*
X100218041Y-113969386D01*
X100217127Y-113960073D01*
X100217345Y-113952473D01*
X100216111Y-113949709D01*
X100216056Y-113949152D01*
X100216171Y-113000000D01*
X102634435Y-113000000D01*
X102654673Y-113308768D01*
X102655337Y-113312104D01*
X102655337Y-113312107D01*
X102666970Y-113370587D01*
X102715040Y-113612253D01*
X102814503Y-113905263D01*
X102951361Y-114182782D01*
X103123271Y-114440065D01*
X103327293Y-114672707D01*
X103559935Y-114876729D01*
X103817218Y-115048639D01*
X103820264Y-115050141D01*
X103820269Y-115050144D01*
X103949975Y-115114108D01*
X104094737Y-115185497D01*
X104387747Y-115284960D01*
X104391082Y-115285623D01*
X104391088Y-115285625D01*
X104687893Y-115344663D01*
X104687896Y-115344663D01*
X104691232Y-115345327D01*
X104922724Y-115360500D01*
X105077276Y-115360500D01*
X105308768Y-115345327D01*
X105312104Y-115344663D01*
X105312107Y-115344663D01*
X105608912Y-115285625D01*
X105608918Y-115285623D01*
X105612253Y-115284960D01*
X105905263Y-115185497D01*
X106050025Y-115114108D01*
X106179731Y-115050144D01*
X106179736Y-115050141D01*
X106182782Y-115048639D01*
X106440065Y-114876729D01*
X106672707Y-114672707D01*
X106876729Y-114440065D01*
X106935590Y-114351974D01*
X107046748Y-114185613D01*
X107046749Y-114185612D01*
X107048639Y-114182783D01*
X107185497Y-113905263D01*
X107284960Y-113612253D01*
X107333031Y-113370587D01*
X107344663Y-113312107D01*
X107344663Y-113312104D01*
X107345327Y-113308768D01*
X107365565Y-113000000D01*
X107345327Y-112691232D01*
X107284960Y-112387747D01*
X107185497Y-112094737D01*
X107138778Y-112000000D01*
X147804460Y-112000000D01*
X147824611Y-112461537D01*
X147884911Y-112919561D01*
X147984901Y-113370587D01*
X148123820Y-113811181D01*
X148300611Y-114237992D01*
X148301656Y-114240000D01*
X148301660Y-114240008D01*
X148512878Y-114645754D01*
X148512883Y-114645763D01*
X148513928Y-114647770D01*
X148762148Y-115037397D01*
X148763522Y-115039188D01*
X148763530Y-115039199D01*
X149041998Y-115402105D01*
X149043381Y-115403907D01*
X149355488Y-115744512D01*
X149696093Y-116056619D01*
X149697891Y-116057999D01*
X149697895Y-116058002D01*
X150060801Y-116336470D01*
X150060812Y-116336478D01*
X150062603Y-116337852D01*
X150452230Y-116586072D01*
X150454237Y-116587117D01*
X150454246Y-116587122D01*
X150859992Y-116798340D01*
X150860000Y-116798344D01*
X150862008Y-116799389D01*
X151288819Y-116976180D01*
X151290973Y-116976859D01*
X151290978Y-116976861D01*
X151603506Y-117075401D01*
X151729413Y-117115099D01*
X152180439Y-117215089D01*
X152182683Y-117215384D01*
X152182692Y-117215386D01*
X152376484Y-117240899D01*
X152638463Y-117275389D01*
X153100000Y-117295540D01*
X153102267Y-117295441D01*
X153559270Y-117275488D01*
X153561537Y-117275389D01*
X153823516Y-117240899D01*
X154017308Y-117215386D01*
X154017317Y-117215384D01*
X154019561Y-117215089D01*
X154470587Y-117115099D01*
X154596494Y-117075401D01*
X154909022Y-116976861D01*
X154909027Y-116976859D01*
X154911181Y-116976180D01*
X155337992Y-116799389D01*
X155340000Y-116798344D01*
X155340008Y-116798340D01*
X155745754Y-116587122D01*
X155745763Y-116587117D01*
X155747770Y-116586072D01*
X156137397Y-116337852D01*
X156139188Y-116336478D01*
X156139199Y-116336470D01*
X156502105Y-116058002D01*
X156502109Y-116057999D01*
X156503907Y-116056619D01*
X156844512Y-115744512D01*
X157156619Y-115403907D01*
X157158002Y-115402105D01*
X157436470Y-115039199D01*
X157436478Y-115039188D01*
X157437852Y-115037397D01*
X157686072Y-114647770D01*
X157687117Y-114645763D01*
X157687122Y-114645754D01*
X157898340Y-114240008D01*
X157898344Y-114240000D01*
X157899389Y-114237992D01*
X158076180Y-113811181D01*
X158215099Y-113370587D01*
X158297256Y-113000000D01*
X164634435Y-113000000D01*
X164654673Y-113308768D01*
X164655337Y-113312104D01*
X164655337Y-113312107D01*
X164666970Y-113370587D01*
X164715040Y-113612253D01*
X164814503Y-113905263D01*
X164951361Y-114182782D01*
X165123271Y-114440065D01*
X165327293Y-114672707D01*
X165559935Y-114876729D01*
X165817218Y-115048639D01*
X165820264Y-115050141D01*
X165820269Y-115050144D01*
X165949975Y-115114108D01*
X166094737Y-115185497D01*
X166387747Y-115284960D01*
X166391082Y-115285623D01*
X166391088Y-115285625D01*
X166687893Y-115344663D01*
X166687896Y-115344663D01*
X166691232Y-115345327D01*
X166922724Y-115360500D01*
X167077276Y-115360500D01*
X167308768Y-115345327D01*
X167312104Y-115344663D01*
X167312107Y-115344663D01*
X167608912Y-115285625D01*
X167608918Y-115285623D01*
X167612253Y-115284960D01*
X167905263Y-115185497D01*
X168050025Y-115114108D01*
X168179731Y-115050144D01*
X168179736Y-115050141D01*
X168182782Y-115048639D01*
X168440065Y-114876729D01*
X168672707Y-114672707D01*
X168876729Y-114440065D01*
X168935590Y-114351974D01*
X169046748Y-114185613D01*
X169046749Y-114185612D01*
X169048639Y-114182783D01*
X169185497Y-113905263D01*
X169284960Y-113612253D01*
X169333031Y-113370587D01*
X169344663Y-113312107D01*
X169344663Y-113312104D01*
X169345327Y-113308768D01*
X169365565Y-113000000D01*
X169345327Y-112691232D01*
X169284960Y-112387747D01*
X169185497Y-112094737D01*
X169048639Y-111817218D01*
X168876729Y-111559935D01*
X168672707Y-111327293D01*
X168440065Y-111123271D01*
X168182782Y-110951361D01*
X168179736Y-110949859D01*
X168179731Y-110949856D01*
X168041685Y-110881779D01*
X167905263Y-110814503D01*
X167612253Y-110715040D01*
X167608918Y-110714377D01*
X167608912Y-110714375D01*
X167312107Y-110655337D01*
X167312104Y-110655337D01*
X167308768Y-110654673D01*
X167077276Y-110639500D01*
X166922724Y-110639500D01*
X166691232Y-110654673D01*
X166687896Y-110655337D01*
X166687893Y-110655337D01*
X166391088Y-110714375D01*
X166391082Y-110714377D01*
X166387747Y-110715040D01*
X166094737Y-110814503D01*
X165958315Y-110881779D01*
X165820269Y-110949856D01*
X165820264Y-110949859D01*
X165817218Y-110951361D01*
X165559935Y-111123271D01*
X165327293Y-111327293D01*
X165123271Y-111559935D01*
X164951361Y-111817217D01*
X164814503Y-112094737D01*
X164715040Y-112387747D01*
X164654673Y-112691232D01*
X164634435Y-113000000D01*
X158297256Y-113000000D01*
X158315089Y-112919561D01*
X158375389Y-112461537D01*
X158395540Y-112000000D01*
X158376450Y-111562766D01*
X158375488Y-111540730D01*
X158375389Y-111538463D01*
X158315089Y-111080439D01*
X158215099Y-110629413D01*
X158076180Y-110188819D01*
X157899389Y-109762008D01*
X157898340Y-109759992D01*
X157687122Y-109354246D01*
X157687117Y-109354237D01*
X157686072Y-109352230D01*
X157437852Y-108962603D01*
X157436478Y-108960812D01*
X157436470Y-108960801D01*
X157158002Y-108597895D01*
X157157999Y-108597891D01*
X157156619Y-108596093D01*
X156844512Y-108255488D01*
X156503907Y-107943381D01*
X156502105Y-107941998D01*
X156139199Y-107663530D01*
X156139188Y-107663522D01*
X156137397Y-107662148D01*
X155747770Y-107413928D01*
X155745763Y-107412883D01*
X155745754Y-107412878D01*
X155340008Y-107201660D01*
X155340000Y-107201656D01*
X155337992Y-107200611D01*
X154911181Y-107023820D01*
X154909027Y-107023141D01*
X154909022Y-107023139D01*
X154472737Y-106885579D01*
X154470587Y-106884901D01*
X154019561Y-106784911D01*
X154017317Y-106784616D01*
X154017308Y-106784614D01*
X153823516Y-106759101D01*
X153561537Y-106724611D01*
X153100000Y-106704460D01*
X152638463Y-106724611D01*
X152376484Y-106759101D01*
X152182692Y-106784614D01*
X152182683Y-106784616D01*
X152180439Y-106784911D01*
X151729413Y-106884901D01*
X151727263Y-106885579D01*
X151290978Y-107023139D01*
X151290973Y-107023141D01*
X151288819Y-107023820D01*
X150862008Y-107200611D01*
X150860000Y-107201656D01*
X150859992Y-107201660D01*
X150454246Y-107412878D01*
X150454237Y-107412883D01*
X150452230Y-107413928D01*
X150062603Y-107662148D01*
X150060812Y-107663522D01*
X150060801Y-107663530D01*
X149697895Y-107941998D01*
X149696093Y-107943381D01*
X149355488Y-108255488D01*
X149043381Y-108596093D01*
X149042001Y-108597891D01*
X149041998Y-108597895D01*
X148763530Y-108960801D01*
X148763522Y-108960812D01*
X148762148Y-108962603D01*
X148513928Y-109352230D01*
X148512883Y-109354237D01*
X148512878Y-109354246D01*
X148301660Y-109759992D01*
X148300611Y-109762008D01*
X148123820Y-110188819D01*
X147984901Y-110629413D01*
X147884911Y-111080439D01*
X147824611Y-111538463D01*
X147824512Y-111540730D01*
X147823550Y-111562766D01*
X147804460Y-112000000D01*
X107138778Y-112000000D01*
X107048639Y-111817218D01*
X106876729Y-111559935D01*
X106672707Y-111327293D01*
X106440065Y-111123271D01*
X106182782Y-110951361D01*
X106179736Y-110949859D01*
X106179731Y-110949856D01*
X106041685Y-110881779D01*
X105905263Y-110814503D01*
X105612253Y-110715040D01*
X105608918Y-110714377D01*
X105608912Y-110714375D01*
X105312107Y-110655337D01*
X105312104Y-110655337D01*
X105308768Y-110654673D01*
X105077276Y-110639500D01*
X104922724Y-110639500D01*
X104691232Y-110654673D01*
X104687896Y-110655337D01*
X104687893Y-110655337D01*
X104391088Y-110714375D01*
X104391082Y-110714377D01*
X104387747Y-110715040D01*
X104094737Y-110814503D01*
X103958315Y-110881779D01*
X103820269Y-110949856D01*
X103820264Y-110949859D01*
X103817218Y-110951361D01*
X103559935Y-111123271D01*
X103327293Y-111327293D01*
X103123271Y-111559935D01*
X102951361Y-111817217D01*
X102814503Y-112094737D01*
X102715040Y-112387747D01*
X102654673Y-112691232D01*
X102634435Y-113000000D01*
X100216171Y-113000000D01*
X100216244Y-112391088D01*
X100217561Y-101479267D01*
X154539500Y-101479267D01*
X154539501Y-103520732D01*
X154551713Y-103582133D01*
X154557401Y-103590646D01*
X154557402Y-103590648D01*
X154592549Y-103643248D01*
X154598238Y-103651762D01*
X154667867Y-103698287D01*
X154729267Y-103710500D01*
X155749800Y-103710500D01*
X156770732Y-103710499D01*
X156775739Y-103709503D01*
X156775741Y-103709503D01*
X156822088Y-103700285D01*
X156822089Y-103700285D01*
X156832133Y-103698287D01*
X156840646Y-103692599D01*
X156840648Y-103692598D01*
X156893248Y-103657451D01*
X156901762Y-103651762D01*
X156948287Y-103582133D01*
X156960500Y-103520733D01*
X156960499Y-101479268D01*
X156948287Y-101417867D01*
X156942599Y-101409354D01*
X156942598Y-101409352D01*
X156907451Y-101356752D01*
X156901762Y-101348238D01*
X156832133Y-101301713D01*
X156770733Y-101289500D01*
X155750200Y-101289500D01*
X154729268Y-101289501D01*
X154724261Y-101290497D01*
X154724259Y-101290497D01*
X154677912Y-101299715D01*
X154677911Y-101299715D01*
X154667867Y-101301713D01*
X154659354Y-101307401D01*
X154659352Y-101307402D01*
X154659351Y-101307403D01*
X154598238Y-101348238D01*
X154551713Y-101417867D01*
X154539500Y-101479267D01*
X100217561Y-101479267D01*
X100218346Y-94979267D01*
X143289500Y-94979267D01*
X143289501Y-97020732D01*
X143301713Y-97082133D01*
X143307401Y-97090646D01*
X143307402Y-97090648D01*
X143342549Y-97143248D01*
X143348238Y-97151762D01*
X143417867Y-97198287D01*
X143479267Y-97210500D01*
X144499800Y-97210500D01*
X145520732Y-97210499D01*
X145525739Y-97209503D01*
X145525741Y-97209503D01*
X145572088Y-97200285D01*
X145572089Y-97200285D01*
X145582133Y-97198287D01*
X145590646Y-97192599D01*
X145590648Y-97192598D01*
X145643248Y-97157451D01*
X145651762Y-97151762D01*
X145698287Y-97082133D01*
X145710500Y-97020733D01*
X145710499Y-94979268D01*
X145698287Y-94917867D01*
X145692599Y-94909354D01*
X145692598Y-94909352D01*
X145657451Y-94856752D01*
X145651762Y-94848238D01*
X145582133Y-94801713D01*
X145520733Y-94789500D01*
X144500200Y-94789500D01*
X143479268Y-94789501D01*
X143474261Y-94790497D01*
X143474259Y-94790497D01*
X143427912Y-94799715D01*
X143427911Y-94799715D01*
X143417867Y-94801713D01*
X143409354Y-94807401D01*
X143409352Y-94807402D01*
X143409351Y-94807403D01*
X143348238Y-94848238D01*
X143301713Y-94917867D01*
X143289500Y-94979267D01*
X100218346Y-94979267D01*
X100218405Y-94493560D01*
X147385050Y-94493560D01*
X147401265Y-94640432D01*
X147452045Y-94779197D01*
X147455542Y-94784401D01*
X147455543Y-94784403D01*
X147498439Y-94848238D01*
X147534460Y-94901843D01*
X147643751Y-95001291D01*
X147773609Y-95071798D01*
X147916537Y-95109294D01*
X147992614Y-95110489D01*
X148058015Y-95111517D01*
X148058019Y-95111517D01*
X148064283Y-95111615D01*
X148208318Y-95078627D01*
X148340327Y-95012233D01*
X148353139Y-95001291D01*
X148378926Y-94979267D01*
X149989500Y-94979267D01*
X149989501Y-97020732D01*
X150001713Y-97082133D01*
X150007401Y-97090646D01*
X150007402Y-97090648D01*
X150042549Y-97143248D01*
X150048238Y-97151762D01*
X150117867Y-97198287D01*
X150179267Y-97210500D01*
X151199800Y-97210500D01*
X152220732Y-97210499D01*
X152225739Y-97209503D01*
X152225741Y-97209503D01*
X152272088Y-97200285D01*
X152272089Y-97200285D01*
X152282133Y-97198287D01*
X152290646Y-97192599D01*
X152290648Y-97192598D01*
X152343248Y-97157451D01*
X152351762Y-97151762D01*
X152398287Y-97082133D01*
X152410500Y-97020733D01*
X152410499Y-94979268D01*
X152398287Y-94917867D01*
X152392599Y-94909354D01*
X152392598Y-94909352D01*
X152357451Y-94856752D01*
X152351762Y-94848238D01*
X152282133Y-94801713D01*
X152220733Y-94789500D01*
X151200200Y-94789500D01*
X150179268Y-94789501D01*
X150174261Y-94790497D01*
X150174259Y-94790497D01*
X150127912Y-94799715D01*
X150127911Y-94799715D01*
X150117867Y-94801713D01*
X150109354Y-94807401D01*
X150109352Y-94807402D01*
X150109351Y-94807403D01*
X150048238Y-94848238D01*
X150001713Y-94917867D01*
X149989500Y-94979267D01*
X148378926Y-94979267D01*
X148418772Y-94945235D01*
X148452688Y-94916268D01*
X148538915Y-94796271D01*
X148594029Y-94659170D01*
X148614849Y-94512879D01*
X148614984Y-94500000D01*
X148597232Y-94353306D01*
X148545001Y-94215080D01*
X148541453Y-94209917D01*
X148541451Y-94209914D01*
X148464856Y-94098469D01*
X148464855Y-94098468D01*
X148461306Y-94093304D01*
X148350980Y-93995006D01*
X148344092Y-93991359D01*
X148225933Y-93928797D01*
X148225931Y-93928796D01*
X148220391Y-93925863D01*
X148214311Y-93924336D01*
X148214309Y-93924335D01*
X148083157Y-93891392D01*
X148077078Y-93889865D01*
X148070812Y-93889832D01*
X148070810Y-93889832D01*
X148004840Y-93889487D01*
X147929315Y-93889092D01*
X147785634Y-93923587D01*
X147780066Y-93926461D01*
X147780063Y-93926462D01*
X147659899Y-93988483D01*
X147659895Y-93988485D01*
X147654328Y-93991359D01*
X147649604Y-93995480D01*
X147547699Y-94084376D01*
X147547696Y-94084379D01*
X147542978Y-94088495D01*
X147539377Y-94093619D01*
X147539374Y-94093622D01*
X147461617Y-94204259D01*
X147458012Y-94209389D01*
X147404337Y-94347060D01*
X147403519Y-94353275D01*
X147403518Y-94353278D01*
X147402695Y-94359533D01*
X147385050Y-94493560D01*
X100218405Y-94493560D01*
X100218746Y-91664451D01*
X155064420Y-91664451D01*
X155133612Y-91928195D01*
X155135465Y-91933896D01*
X155259295Y-92251507D01*
X155261781Y-92256937D01*
X155421303Y-92558219D01*
X155424404Y-92563339D01*
X155617486Y-92844275D01*
X155621156Y-92849007D01*
X155845258Y-93105901D01*
X155849437Y-93110168D01*
X156101586Y-93339606D01*
X156106223Y-93343361D01*
X156383061Y-93542290D01*
X156388129Y-93545506D01*
X156685986Y-93711291D01*
X156691378Y-93713897D01*
X157006316Y-93844349D01*
X157011980Y-93846321D01*
X157336226Y-93938685D01*
X157347595Y-93936945D01*
X157348311Y-93936237D01*
X157350000Y-93929280D01*
X157350000Y-93922389D01*
X158650000Y-93922389D01*
X158654330Y-93935715D01*
X158654667Y-93935960D01*
X158662780Y-93936491D01*
X158715784Y-93926668D01*
X158721591Y-93925241D01*
X159047406Y-93825007D01*
X159053034Y-93822914D01*
X159365175Y-93685894D01*
X159370503Y-93683179D01*
X159664839Y-93511183D01*
X159669816Y-93507877D01*
X159942435Y-93303188D01*
X159946996Y-93299334D01*
X160194288Y-93064664D01*
X160198370Y-93060316D01*
X160417046Y-92798782D01*
X160420614Y-92793979D01*
X160607773Y-92509055D01*
X160610765Y-92503873D01*
X160763937Y-92199326D01*
X160766317Y-92193826D01*
X160883464Y-91873704D01*
X160885200Y-91867953D01*
X160933681Y-91666017D01*
X160932631Y-91652677D01*
X160923140Y-91650000D01*
X158666471Y-91650000D01*
X158653145Y-91654330D01*
X158650000Y-91658659D01*
X158650000Y-93922389D01*
X157350000Y-93922389D01*
X157350000Y-91666471D01*
X157345670Y-91653145D01*
X157341341Y-91650000D01*
X155077100Y-91650000D01*
X155064721Y-91654022D01*
X155064420Y-91664451D01*
X100218746Y-91664451D01*
X100218907Y-90333870D01*
X155066021Y-90333870D01*
X155067548Y-90347697D01*
X155076235Y-90350000D01*
X157333529Y-90350000D01*
X157346855Y-90345670D01*
X157350000Y-90341341D01*
X157350000Y-90333529D01*
X158650000Y-90333529D01*
X158654330Y-90346855D01*
X158658659Y-90350000D01*
X160923658Y-90350000D01*
X160936984Y-90345670D01*
X160937401Y-90345095D01*
X160937942Y-90337467D01*
X160934003Y-90314902D01*
X160932640Y-90309090D01*
X160835819Y-89982228D01*
X160833787Y-89976585D01*
X160700047Y-89663038D01*
X160697378Y-89657661D01*
X160528480Y-89361549D01*
X160525222Y-89356533D01*
X160323411Y-89081800D01*
X160319589Y-89077180D01*
X160087544Y-88827472D01*
X160083208Y-88823313D01*
X159823989Y-88601919D01*
X159819235Y-88598310D01*
X159536278Y-88408171D01*
X159531126Y-88405124D01*
X159228197Y-88248771D01*
X159222737Y-88246340D01*
X158903836Y-88125837D01*
X158898144Y-88124053D01*
X158665974Y-88065736D01*
X158652805Y-88066633D01*
X158650000Y-88076384D01*
X158650000Y-90333529D01*
X157350000Y-90333529D01*
X157350000Y-88079421D01*
X157345755Y-88066357D01*
X157336489Y-88065896D01*
X157192634Y-88097261D01*
X157186893Y-88098864D01*
X156864368Y-88209289D01*
X156858822Y-88211552D01*
X156551131Y-88358313D01*
X156545893Y-88361193D01*
X156257113Y-88542344D01*
X156252226Y-88545817D01*
X155986184Y-88758957D01*
X155981734Y-88762965D01*
X155741950Y-89005273D01*
X155737993Y-89009761D01*
X155527646Y-89278026D01*
X155524234Y-89282935D01*
X155346106Y-89573613D01*
X155343289Y-89578865D01*
X155199748Y-89888100D01*
X155197553Y-89893643D01*
X155090514Y-90217301D01*
X155088962Y-90223093D01*
X155066021Y-90333870D01*
X100218907Y-90333870D01*
X100219213Y-87793560D01*
X126385050Y-87793560D01*
X126401265Y-87940432D01*
X126433521Y-88028576D01*
X126447178Y-88065896D01*
X126452045Y-88079197D01*
X126455542Y-88084401D01*
X126455543Y-88084403D01*
X126466939Y-88101361D01*
X126534460Y-88201843D01*
X126643751Y-88301291D01*
X126773609Y-88371798D01*
X126916537Y-88409294D01*
X126992614Y-88410489D01*
X127058015Y-88411517D01*
X127058019Y-88411517D01*
X127064283Y-88411615D01*
X127208318Y-88378627D01*
X127340327Y-88312233D01*
X127353139Y-88301291D01*
X127447919Y-88220341D01*
X127452688Y-88216268D01*
X127538915Y-88096271D01*
X127546910Y-88076384D01*
X127591690Y-87964989D01*
X127591690Y-87964987D01*
X127594029Y-87959170D01*
X127614849Y-87812879D01*
X127614984Y-87800000D01*
X127597232Y-87653306D01*
X127545001Y-87515080D01*
X127541453Y-87509917D01*
X127541451Y-87509914D01*
X127464856Y-87398469D01*
X127464855Y-87398468D01*
X127461306Y-87393304D01*
X127350980Y-87295006D01*
X127344092Y-87291359D01*
X127225933Y-87228797D01*
X127225931Y-87228796D01*
X127220391Y-87225863D01*
X127214311Y-87224336D01*
X127214309Y-87224335D01*
X127083157Y-87191392D01*
X127077078Y-87189865D01*
X127070812Y-87189832D01*
X127070810Y-87189832D01*
X127004840Y-87189487D01*
X126929315Y-87189092D01*
X126785634Y-87223587D01*
X126780066Y-87226461D01*
X126780063Y-87226462D01*
X126659899Y-87288483D01*
X126659895Y-87288485D01*
X126654328Y-87291359D01*
X126649604Y-87295480D01*
X126547699Y-87384376D01*
X126547696Y-87384379D01*
X126542978Y-87388495D01*
X126539377Y-87393619D01*
X126539374Y-87393622D01*
X126461617Y-87504259D01*
X126458012Y-87509389D01*
X126404337Y-87647060D01*
X126403519Y-87653275D01*
X126403518Y-87653278D01*
X126402695Y-87659533D01*
X126385050Y-87793560D01*
X100219213Y-87793560D01*
X100219623Y-84393560D01*
X122985050Y-84393560D01*
X123001265Y-84540432D01*
X123052045Y-84679197D01*
X123055542Y-84684401D01*
X123055543Y-84684403D01*
X123096514Y-84745373D01*
X123134460Y-84801843D01*
X123243751Y-84901291D01*
X123373609Y-84971798D01*
X123516537Y-85009294D01*
X123592614Y-85010489D01*
X123658015Y-85011517D01*
X123658019Y-85011517D01*
X123664283Y-85011615D01*
X123808318Y-84978627D01*
X123940327Y-84912233D01*
X123953139Y-84901291D01*
X124047919Y-84820341D01*
X124052688Y-84816268D01*
X124138915Y-84696271D01*
X124169614Y-84619906D01*
X124191690Y-84564989D01*
X124191690Y-84564987D01*
X124194029Y-84559170D01*
X124209783Y-84448477D01*
X127784298Y-84448477D01*
X127800513Y-84595349D01*
X127851293Y-84734114D01*
X127854790Y-84739318D01*
X127854791Y-84739320D01*
X127899640Y-84806061D01*
X127933708Y-84856760D01*
X128042999Y-84956208D01*
X128172857Y-85026715D01*
X128315785Y-85064211D01*
X128391862Y-85065406D01*
X128457263Y-85066434D01*
X128457267Y-85066434D01*
X128463531Y-85066532D01*
X128607566Y-85033544D01*
X128739575Y-84967150D01*
X128752387Y-84956208D01*
X128847167Y-84875258D01*
X128851936Y-84871185D01*
X128938163Y-84751188D01*
X128958194Y-84701361D01*
X128990938Y-84619906D01*
X128990938Y-84619904D01*
X128993277Y-84614087D01*
X129014097Y-84467796D01*
X129014232Y-84454917D01*
X128996480Y-84308223D01*
X128944249Y-84169997D01*
X128940701Y-84164834D01*
X128940699Y-84164831D01*
X128864104Y-84053386D01*
X128864103Y-84053385D01*
X128860554Y-84048221D01*
X128850534Y-84039293D01*
X128754912Y-83954096D01*
X128754910Y-83954095D01*
X128750228Y-83949923D01*
X128743340Y-83946276D01*
X128625181Y-83883714D01*
X128625179Y-83883713D01*
X128619639Y-83880780D01*
X128613559Y-83879253D01*
X128613557Y-83879252D01*
X128482405Y-83846309D01*
X128476326Y-83844782D01*
X128470060Y-83844749D01*
X128470058Y-83844749D01*
X128404088Y-83844404D01*
X128328563Y-83844009D01*
X128184882Y-83878504D01*
X128179314Y-83881378D01*
X128179311Y-83881379D01*
X128059147Y-83943400D01*
X128059143Y-83943402D01*
X128053576Y-83946276D01*
X128048852Y-83950397D01*
X127946947Y-84039293D01*
X127946944Y-84039296D01*
X127942226Y-84043412D01*
X127938625Y-84048536D01*
X127938622Y-84048539D01*
X127860865Y-84159176D01*
X127857260Y-84164306D01*
X127803585Y-84301977D01*
X127802767Y-84308192D01*
X127802766Y-84308195D01*
X127785116Y-84442262D01*
X127784298Y-84448477D01*
X124209783Y-84448477D01*
X124214849Y-84412879D01*
X124214984Y-84400000D01*
X124203874Y-84308195D01*
X124197986Y-84259533D01*
X124197985Y-84259529D01*
X124197232Y-84253306D01*
X124145001Y-84115080D01*
X124141453Y-84109917D01*
X124141451Y-84109914D01*
X124064856Y-83998469D01*
X124064855Y-83998468D01*
X124061306Y-83993304D01*
X124051286Y-83984376D01*
X123955664Y-83899179D01*
X123955662Y-83899178D01*
X123950980Y-83895006D01*
X123944092Y-83891359D01*
X123825933Y-83828797D01*
X123825931Y-83828796D01*
X123820391Y-83825863D01*
X123814311Y-83824336D01*
X123814309Y-83824335D01*
X123683157Y-83791392D01*
X123677078Y-83789865D01*
X123670812Y-83789832D01*
X123670810Y-83789832D01*
X123604840Y-83789487D01*
X123529315Y-83789092D01*
X123385634Y-83823587D01*
X123380066Y-83826461D01*
X123380063Y-83826462D01*
X123259899Y-83888483D01*
X123259895Y-83888485D01*
X123254328Y-83891359D01*
X123249604Y-83895480D01*
X123147699Y-83984376D01*
X123147696Y-83984379D01*
X123142978Y-83988495D01*
X123139377Y-83993619D01*
X123139374Y-83993622D01*
X123061617Y-84104259D01*
X123058012Y-84109389D01*
X123004337Y-84247060D01*
X123003519Y-84253275D01*
X123003518Y-84253278D01*
X122995465Y-84314450D01*
X122985050Y-84393560D01*
X100219623Y-84393560D01*
X100219804Y-82893560D01*
X123985050Y-82893560D01*
X124001265Y-83040432D01*
X124052045Y-83179197D01*
X124055542Y-83184401D01*
X124055543Y-83184403D01*
X124066939Y-83201361D01*
X124134460Y-83301843D01*
X124243751Y-83401291D01*
X124373609Y-83471798D01*
X124516537Y-83509294D01*
X124592614Y-83510489D01*
X124658015Y-83511517D01*
X124658019Y-83511517D01*
X124664283Y-83511615D01*
X124808318Y-83478627D01*
X124940327Y-83412233D01*
X124953139Y-83401291D01*
X125047919Y-83320341D01*
X125052688Y-83316268D01*
X125138915Y-83196271D01*
X125194029Y-83059170D01*
X125214849Y-82912879D01*
X125214984Y-82900000D01*
X125197232Y-82753306D01*
X125145001Y-82615080D01*
X125141453Y-82609917D01*
X125141451Y-82609914D01*
X125064856Y-82498469D01*
X125064855Y-82498468D01*
X125061306Y-82493304D01*
X124950980Y-82395006D01*
X124944092Y-82391359D01*
X124825933Y-82328797D01*
X124825931Y-82328796D01*
X124820391Y-82325863D01*
X124814311Y-82324336D01*
X124814309Y-82324335D01*
X124683157Y-82291392D01*
X124677078Y-82289865D01*
X124670812Y-82289832D01*
X124670810Y-82289832D01*
X124604840Y-82289487D01*
X124529315Y-82289092D01*
X124385634Y-82323587D01*
X124380066Y-82326461D01*
X124380063Y-82326462D01*
X124259899Y-82388483D01*
X124259895Y-82388485D01*
X124254328Y-82391359D01*
X124249604Y-82395480D01*
X124147699Y-82484376D01*
X124147696Y-82484379D01*
X124142978Y-82488495D01*
X124139377Y-82493619D01*
X124139374Y-82493622D01*
X124061617Y-82604259D01*
X124058012Y-82609389D01*
X124004337Y-82747060D01*
X124003519Y-82753275D01*
X124003518Y-82753278D01*
X124002695Y-82759533D01*
X123985050Y-82893560D01*
X100219804Y-82893560D01*
X100220214Y-79493560D01*
X125385050Y-79493560D01*
X125401265Y-79640432D01*
X125452045Y-79779197D01*
X125455542Y-79784401D01*
X125455543Y-79784403D01*
X125466939Y-79801361D01*
X125534460Y-79901843D01*
X125643751Y-80001291D01*
X125773609Y-80071798D01*
X125916537Y-80109294D01*
X125992614Y-80110489D01*
X126058015Y-80111517D01*
X126058019Y-80111517D01*
X126064283Y-80111615D01*
X126208318Y-80078627D01*
X126340327Y-80012233D01*
X126353139Y-80001291D01*
X126447919Y-79920341D01*
X126452688Y-79916268D01*
X126538915Y-79796271D01*
X126573796Y-79709503D01*
X126591690Y-79664989D01*
X126591690Y-79664987D01*
X126594029Y-79659170D01*
X126601098Y-79609504D01*
X126614369Y-79516251D01*
X126614849Y-79512879D01*
X126614984Y-79500000D01*
X126605392Y-79420733D01*
X126597986Y-79359533D01*
X126597985Y-79359529D01*
X126597232Y-79353306D01*
X126545001Y-79215080D01*
X126541453Y-79209917D01*
X126541451Y-79209914D01*
X126464856Y-79098469D01*
X126464855Y-79098468D01*
X126461306Y-79093304D01*
X126350980Y-78995006D01*
X126344092Y-78991359D01*
X126225933Y-78928797D01*
X126225931Y-78928796D01*
X126220391Y-78925863D01*
X126214311Y-78924336D01*
X126214309Y-78924335D01*
X126083157Y-78891392D01*
X126077078Y-78889865D01*
X126070812Y-78889832D01*
X126070810Y-78889832D01*
X126004840Y-78889487D01*
X125929315Y-78889092D01*
X125785634Y-78923587D01*
X125780066Y-78926461D01*
X125780063Y-78926462D01*
X125659899Y-78988483D01*
X125659895Y-78988485D01*
X125654328Y-78991359D01*
X125649604Y-78995480D01*
X125547699Y-79084376D01*
X125547696Y-79084379D01*
X125542978Y-79088495D01*
X125539377Y-79093619D01*
X125539374Y-79093622D01*
X125461617Y-79204259D01*
X125458012Y-79209389D01*
X125404337Y-79347060D01*
X125403519Y-79353275D01*
X125403518Y-79353278D01*
X125394638Y-79420732D01*
X125385050Y-79493560D01*
X100220214Y-79493560D01*
X100220469Y-77379267D01*
X133189500Y-77379267D01*
X133189501Y-79420732D01*
X133201713Y-79482133D01*
X133207401Y-79490646D01*
X133207402Y-79490648D01*
X133222257Y-79512879D01*
X133248238Y-79551762D01*
X133317867Y-79598287D01*
X133379267Y-79610500D01*
X134399800Y-79610500D01*
X135420732Y-79610499D01*
X135425739Y-79609503D01*
X135425741Y-79609503D01*
X135472088Y-79600285D01*
X135472089Y-79600285D01*
X135482133Y-79598287D01*
X135490646Y-79592599D01*
X135490648Y-79592598D01*
X135543248Y-79557451D01*
X135551762Y-79551762D01*
X135598287Y-79482133D01*
X135610500Y-79420733D01*
X135610499Y-77479267D01*
X142789500Y-77479267D01*
X142789501Y-79520732D01*
X142790497Y-79525738D01*
X142790497Y-79525741D01*
X142796804Y-79557451D01*
X142801713Y-79582133D01*
X142807401Y-79590646D01*
X142807402Y-79590648D01*
X142820667Y-79610500D01*
X142848238Y-79651762D01*
X142917867Y-79698287D01*
X142979267Y-79710500D01*
X143999800Y-79710500D01*
X145020732Y-79710499D01*
X145025739Y-79709503D01*
X145025741Y-79709503D01*
X145072088Y-79700285D01*
X145072089Y-79700285D01*
X145082133Y-79698287D01*
X145090646Y-79692599D01*
X145090648Y-79692598D01*
X145143248Y-79657451D01*
X145151762Y-79651762D01*
X145198287Y-79582133D01*
X145210500Y-79520733D01*
X145210499Y-78479267D01*
X155289500Y-78479267D01*
X155289501Y-83520732D01*
X155301713Y-83582133D01*
X155307401Y-83590646D01*
X155307402Y-83590648D01*
X155342549Y-83643248D01*
X155348238Y-83651762D01*
X155417867Y-83698287D01*
X155479267Y-83710500D01*
X157999753Y-83710500D01*
X160520732Y-83710499D01*
X160525739Y-83709503D01*
X160525741Y-83709503D01*
X160572088Y-83700285D01*
X160572089Y-83700285D01*
X160582133Y-83698287D01*
X160590646Y-83692599D01*
X160590648Y-83692598D01*
X160643248Y-83657451D01*
X160651762Y-83651762D01*
X160698287Y-83582133D01*
X160710500Y-83520733D01*
X160710499Y-78479268D01*
X160698287Y-78417867D01*
X160692599Y-78409354D01*
X160692598Y-78409352D01*
X160657451Y-78356752D01*
X160651762Y-78348238D01*
X160582133Y-78301713D01*
X160520733Y-78289500D01*
X158000247Y-78289500D01*
X155479268Y-78289501D01*
X155474261Y-78290497D01*
X155474259Y-78290497D01*
X155427912Y-78299715D01*
X155427911Y-78299715D01*
X155417867Y-78301713D01*
X155409354Y-78307401D01*
X155409352Y-78307402D01*
X155409351Y-78307403D01*
X155348238Y-78348238D01*
X155301713Y-78417867D01*
X155289500Y-78479267D01*
X145210499Y-78479267D01*
X145210499Y-77479268D01*
X145198287Y-77417867D01*
X145192599Y-77409354D01*
X145192598Y-77409352D01*
X145157451Y-77356752D01*
X145151762Y-77348238D01*
X145082133Y-77301713D01*
X145020733Y-77289500D01*
X144000200Y-77289500D01*
X142979268Y-77289501D01*
X142974261Y-77290497D01*
X142974259Y-77290497D01*
X142927912Y-77299715D01*
X142927911Y-77299715D01*
X142917867Y-77301713D01*
X142909354Y-77307401D01*
X142909352Y-77307402D01*
X142856752Y-77342549D01*
X142848238Y-77348238D01*
X142801713Y-77417867D01*
X142789500Y-77479267D01*
X135610499Y-77479267D01*
X135610499Y-77379268D01*
X135604328Y-77348238D01*
X135600285Y-77327912D01*
X135600285Y-77327911D01*
X135598287Y-77317867D01*
X135592599Y-77309354D01*
X135592598Y-77309352D01*
X135557451Y-77256752D01*
X135551762Y-77248238D01*
X135482133Y-77201713D01*
X135420733Y-77189500D01*
X134400200Y-77189500D01*
X133379268Y-77189501D01*
X133374261Y-77190497D01*
X133374259Y-77190497D01*
X133327912Y-77199715D01*
X133327911Y-77199715D01*
X133317867Y-77201713D01*
X133309354Y-77207401D01*
X133309352Y-77207402D01*
X133309351Y-77207403D01*
X133248238Y-77248238D01*
X133201713Y-77317867D01*
X133189500Y-77379267D01*
X100220469Y-77379267D01*
X100220998Y-73000000D01*
X102634435Y-73000000D01*
X102654673Y-73308768D01*
X102715040Y-73612253D01*
X102814503Y-73905263D01*
X102951361Y-74182782D01*
X103123271Y-74440065D01*
X103327293Y-74672707D01*
X103559935Y-74876729D01*
X103817218Y-75048639D01*
X103820264Y-75050141D01*
X103820269Y-75050144D01*
X103958315Y-75118221D01*
X104094737Y-75185497D01*
X104387747Y-75284960D01*
X104391082Y-75285623D01*
X104391088Y-75285625D01*
X104687893Y-75344663D01*
X104687896Y-75344663D01*
X104691232Y-75345327D01*
X104922724Y-75360500D01*
X105077276Y-75360500D01*
X105308768Y-75345327D01*
X105312104Y-75344663D01*
X105312107Y-75344663D01*
X105608912Y-75285625D01*
X105608918Y-75285623D01*
X105612253Y-75284960D01*
X105905263Y-75185497D01*
X106041685Y-75118221D01*
X106179731Y-75050144D01*
X106179736Y-75050141D01*
X106182782Y-75048639D01*
X106440065Y-74876729D01*
X106672707Y-74672707D01*
X106876729Y-74440065D01*
X107048639Y-74182783D01*
X107185497Y-73905263D01*
X107284960Y-73612253D01*
X107345327Y-73308768D01*
X107365565Y-73000000D01*
X164634435Y-73000000D01*
X164654673Y-73308768D01*
X164715040Y-73612253D01*
X164814503Y-73905263D01*
X164951361Y-74182782D01*
X165123271Y-74440065D01*
X165327293Y-74672707D01*
X165559935Y-74876729D01*
X165817218Y-75048639D01*
X165820264Y-75050141D01*
X165820269Y-75050144D01*
X165958315Y-75118221D01*
X166094737Y-75185497D01*
X166387747Y-75284960D01*
X166391082Y-75285623D01*
X166391088Y-75285625D01*
X166687893Y-75344663D01*
X166687896Y-75344663D01*
X166691232Y-75345327D01*
X166922724Y-75360500D01*
X167077276Y-75360500D01*
X167308768Y-75345327D01*
X167312104Y-75344663D01*
X167312107Y-75344663D01*
X167608912Y-75285625D01*
X167608918Y-75285623D01*
X167612253Y-75284960D01*
X167905263Y-75185497D01*
X168041685Y-75118221D01*
X168179731Y-75050144D01*
X168179736Y-75050141D01*
X168182782Y-75048639D01*
X168440065Y-74876729D01*
X168672707Y-74672707D01*
X168876729Y-74440065D01*
X169048639Y-74182783D01*
X169185497Y-73905263D01*
X169284960Y-73612253D01*
X169345327Y-73308768D01*
X169365565Y-73000000D01*
X169345327Y-72691232D01*
X169284960Y-72387747D01*
X169185497Y-72094737D01*
X169048639Y-71817218D01*
X168876729Y-71559935D01*
X168672707Y-71327293D01*
X168588263Y-71253237D01*
X168480763Y-71158962D01*
X168440065Y-71123271D01*
X168182782Y-70951361D01*
X168179736Y-70949859D01*
X168179731Y-70949856D01*
X168022796Y-70872464D01*
X167905263Y-70814503D01*
X167612253Y-70715040D01*
X167608918Y-70714377D01*
X167608912Y-70714375D01*
X167312107Y-70655337D01*
X167312104Y-70655337D01*
X167308768Y-70654673D01*
X167077276Y-70639500D01*
X166922724Y-70639500D01*
X166691232Y-70654673D01*
X166687896Y-70655337D01*
X166687893Y-70655337D01*
X166391088Y-70714375D01*
X166391082Y-70714377D01*
X166387747Y-70715040D01*
X166094737Y-70814503D01*
X165977204Y-70872464D01*
X165820269Y-70949856D01*
X165820264Y-70949859D01*
X165817218Y-70951361D01*
X165559935Y-71123271D01*
X165519237Y-71158962D01*
X165411738Y-71253237D01*
X165327293Y-71327293D01*
X165123271Y-71559935D01*
X165121382Y-71562762D01*
X165121379Y-71562766D01*
X164975070Y-71781734D01*
X164951361Y-71817217D01*
X164814503Y-72094737D01*
X164715040Y-72387747D01*
X164654673Y-72691232D01*
X164634435Y-73000000D01*
X107365565Y-73000000D01*
X107345327Y-72691232D01*
X107284960Y-72387747D01*
X107185497Y-72094737D01*
X107048639Y-71817218D01*
X106876729Y-71559935D01*
X106672707Y-71327293D01*
X106588263Y-71253237D01*
X106480763Y-71158962D01*
X106440065Y-71123271D01*
X106182782Y-70951361D01*
X106179736Y-70949859D01*
X106179731Y-70949856D01*
X106022796Y-70872464D01*
X105905263Y-70814503D01*
X105612253Y-70715040D01*
X105608918Y-70714377D01*
X105608912Y-70714375D01*
X105312107Y-70655337D01*
X105312104Y-70655337D01*
X105308768Y-70654673D01*
X105077276Y-70639500D01*
X104922724Y-70639500D01*
X104691232Y-70654673D01*
X104687896Y-70655337D01*
X104687893Y-70655337D01*
X104391088Y-70714375D01*
X104391082Y-70714377D01*
X104387747Y-70715040D01*
X104094737Y-70814503D01*
X103977204Y-70872464D01*
X103820269Y-70949856D01*
X103820264Y-70949859D01*
X103817218Y-70951361D01*
X103559935Y-71123271D01*
X103519237Y-71158962D01*
X103411738Y-71253237D01*
X103327293Y-71327293D01*
X103123271Y-71559935D01*
X103121382Y-71562762D01*
X103121379Y-71562766D01*
X102975070Y-71781734D01*
X102951361Y-71817217D01*
X102814503Y-72094737D01*
X102715040Y-72387747D01*
X102654673Y-72691232D01*
X102634435Y-73000000D01*
X100220998Y-73000000D01*
X100221116Y-72021826D01*
X100224081Y-71997187D01*
X100308267Y-71652272D01*
X100310692Y-71643882D01*
X100438373Y-71262928D01*
X100441494Y-71254771D01*
X100482839Y-71158962D01*
X100600686Y-70885878D01*
X100604479Y-70878014D01*
X100639054Y-70813411D01*
X100794060Y-70523780D01*
X100798497Y-70516265D01*
X100873006Y-70401391D01*
X101017131Y-70179184D01*
X101022187Y-70172062D01*
X101268340Y-69854503D01*
X101273976Y-69847832D01*
X101545888Y-69552063D01*
X101552064Y-69545887D01*
X101847832Y-69273976D01*
X101854503Y-69268340D01*
X102172063Y-69022186D01*
X102179185Y-69017130D01*
X102516265Y-68798497D01*
X102523785Y-68794057D01*
X102878015Y-68604479D01*
X102885881Y-68600685D01*
X102889953Y-68598928D01*
X103254773Y-68441494D01*
X103262929Y-68438373D01*
X103643883Y-68310691D01*
X103652273Y-68308266D01*
X104013553Y-68220087D01*
X104028008Y-68218557D01*
X104030664Y-68218031D01*
X104039881Y-68217126D01*
X104047525Y-68217345D01*
X104050308Y-68216102D01*
X104050871Y-68216047D01*
X139249926Y-68212994D01*
X167954394Y-68210504D01*
X167954854Y-68210550D01*
G37*
%TD.AperFunction*%
%TD*%
M02*
