%TF.GenerationSoftware,KiCad,Pcbnew,(6.0.8)*%
%TF.CreationDate,2023-02-08T15:19:57+01:00*%
%TF.ProjectId,power supply prototype,706f7765-7220-4737-9570-706c79207072,rev?*%
%TF.SameCoordinates,Original*%
%TF.FileFunction,Soldermask,Top*%
%TF.FilePolarity,Negative*%
%FSLAX46Y46*%
G04 Gerber Fmt 4.6, Leading zero omitted, Abs format (unit mm)*
G04 Created by KiCad (PCBNEW (6.0.8)) date 2023-02-08 15:19:57*
%MOMM*%
%LPD*%
G01*
G04 APERTURE LIST*
G04 Aperture macros list*
%AMRoundRect*
0 Rectangle with rounded corners*
0 $1 Rounding radius*
0 $2 $3 $4 $5 $6 $7 $8 $9 X,Y pos of 4 corners*
0 Add a 4 corners polygon primitive as box body*
4,1,4,$2,$3,$4,$5,$6,$7,$8,$9,$2,$3,0*
0 Add four circle primitives for the rounded corners*
1,1,$1+$1,$2,$3*
1,1,$1+$1,$4,$5*
1,1,$1+$1,$6,$7*
1,1,$1+$1,$8,$9*
0 Add four rect primitives between the rounded corners*
20,1,$1+$1,$2,$3,$4,$5,0*
20,1,$1+$1,$4,$5,$6,$7,0*
20,1,$1+$1,$6,$7,$8,$9,0*
20,1,$1+$1,$8,$9,$2,$3,0*%
G04 Aperture macros list end*
%ADD10R,0.914400X0.304800*%
%ADD11R,1.498600X0.254000*%
%ADD12R,0.355600X1.999996*%
%ADD13R,0.304800X0.812800*%
%ADD14RoundRect,0.237500X-0.237500X0.300000X-0.237500X-0.300000X0.237500X-0.300000X0.237500X0.300000X0*%
%ADD15R,2.000000X2.000000*%
%ADD16RoundRect,0.237500X0.237500X-0.300000X0.237500X0.300000X-0.237500X0.300000X-0.237500X-0.300000X0*%
%ADD17C,4.300000*%
%ADD18RoundRect,0.237500X-0.300000X-0.237500X0.300000X-0.237500X0.300000X0.237500X-0.300000X0.237500X0*%
%ADD19RoundRect,0.250000X-0.325000X-1.100000X0.325000X-1.100000X0.325000X1.100000X-0.325000X1.100000X0*%
%ADD20RoundRect,0.812500X-0.812500X-1.687500X0.812500X-1.687500X0.812500X1.687500X-0.812500X1.687500X0*%
%ADD21RoundRect,0.237500X0.300000X0.237500X-0.300000X0.237500X-0.300000X-0.237500X0.300000X-0.237500X0*%
%ADD22RoundRect,0.237500X0.250000X0.237500X-0.250000X0.237500X-0.250000X-0.237500X0.250000X-0.237500X0*%
%ADD23RoundRect,0.250000X-0.550000X1.500000X-0.550000X-1.500000X0.550000X-1.500000X0.550000X1.500000X0*%
%ADD24RoundRect,0.237500X-0.237500X0.250000X-0.237500X-0.250000X0.237500X-0.250000X0.237500X0.250000X0*%
%ADD25R,5.000000X5.000000*%
%ADD26O,5.000000X5.000000*%
%ADD27RoundRect,0.250000X1.100000X-0.325000X1.100000X0.325000X-1.100000X0.325000X-1.100000X-0.325000X0*%
%ADD28RoundRect,0.237500X0.237500X-0.250000X0.237500X0.250000X-0.237500X0.250000X-0.237500X-0.250000X0*%
%ADD29C,10.160000*%
G04 APERTURE END LIST*
D10*
%TO.C,U1*%
X130358601Y-84049996D03*
X130358601Y-84549997D03*
D11*
X130650700Y-85050000D03*
X130650700Y-85699999D03*
X130650700Y-86350001D03*
D12*
X132000000Y-86225005D03*
D11*
X133349300Y-86350013D03*
X133349300Y-85699999D03*
X133349300Y-85050013D03*
D10*
X133641399Y-84549997D03*
X133641399Y-84049996D03*
D13*
X133250000Y-83293600D03*
X132750001Y-83293600D03*
X132250000Y-83293600D03*
X131750000Y-83293600D03*
X131249999Y-83293600D03*
X130750000Y-83293600D03*
%TD*%
D14*
%TO.C,Cbyp1*%
X135500000Y-84637500D03*
X135500000Y-86362500D03*
%TD*%
D15*
%TO.C,TP4*%
X134400000Y-78400000D03*
%TD*%
D16*
%TO.C,DNp*%
X147800000Y-92725000D03*
X147800000Y-91000000D03*
%TD*%
D17*
%TO.C,H2*%
X105000000Y-73000000D03*
%TD*%
D18*
%TO.C,Cc1*%
X130137500Y-76400000D03*
X131862500Y-76400000D03*
%TD*%
D19*
%TO.C,Cout3*%
X154050000Y-96400000D03*
X157000000Y-96400000D03*
%TD*%
D17*
%TO.C,H1*%
X167000000Y-113000000D03*
%TD*%
D20*
%TO.C,L1*%
X140650000Y-96000000D03*
X129350000Y-96000000D03*
%TD*%
D15*
%TO.C,TP1*%
X144000000Y-78500000D03*
%TD*%
D17*
%TO.C,H3*%
X167000000Y-73000000D03*
%TD*%
D21*
%TO.C,CF1*%
X131862500Y-79900000D03*
X130137500Y-79900000D03*
%TD*%
D22*
%TO.C,RCOMP1*%
X131912500Y-78200000D03*
X130087500Y-78200000D03*
%TD*%
D15*
%TO.C,TP5*%
X144500000Y-96000000D03*
%TD*%
%TO.C,TP3*%
X155750000Y-102500000D03*
%TD*%
D23*
%TO.C,CSup2*%
X146750000Y-82050000D03*
X146750000Y-87450000D03*
%TD*%
D18*
%TO.C,CBIAS1*%
X133500000Y-80800000D03*
X135225000Y-80800000D03*
%TD*%
D15*
%TO.C,TP2*%
X151200000Y-96000000D03*
%TD*%
D17*
%TO.C,H4*%
X105000000Y-113000000D03*
%TD*%
D18*
%TO.C,Cbst1*%
X124975000Y-84500000D03*
X126700000Y-84500000D03*
%TD*%
D24*
%TO.C,R_RST1*%
X126000000Y-81087500D03*
X126000000Y-82912500D03*
%TD*%
D25*
%TO.C,XT60*%
X158000000Y-81000000D03*
D26*
X158000000Y-91000000D03*
%TD*%
D16*
%TO.C,DNP*%
X150000000Y-92725000D03*
X150000000Y-91000000D03*
%TD*%
D14*
%TO.C,Csup1*%
X138000000Y-84637500D03*
X138000000Y-86362500D03*
%TD*%
D27*
%TO.C,Cout1*%
X152600000Y-93075000D03*
X152600000Y-90125000D03*
%TD*%
D28*
%TO.C,R_OSC1*%
X128400000Y-81912500D03*
X128400000Y-80087500D03*
%TD*%
D29*
%TO.C,J1*%
X153100000Y-112000000D03*
X123130000Y-112000000D03*
%TD*%
M02*
