%TF.GenerationSoftware,KiCad,Pcbnew,(6.0.8)*%
%TF.CreationDate,2023-02-08T15:15:48+01:00*%
%TF.ProjectId,power supply prototype,706f7765-7220-4737-9570-706c79207072,rev?*%
%TF.SameCoordinates,Original*%
%TF.FileFunction,Plated,1,4,PTH,Drill*%
%TF.FilePolarity,Positive*%
%FSLAX46Y46*%
G04 Gerber Fmt 4.6, Leading zero omitted, Abs format (unit mm)*
G04 Created by KiCad (PCBNEW (6.0.8)) date 2023-02-08 15:15:48*
%MOMM*%
%LPD*%
G01*
G04 APERTURE LIST*
%TA.AperFunction,ViaDrill*%
%ADD10C,0.400000*%
%TD*%
%TA.AperFunction,ComponentDrill*%
%ADD11C,1.000000*%
%TD*%
%TA.AperFunction,ComponentDrill*%
%ADD12C,2.000000*%
%TD*%
%TA.AperFunction,ComponentDrill*%
%ADD13C,6.100000*%
%TD*%
G04 APERTURE END LIST*
D10*
X123600000Y-84400000D03*
X124600000Y-82900000D03*
X125300000Y-86700000D03*
X125800000Y-85900000D03*
X126000000Y-79500000D03*
X126400000Y-86800000D03*
X126900000Y-86000000D03*
X127000000Y-87800000D03*
X127400000Y-86800000D03*
X127900000Y-86000000D03*
X128399248Y-84454917D03*
X128500000Y-86800000D03*
X129000000Y-86000000D03*
X132100000Y-81200000D03*
X133400000Y-75900000D03*
X133500000Y-87750000D03*
X133500000Y-88750000D03*
X134750000Y-87750000D03*
X134750000Y-88750000D03*
X134750000Y-90000000D03*
X136000000Y-87750000D03*
X136000000Y-88750000D03*
X136000000Y-90000000D03*
X136600000Y-81800000D03*
X136700000Y-75900000D03*
X136750000Y-77750000D03*
X136750000Y-79500000D03*
X137250000Y-87750000D03*
X137250000Y-88750000D03*
X137250000Y-90000000D03*
X138500000Y-87750000D03*
X138500000Y-88750000D03*
X138500000Y-90000000D03*
X139500000Y-87750000D03*
X139500000Y-88750000D03*
X148000000Y-94500000D03*
D11*
%TO.C,TP4*%
X134400000Y-78400000D03*
%TO.C,TP1*%
X144000000Y-78500000D03*
%TO.C,TP5*%
X144500000Y-96000000D03*
%TO.C,TP2*%
X151200000Y-96000000D03*
%TO.C,TP3*%
X155750000Y-102500000D03*
D12*
%TO.C,XT60*%
X158000000Y-81000000D03*
X158000000Y-91000000D03*
D13*
%TO.C,J1*%
X123130000Y-112000000D03*
X153100000Y-112000000D03*
M02*
