%TF.GenerationSoftware,KiCad,Pcbnew,(6.0.8)*%
%TF.CreationDate,2023-02-10T11:33:07+01:00*%
%TF.ProjectId,power supply prototype,706f7765-7220-4737-9570-706c79207072,rev?*%
%TF.SameCoordinates,Original*%
%TF.FileFunction,Legend,Top*%
%TF.FilePolarity,Positive*%
%FSLAX46Y46*%
G04 Gerber Fmt 4.6, Leading zero omitted, Abs format (unit mm)*
G04 Created by KiCad (PCBNEW (6.0.8)) date 2023-02-10 11:33:07*
%MOMM*%
%LPD*%
G01*
G04 APERTURE LIST*
%ADD10C,0.200000*%
%ADD11C,0.300000*%
%ADD12C,0.150000*%
%ADD13C,0.100000*%
%ADD14C,0.010000*%
%ADD15C,0.120000*%
G04 APERTURE END LIST*
D10*
X169638095Y-80342857D02*
X171161904Y-80342857D01*
X170400000Y-81104761D02*
X170400000Y-79580952D01*
D11*
X121485714Y-70078571D02*
X121485714Y-68578571D01*
X121985714Y-69650000D01*
X122485714Y-68578571D01*
X122485714Y-70078571D01*
X123128571Y-69650000D02*
X123842857Y-69650000D01*
X122985714Y-70078571D02*
X123485714Y-68578571D01*
X123985714Y-70078571D01*
X124342857Y-68578571D02*
X125342857Y-70078571D01*
X125342857Y-68578571D02*
X124342857Y-70078571D01*
X126985714Y-68721428D02*
X127057142Y-68650000D01*
X127200000Y-68578571D01*
X127557142Y-68578571D01*
X127700000Y-68650000D01*
X127771428Y-68721428D01*
X127842857Y-68864285D01*
X127842857Y-69007142D01*
X127771428Y-69221428D01*
X126914285Y-70078571D01*
X127842857Y-70078571D01*
X128771428Y-68578571D02*
X128914285Y-68578571D01*
X129057142Y-68650000D01*
X129128571Y-68721428D01*
X129200000Y-68864285D01*
X129271428Y-69150000D01*
X129271428Y-69507142D01*
X129200000Y-69792857D01*
X129128571Y-69935714D01*
X129057142Y-70007142D01*
X128914285Y-70078571D01*
X128771428Y-70078571D01*
X128628571Y-70007142D01*
X128557142Y-69935714D01*
X128485714Y-69792857D01*
X128414285Y-69507142D01*
X128414285Y-69150000D01*
X128485714Y-68864285D01*
X128557142Y-68721428D01*
X128628571Y-68650000D01*
X128771428Y-68578571D01*
X130200000Y-68578571D02*
X130342857Y-68578571D01*
X130485714Y-68650000D01*
X130557142Y-68721428D01*
X130628571Y-68864285D01*
X130700000Y-69150000D01*
X130700000Y-69507142D01*
X130628571Y-69792857D01*
X130557142Y-69935714D01*
X130485714Y-70007142D01*
X130342857Y-70078571D01*
X130200000Y-70078571D01*
X130057142Y-70007142D01*
X129985714Y-69935714D01*
X129914285Y-69792857D01*
X129842857Y-69507142D01*
X129842857Y-69150000D01*
X129914285Y-68864285D01*
X129985714Y-68721428D01*
X130057142Y-68650000D01*
X130200000Y-68578571D01*
X131628571Y-68578571D02*
X131771428Y-68578571D01*
X131914285Y-68650000D01*
X131985714Y-68721428D01*
X132057142Y-68864285D01*
X132128571Y-69150000D01*
X132128571Y-69507142D01*
X132057142Y-69792857D01*
X131985714Y-69935714D01*
X131914285Y-70007142D01*
X131771428Y-70078571D01*
X131628571Y-70078571D01*
X131485714Y-70007142D01*
X131414285Y-69935714D01*
X131342857Y-69792857D01*
X131271428Y-69507142D01*
X131271428Y-69150000D01*
X131342857Y-68864285D01*
X131414285Y-68721428D01*
X131485714Y-68650000D01*
X131628571Y-68578571D01*
X132985714Y-69221428D02*
X132842857Y-69150000D01*
X132771428Y-69078571D01*
X132700000Y-68935714D01*
X132700000Y-68864285D01*
X132771428Y-68721428D01*
X132842857Y-68650000D01*
X132985714Y-68578571D01*
X133271428Y-68578571D01*
X133414285Y-68650000D01*
X133485714Y-68721428D01*
X133557142Y-68864285D01*
X133557142Y-68935714D01*
X133485714Y-69078571D01*
X133414285Y-69150000D01*
X133271428Y-69221428D01*
X132985714Y-69221428D01*
X132842857Y-69292857D01*
X132771428Y-69364285D01*
X132700000Y-69507142D01*
X132700000Y-69792857D01*
X132771428Y-69935714D01*
X132842857Y-70007142D01*
X132985714Y-70078571D01*
X133271428Y-70078571D01*
X133414285Y-70007142D01*
X133485714Y-69935714D01*
X133557142Y-69792857D01*
X133557142Y-69507142D01*
X133485714Y-69364285D01*
X133414285Y-69292857D01*
X133271428Y-69221428D01*
X135342857Y-70078571D02*
X135342857Y-68578571D01*
X135914285Y-68578571D01*
X136057142Y-68650000D01*
X136128571Y-68721428D01*
X136200000Y-68864285D01*
X136200000Y-69078571D01*
X136128571Y-69221428D01*
X136057142Y-69292857D01*
X135914285Y-69364285D01*
X135342857Y-69364285D01*
X136842857Y-70078571D02*
X136842857Y-69078571D01*
X136842857Y-69364285D02*
X136914285Y-69221428D01*
X136985714Y-69150000D01*
X137128571Y-69078571D01*
X137271428Y-69078571D01*
X137985714Y-70078571D02*
X137842857Y-70007142D01*
X137771428Y-69935714D01*
X137700000Y-69792857D01*
X137700000Y-69364285D01*
X137771428Y-69221428D01*
X137842857Y-69150000D01*
X137985714Y-69078571D01*
X138200000Y-69078571D01*
X138342857Y-69150000D01*
X138414285Y-69221428D01*
X138485714Y-69364285D01*
X138485714Y-69792857D01*
X138414285Y-69935714D01*
X138342857Y-70007142D01*
X138200000Y-70078571D01*
X137985714Y-70078571D01*
X138914285Y-69078571D02*
X139485714Y-69078571D01*
X139128571Y-68578571D02*
X139128571Y-69864285D01*
X139200000Y-70007142D01*
X139342857Y-70078571D01*
X139485714Y-70078571D01*
X140200000Y-70078571D02*
X140057142Y-70007142D01*
X139985714Y-69935714D01*
X139914285Y-69792857D01*
X139914285Y-69364285D01*
X139985714Y-69221428D01*
X140057142Y-69150000D01*
X140200000Y-69078571D01*
X140414285Y-69078571D01*
X140557142Y-69150000D01*
X140628571Y-69221428D01*
X140700000Y-69364285D01*
X140700000Y-69792857D01*
X140628571Y-69935714D01*
X140557142Y-70007142D01*
X140414285Y-70078571D01*
X140200000Y-70078571D01*
X141128571Y-69078571D02*
X141700000Y-69078571D01*
X141342857Y-68578571D02*
X141342857Y-69864285D01*
X141414285Y-70007142D01*
X141557142Y-70078571D01*
X141700000Y-70078571D01*
X142057142Y-69078571D02*
X142414285Y-70078571D01*
X142771428Y-69078571D02*
X142414285Y-70078571D01*
X142271428Y-70435714D01*
X142200000Y-70507142D01*
X142057142Y-70578571D01*
X143342857Y-69078571D02*
X143342857Y-70578571D01*
X143342857Y-69150000D02*
X143485714Y-69078571D01*
X143771428Y-69078571D01*
X143914285Y-69150000D01*
X143985714Y-69221428D01*
X144057142Y-69364285D01*
X144057142Y-69792857D01*
X143985714Y-69935714D01*
X143914285Y-70007142D01*
X143771428Y-70078571D01*
X143485714Y-70078571D01*
X143342857Y-70007142D01*
X145271428Y-70007142D02*
X145128571Y-70078571D01*
X144842857Y-70078571D01*
X144700000Y-70007142D01*
X144628571Y-69864285D01*
X144628571Y-69292857D01*
X144700000Y-69150000D01*
X144842857Y-69078571D01*
X145128571Y-69078571D01*
X145271428Y-69150000D01*
X145342857Y-69292857D01*
X145342857Y-69435714D01*
X144628571Y-69578571D01*
X147628571Y-69292857D02*
X147842857Y-69364285D01*
X147914285Y-69435714D01*
X147985714Y-69578571D01*
X147985714Y-69792857D01*
X147914285Y-69935714D01*
X147842857Y-70007142D01*
X147700000Y-70078571D01*
X147128571Y-70078571D01*
X147128571Y-68578571D01*
X147628571Y-68578571D01*
X147771428Y-68650000D01*
X147842857Y-68721428D01*
X147914285Y-68864285D01*
X147914285Y-69007142D01*
X147842857Y-69150000D01*
X147771428Y-69221428D01*
X147628571Y-69292857D01*
X147128571Y-69292857D01*
X148842857Y-70078571D02*
X148700000Y-70007142D01*
X148628571Y-69935714D01*
X148557142Y-69792857D01*
X148557142Y-69364285D01*
X148628571Y-69221428D01*
X148700000Y-69150000D01*
X148842857Y-69078571D01*
X149057142Y-69078571D01*
X149200000Y-69150000D01*
X149271428Y-69221428D01*
X149342857Y-69364285D01*
X149342857Y-69792857D01*
X149271428Y-69935714D01*
X149200000Y-70007142D01*
X149057142Y-70078571D01*
X148842857Y-70078571D01*
X150628571Y-70078571D02*
X150628571Y-69292857D01*
X150557142Y-69150000D01*
X150414285Y-69078571D01*
X150128571Y-69078571D01*
X149985714Y-69150000D01*
X150628571Y-70007142D02*
X150485714Y-70078571D01*
X150128571Y-70078571D01*
X149985714Y-70007142D01*
X149914285Y-69864285D01*
X149914285Y-69721428D01*
X149985714Y-69578571D01*
X150128571Y-69507142D01*
X150485714Y-69507142D01*
X150628571Y-69435714D01*
X151342857Y-70078571D02*
X151342857Y-69078571D01*
X151342857Y-69364285D02*
X151414285Y-69221428D01*
X151485714Y-69150000D01*
X151628571Y-69078571D01*
X151771428Y-69078571D01*
X152914285Y-70078571D02*
X152914285Y-68578571D01*
X152914285Y-70007142D02*
X152771428Y-70078571D01*
X152485714Y-70078571D01*
X152342857Y-70007142D01*
X152271428Y-69935714D01*
X152200000Y-69792857D01*
X152200000Y-69364285D01*
X152271428Y-69221428D01*
X152342857Y-69150000D01*
X152485714Y-69078571D01*
X152771428Y-69078571D01*
X152914285Y-69150000D01*
X154557142Y-68578571D02*
X155057142Y-70078571D01*
X155557142Y-68578571D01*
X156842857Y-70078571D02*
X155985714Y-70078571D01*
X156414285Y-70078571D02*
X156414285Y-68578571D01*
X156271428Y-68792857D01*
X156128571Y-68935714D01*
X155985714Y-69007142D01*
X157485714Y-69935714D02*
X157557142Y-70007142D01*
X157485714Y-70078571D01*
X157414285Y-70007142D01*
X157485714Y-69935714D01*
X157485714Y-70078571D01*
X158485714Y-68578571D02*
X158628571Y-68578571D01*
X158771428Y-68650000D01*
X158842857Y-68721428D01*
X158914285Y-68864285D01*
X158985714Y-69150000D01*
X158985714Y-69507142D01*
X158914285Y-69792857D01*
X158842857Y-69935714D01*
X158771428Y-70007142D01*
X158628571Y-70078571D01*
X158485714Y-70078571D01*
X158342857Y-70007142D01*
X158271428Y-69935714D01*
X158200000Y-69792857D01*
X158128571Y-69507142D01*
X158128571Y-69150000D01*
X158200000Y-68864285D01*
X158271428Y-68721428D01*
X158342857Y-68650000D01*
X158485714Y-68578571D01*
X129564285Y-71478571D02*
X129564285Y-72550000D01*
X129492857Y-72764285D01*
X129350000Y-72907142D01*
X129135714Y-72978571D01*
X128992857Y-72978571D01*
X130921428Y-72978571D02*
X130921428Y-72192857D01*
X130850000Y-72050000D01*
X130707142Y-71978571D01*
X130421428Y-71978571D01*
X130278571Y-72050000D01*
X130921428Y-72907142D02*
X130778571Y-72978571D01*
X130421428Y-72978571D01*
X130278571Y-72907142D01*
X130207142Y-72764285D01*
X130207142Y-72621428D01*
X130278571Y-72478571D01*
X130421428Y-72407142D01*
X130778571Y-72407142D01*
X130921428Y-72335714D01*
X132278571Y-72907142D02*
X132135714Y-72978571D01*
X131850000Y-72978571D01*
X131707142Y-72907142D01*
X131635714Y-72835714D01*
X131564285Y-72692857D01*
X131564285Y-72264285D01*
X131635714Y-72121428D01*
X131707142Y-72050000D01*
X131850000Y-71978571D01*
X132135714Y-71978571D01*
X132278571Y-72050000D01*
X133564285Y-71978571D02*
X133564285Y-73478571D01*
X133564285Y-72907142D02*
X133421428Y-72978571D01*
X133135714Y-72978571D01*
X132992857Y-72907142D01*
X132921428Y-72835714D01*
X132850000Y-72692857D01*
X132850000Y-72264285D01*
X132921428Y-72121428D01*
X132992857Y-72050000D01*
X133135714Y-71978571D01*
X133421428Y-71978571D01*
X133564285Y-72050000D01*
X134921428Y-71978571D02*
X134921428Y-72978571D01*
X134278571Y-71978571D02*
X134278571Y-72764285D01*
X134350000Y-72907142D01*
X134492857Y-72978571D01*
X134707142Y-72978571D01*
X134850000Y-72907142D01*
X134921428Y-72835714D01*
X136207142Y-72907142D02*
X136064285Y-72978571D01*
X135778571Y-72978571D01*
X135635714Y-72907142D01*
X135564285Y-72764285D01*
X135564285Y-72192857D01*
X135635714Y-72050000D01*
X135778571Y-71978571D01*
X136064285Y-71978571D01*
X136207142Y-72050000D01*
X136278571Y-72192857D01*
X136278571Y-72335714D01*
X135564285Y-72478571D01*
X136850000Y-72907142D02*
X136992857Y-72978571D01*
X137278571Y-72978571D01*
X137421428Y-72907142D01*
X137492857Y-72764285D01*
X137492857Y-72692857D01*
X137421428Y-72550000D01*
X137278571Y-72478571D01*
X137064285Y-72478571D01*
X136921428Y-72407142D01*
X136850000Y-72264285D01*
X136850000Y-72192857D01*
X136921428Y-72050000D01*
X137064285Y-71978571D01*
X137278571Y-71978571D01*
X137421428Y-72050000D01*
X139778571Y-72192857D02*
X139992857Y-72264285D01*
X140064285Y-72335714D01*
X140135714Y-72478571D01*
X140135714Y-72692857D01*
X140064285Y-72835714D01*
X139992857Y-72907142D01*
X139850000Y-72978571D01*
X139278571Y-72978571D01*
X139278571Y-71478571D01*
X139778571Y-71478571D01*
X139921428Y-71550000D01*
X139992857Y-71621428D01*
X140064285Y-71764285D01*
X140064285Y-71907142D01*
X139992857Y-72050000D01*
X139921428Y-72121428D01*
X139778571Y-72192857D01*
X139278571Y-72192857D01*
X140778571Y-72192857D02*
X141278571Y-72192857D01*
X141492857Y-72978571D02*
X140778571Y-72978571D01*
X140778571Y-71478571D01*
X141492857Y-71478571D01*
X142992857Y-72978571D02*
X142492857Y-72264285D01*
X142135714Y-72978571D02*
X142135714Y-71478571D01*
X142707142Y-71478571D01*
X142850000Y-71550000D01*
X142921428Y-71621428D01*
X142992857Y-71764285D01*
X142992857Y-71978571D01*
X142921428Y-72121428D01*
X142850000Y-72192857D01*
X142707142Y-72264285D01*
X142135714Y-72264285D01*
X143635714Y-72978571D02*
X143635714Y-71478571D01*
X144492857Y-72978571D01*
X144492857Y-71478571D01*
X145492857Y-71478571D02*
X145778571Y-71478571D01*
X145921428Y-71550000D01*
X146064285Y-71692857D01*
X146135714Y-71978571D01*
X146135714Y-72478571D01*
X146064285Y-72764285D01*
X145921428Y-72907142D01*
X145778571Y-72978571D01*
X145492857Y-72978571D01*
X145350000Y-72907142D01*
X145207142Y-72764285D01*
X145135714Y-72478571D01*
X145135714Y-71978571D01*
X145207142Y-71692857D01*
X145350000Y-71550000D01*
X145492857Y-71478571D01*
X146778571Y-71478571D02*
X146778571Y-72692857D01*
X146850000Y-72835714D01*
X146921428Y-72907142D01*
X147064285Y-72978571D01*
X147350000Y-72978571D01*
X147492857Y-72907142D01*
X147564285Y-72835714D01*
X147635714Y-72692857D01*
X147635714Y-71478571D01*
X148207142Y-71478571D02*
X149207142Y-72978571D01*
X149207142Y-71478571D02*
X148207142Y-72978571D01*
D10*
X170242857Y-92461904D02*
X170242857Y-90938095D01*
X112076190Y-109000000D02*
X111885714Y-108904761D01*
X111600000Y-108904761D01*
X111314285Y-109000000D01*
X111123809Y-109190476D01*
X111028571Y-109380952D01*
X110933333Y-109761904D01*
X110933333Y-110047619D01*
X111028571Y-110428571D01*
X111123809Y-110619047D01*
X111314285Y-110809523D01*
X111600000Y-110904761D01*
X111790476Y-110904761D01*
X112076190Y-110809523D01*
X112171428Y-110714285D01*
X112171428Y-110047619D01*
X111790476Y-110047619D01*
X113028571Y-110904761D02*
X113028571Y-108904761D01*
X114171428Y-110904761D01*
X114171428Y-108904761D01*
X115123809Y-110904761D02*
X115123809Y-108904761D01*
X115600000Y-108904761D01*
X115885714Y-109000000D01*
X116076190Y-109190476D01*
X116171428Y-109380952D01*
X116266666Y-109761904D01*
X116266666Y-110047619D01*
X116171428Y-110428571D01*
X116076190Y-110619047D01*
X115885714Y-110809523D01*
X115600000Y-110904761D01*
X115123809Y-110904761D01*
X158628571Y-110142857D02*
X160152380Y-110142857D01*
X159390476Y-110904761D02*
X159390476Y-109380952D01*
X162057142Y-108904761D02*
X161104761Y-108904761D01*
X161009523Y-109857142D01*
X161104761Y-109761904D01*
X161295238Y-109666666D01*
X161771428Y-109666666D01*
X161961904Y-109761904D01*
X162057142Y-109857142D01*
X162152380Y-110047619D01*
X162152380Y-110523809D01*
X162057142Y-110714285D01*
X161961904Y-110809523D01*
X161771428Y-110904761D01*
X161295238Y-110904761D01*
X161104761Y-110809523D01*
X161009523Y-110714285D01*
X162723809Y-108904761D02*
X163390476Y-110904761D01*
X164057142Y-108904761D01*
D11*
X170292857Y-87850000D02*
X170364285Y-87635714D01*
X170435714Y-87564285D01*
X170578571Y-87492857D01*
X170792857Y-87492857D01*
X170935714Y-87564285D01*
X171007142Y-87635714D01*
X171078571Y-87778571D01*
X171078571Y-88350000D01*
X169578571Y-88350000D01*
X169578571Y-87850000D01*
X169650000Y-87707142D01*
X169721428Y-87635714D01*
X169864285Y-87564285D01*
X170007142Y-87564285D01*
X170150000Y-87635714D01*
X170221428Y-87707142D01*
X170292857Y-87850000D01*
X170292857Y-88350000D01*
X170650000Y-86921428D02*
X170650000Y-86207142D01*
X171078571Y-87064285D02*
X169578571Y-86564285D01*
X171078571Y-86064285D01*
X169578571Y-85778571D02*
X169578571Y-84921428D01*
X171078571Y-85350000D02*
X169578571Y-85350000D01*
X169578571Y-84635714D02*
X169578571Y-83778571D01*
X171078571Y-84207142D02*
X169578571Y-84207142D01*
D12*
X157464285Y-102571428D02*
X158226190Y-102571428D01*
X157845238Y-102952380D02*
X157845238Y-102190476D01*
X159178571Y-101952380D02*
X158702380Y-101952380D01*
X158654761Y-102428571D01*
X158702380Y-102380952D01*
X158797619Y-102333333D01*
X159035714Y-102333333D01*
X159130952Y-102380952D01*
X159178571Y-102428571D01*
X159226190Y-102523809D01*
X159226190Y-102761904D01*
X159178571Y-102857142D01*
X159130952Y-102904761D01*
X159035714Y-102952380D01*
X158797619Y-102952380D01*
X158702380Y-102904761D01*
X158654761Y-102857142D01*
X159511904Y-101952380D02*
X159845238Y-102952380D01*
X160178571Y-101952380D01*
D13*
X133666666Y-61726190D02*
X134000000Y-61726190D01*
X133785714Y-62226190D01*
X134166666Y-61773809D02*
X134190476Y-61750000D01*
X134238095Y-61726190D01*
X134357142Y-61726190D01*
X134404761Y-61750000D01*
X134428571Y-61773809D01*
X134452380Y-61821428D01*
X134452380Y-61869047D01*
X134428571Y-61940476D01*
X134142857Y-62226190D01*
X134452380Y-62226190D01*
X134666666Y-62178571D02*
X134690476Y-62202380D01*
X134666666Y-62226190D01*
X134642857Y-62202380D01*
X134666666Y-62178571D01*
X134666666Y-62226190D01*
X135000000Y-61726190D02*
X135047619Y-61726190D01*
X135095238Y-61750000D01*
X135119047Y-61773809D01*
X135142857Y-61821428D01*
X135166666Y-61916666D01*
X135166666Y-62035714D01*
X135142857Y-62130952D01*
X135119047Y-62178571D01*
X135095238Y-62202380D01*
X135047619Y-62226190D01*
X135000000Y-62226190D01*
X134952380Y-62202380D01*
X134928571Y-62178571D01*
X134904761Y-62130952D01*
X134880952Y-62035714D01*
X134880952Y-61916666D01*
X134904761Y-61821428D01*
X134928571Y-61773809D01*
X134952380Y-61750000D01*
X135000000Y-61726190D01*
X135476190Y-61726190D02*
X135523809Y-61726190D01*
X135571428Y-61750000D01*
X135595238Y-61773809D01*
X135619047Y-61821428D01*
X135642857Y-61916666D01*
X135642857Y-62035714D01*
X135619047Y-62130952D01*
X135595238Y-62178571D01*
X135571428Y-62202380D01*
X135523809Y-62226190D01*
X135476190Y-62226190D01*
X135428571Y-62202380D01*
X135404761Y-62178571D01*
X135380952Y-62130952D01*
X135357142Y-62035714D01*
X135357142Y-61916666D01*
X135380952Y-61821428D01*
X135404761Y-61773809D01*
X135428571Y-61750000D01*
X135476190Y-61726190D01*
X135952380Y-61726190D02*
X136000000Y-61726190D01*
X136047619Y-61750000D01*
X136071428Y-61773809D01*
X136095238Y-61821428D01*
X136119047Y-61916666D01*
X136119047Y-62035714D01*
X136095238Y-62130952D01*
X136071428Y-62178571D01*
X136047619Y-62202380D01*
X136000000Y-62226190D01*
X135952380Y-62226190D01*
X135904761Y-62202380D01*
X135880952Y-62178571D01*
X135857142Y-62130952D01*
X135833333Y-62035714D01*
X135833333Y-61916666D01*
X135857142Y-61821428D01*
X135880952Y-61773809D01*
X135904761Y-61750000D01*
X135952380Y-61726190D01*
X136428571Y-61726190D02*
X136476190Y-61726190D01*
X136523809Y-61750000D01*
X136547619Y-61773809D01*
X136571428Y-61821428D01*
X136595238Y-61916666D01*
X136595238Y-62035714D01*
X136571428Y-62130952D01*
X136547619Y-62178571D01*
X136523809Y-62202380D01*
X136476190Y-62226190D01*
X136428571Y-62226190D01*
X136380952Y-62202380D01*
X136357142Y-62178571D01*
X136333333Y-62130952D01*
X136309523Y-62035714D01*
X136309523Y-61916666D01*
X136333333Y-61821428D01*
X136357142Y-61773809D01*
X136380952Y-61750000D01*
X136428571Y-61726190D01*
X137190476Y-62226190D02*
X137190476Y-61892857D01*
X137190476Y-61940476D02*
X137214285Y-61916666D01*
X137261904Y-61892857D01*
X137333333Y-61892857D01*
X137380952Y-61916666D01*
X137404761Y-61964285D01*
X137404761Y-62226190D01*
X137404761Y-61964285D02*
X137428571Y-61916666D01*
X137476190Y-61892857D01*
X137547619Y-61892857D01*
X137595238Y-61916666D01*
X137619047Y-61964285D01*
X137619047Y-62226190D01*
X137857142Y-62226190D02*
X137857142Y-61892857D01*
X137857142Y-61940476D02*
X137880952Y-61916666D01*
X137928571Y-61892857D01*
X138000000Y-61892857D01*
X138047619Y-61916666D01*
X138071428Y-61964285D01*
X138071428Y-62226190D01*
X138071428Y-61964285D02*
X138095238Y-61916666D01*
X138142857Y-61892857D01*
X138214285Y-61892857D01*
X138261904Y-61916666D01*
X138285714Y-61964285D01*
X138285714Y-62226190D01*
X172000000Y-67500000D02*
X172000000Y-62013580D01*
X100000000Y-67500000D02*
X100000000Y-62013580D01*
X172000000Y-62600000D02*
X100000000Y-62600000D01*
X172000000Y-62600000D02*
X100000000Y-62600000D01*
X172000000Y-62600000D02*
X170873496Y-62013579D01*
X172000000Y-62600000D02*
X170873496Y-63186421D01*
X100000000Y-62600000D02*
X101126504Y-63186421D01*
X100000000Y-62600000D02*
X101126504Y-62013579D01*
X179926190Y-95147619D02*
X179926190Y-95385714D01*
X180164285Y-95409523D01*
X180140476Y-95385714D01*
X180116666Y-95338095D01*
X180116666Y-95219047D01*
X180140476Y-95171428D01*
X180164285Y-95147619D01*
X180211904Y-95123809D01*
X180330952Y-95123809D01*
X180378571Y-95147619D01*
X180402380Y-95171428D01*
X180426190Y-95219047D01*
X180426190Y-95338095D01*
X180402380Y-95385714D01*
X180378571Y-95409523D01*
X179926190Y-94814285D02*
X179926190Y-94766666D01*
X179950000Y-94719047D01*
X179973809Y-94695238D01*
X180021428Y-94671428D01*
X180116666Y-94647619D01*
X180235714Y-94647619D01*
X180330952Y-94671428D01*
X180378571Y-94695238D01*
X180402380Y-94719047D01*
X180426190Y-94766666D01*
X180426190Y-94814285D01*
X180402380Y-94861904D01*
X180378571Y-94885714D01*
X180330952Y-94909523D01*
X180235714Y-94933333D01*
X180116666Y-94933333D01*
X180021428Y-94909523D01*
X179973809Y-94885714D01*
X179950000Y-94861904D01*
X179926190Y-94814285D01*
X180378571Y-94433333D02*
X180402380Y-94409523D01*
X180426190Y-94433333D01*
X180402380Y-94457142D01*
X180378571Y-94433333D01*
X180426190Y-94433333D01*
X179973809Y-94219047D02*
X179950000Y-94195238D01*
X179926190Y-94147619D01*
X179926190Y-94028571D01*
X179950000Y-93980952D01*
X179973809Y-93957142D01*
X180021428Y-93933333D01*
X180069047Y-93933333D01*
X180140476Y-93957142D01*
X180426190Y-94242857D01*
X180426190Y-93933333D01*
X179926190Y-93623809D02*
X179926190Y-93576190D01*
X179950000Y-93528571D01*
X179973809Y-93504761D01*
X180021428Y-93480952D01*
X180116666Y-93457142D01*
X180235714Y-93457142D01*
X180330952Y-93480952D01*
X180378571Y-93504761D01*
X180402380Y-93528571D01*
X180426190Y-93576190D01*
X180426190Y-93623809D01*
X180402380Y-93671428D01*
X180378571Y-93695238D01*
X180330952Y-93719047D01*
X180235714Y-93742857D01*
X180116666Y-93742857D01*
X180021428Y-93719047D01*
X179973809Y-93695238D01*
X179950000Y-93671428D01*
X179926190Y-93623809D01*
X179926190Y-93147619D02*
X179926190Y-93100000D01*
X179950000Y-93052380D01*
X179973809Y-93028571D01*
X180021428Y-93004761D01*
X180116666Y-92980952D01*
X180235714Y-92980952D01*
X180330952Y-93004761D01*
X180378571Y-93028571D01*
X180402380Y-93052380D01*
X180426190Y-93100000D01*
X180426190Y-93147619D01*
X180402380Y-93195238D01*
X180378571Y-93219047D01*
X180330952Y-93242857D01*
X180235714Y-93266666D01*
X180116666Y-93266666D01*
X180021428Y-93242857D01*
X179973809Y-93219047D01*
X179950000Y-93195238D01*
X179926190Y-93147619D01*
X179926190Y-92671428D02*
X179926190Y-92623809D01*
X179950000Y-92576190D01*
X179973809Y-92552380D01*
X180021428Y-92528571D01*
X180116666Y-92504761D01*
X180235714Y-92504761D01*
X180330952Y-92528571D01*
X180378571Y-92552380D01*
X180402380Y-92576190D01*
X180426190Y-92623809D01*
X180426190Y-92671428D01*
X180402380Y-92719047D01*
X180378571Y-92742857D01*
X180330952Y-92766666D01*
X180235714Y-92790476D01*
X180116666Y-92790476D01*
X180021428Y-92766666D01*
X179973809Y-92742857D01*
X179950000Y-92719047D01*
X179926190Y-92671428D01*
X180426190Y-91909523D02*
X180092857Y-91909523D01*
X180140476Y-91909523D02*
X180116666Y-91885714D01*
X180092857Y-91838095D01*
X180092857Y-91766666D01*
X180116666Y-91719047D01*
X180164285Y-91695238D01*
X180426190Y-91695238D01*
X180164285Y-91695238D02*
X180116666Y-91671428D01*
X180092857Y-91623809D01*
X180092857Y-91552380D01*
X180116666Y-91504761D01*
X180164285Y-91480952D01*
X180426190Y-91480952D01*
X180426190Y-91242857D02*
X180092857Y-91242857D01*
X180140476Y-91242857D02*
X180116666Y-91219047D01*
X180092857Y-91171428D01*
X180092857Y-91100000D01*
X180116666Y-91052380D01*
X180164285Y-91028571D01*
X180426190Y-91028571D01*
X180164285Y-91028571D02*
X180116666Y-91004761D01*
X180092857Y-90957142D01*
X180092857Y-90885714D01*
X180116666Y-90838095D01*
X180164285Y-90814285D01*
X180426190Y-90814285D01*
X172500000Y-118200000D02*
X181386420Y-118200000D01*
X172500000Y-68000000D02*
X181386420Y-68000000D01*
X180800000Y-118200000D02*
X180800000Y-68000000D01*
X180800000Y-118200000D02*
X180800000Y-68000000D01*
X180800000Y-118200000D02*
X181386421Y-117073496D01*
X180800000Y-118200000D02*
X180213579Y-117073496D01*
X180800000Y-68000000D02*
X180213579Y-69126504D01*
X180800000Y-68000000D02*
X181386421Y-69126504D01*
%TO.C,Drpp1*%
X156223809Y-84326190D02*
X156223809Y-83826190D01*
X156342857Y-83826190D01*
X156414285Y-83850000D01*
X156461904Y-83897619D01*
X156485714Y-83945238D01*
X156509523Y-84040476D01*
X156509523Y-84111904D01*
X156485714Y-84207142D01*
X156461904Y-84254761D01*
X156414285Y-84302380D01*
X156342857Y-84326190D01*
X156223809Y-84326190D01*
X156723809Y-84326190D02*
X156723809Y-83992857D01*
X156723809Y-84088095D02*
X156747619Y-84040476D01*
X156771428Y-84016666D01*
X156819047Y-83992857D01*
X156866666Y-83992857D01*
X157033333Y-83992857D02*
X157033333Y-84492857D01*
X157033333Y-84016666D02*
X157080952Y-83992857D01*
X157176190Y-83992857D01*
X157223809Y-84016666D01*
X157247619Y-84040476D01*
X157271428Y-84088095D01*
X157271428Y-84230952D01*
X157247619Y-84278571D01*
X157223809Y-84302380D01*
X157176190Y-84326190D01*
X157080952Y-84326190D01*
X157033333Y-84302380D01*
X157485714Y-83992857D02*
X157485714Y-84492857D01*
X157485714Y-84016666D02*
X157533333Y-83992857D01*
X157628571Y-83992857D01*
X157676190Y-84016666D01*
X157700000Y-84040476D01*
X157723809Y-84088095D01*
X157723809Y-84230952D01*
X157700000Y-84278571D01*
X157676190Y-84302380D01*
X157628571Y-84326190D01*
X157533333Y-84326190D01*
X157485714Y-84302380D01*
X158200000Y-84326190D02*
X157914285Y-84326190D01*
X158057142Y-84326190D02*
X158057142Y-83826190D01*
X158009523Y-83897619D01*
X157961904Y-83945238D01*
X157914285Y-83969047D01*
%TO.C,Cbyp1*%
X136878571Y-86126190D02*
X136902380Y-86150000D01*
X136926190Y-86221428D01*
X136926190Y-86269047D01*
X136902380Y-86340476D01*
X136854761Y-86388095D01*
X136807142Y-86411904D01*
X136711904Y-86435714D01*
X136640476Y-86435714D01*
X136545238Y-86411904D01*
X136497619Y-86388095D01*
X136450000Y-86340476D01*
X136426190Y-86269047D01*
X136426190Y-86221428D01*
X136450000Y-86150000D01*
X136473809Y-86126190D01*
X136926190Y-85911904D02*
X136426190Y-85911904D01*
X136616666Y-85911904D02*
X136592857Y-85864285D01*
X136592857Y-85769047D01*
X136616666Y-85721428D01*
X136640476Y-85697619D01*
X136688095Y-85673809D01*
X136830952Y-85673809D01*
X136878571Y-85697619D01*
X136902380Y-85721428D01*
X136926190Y-85769047D01*
X136926190Y-85864285D01*
X136902380Y-85911904D01*
X136592857Y-85507142D02*
X136926190Y-85388095D01*
X136592857Y-85269047D02*
X136926190Y-85388095D01*
X137045238Y-85435714D01*
X137069047Y-85459523D01*
X137092857Y-85507142D01*
X136592857Y-85078571D02*
X137092857Y-85078571D01*
X136616666Y-85078571D02*
X136592857Y-85030952D01*
X136592857Y-84935714D01*
X136616666Y-84888095D01*
X136640476Y-84864285D01*
X136688095Y-84840476D01*
X136830952Y-84840476D01*
X136878571Y-84864285D01*
X136902380Y-84888095D01*
X136926190Y-84935714D01*
X136926190Y-85030952D01*
X136902380Y-85078571D01*
X136926190Y-84364285D02*
X136926190Y-84650000D01*
X136926190Y-84507142D02*
X136426190Y-84507142D01*
X136497619Y-84554761D01*
X136545238Y-84602380D01*
X136569047Y-84650000D01*
%TO.C,TP4*%
X134369047Y-76128190D02*
X134654761Y-76128190D01*
X134511904Y-76628190D02*
X134511904Y-76128190D01*
X134821428Y-76628190D02*
X134821428Y-76128190D01*
X135011904Y-76128190D01*
X135059523Y-76152000D01*
X135083333Y-76175809D01*
X135107142Y-76223428D01*
X135107142Y-76294857D01*
X135083333Y-76342476D01*
X135059523Y-76366285D01*
X135011904Y-76390095D01*
X134821428Y-76390095D01*
X135535714Y-76294857D02*
X135535714Y-76628190D01*
X135416666Y-76104380D02*
X135297619Y-76461523D01*
X135607142Y-76461523D01*
%TO.C,DNp*%
X147026190Y-92381547D02*
X146526190Y-92381547D01*
X146526190Y-92262500D01*
X146550000Y-92191071D01*
X146597619Y-92143452D01*
X146645238Y-92119642D01*
X146740476Y-92095833D01*
X146811904Y-92095833D01*
X146907142Y-92119642D01*
X146954761Y-92143452D01*
X147002380Y-92191071D01*
X147026190Y-92262500D01*
X147026190Y-92381547D01*
X147026190Y-91881547D02*
X146526190Y-91881547D01*
X147026190Y-91595833D01*
X146526190Y-91595833D01*
X146692857Y-91357738D02*
X147192857Y-91357738D01*
X146716666Y-91357738D02*
X146692857Y-91310119D01*
X146692857Y-91214880D01*
X146716666Y-91167261D01*
X146740476Y-91143452D01*
X146788095Y-91119642D01*
X146930952Y-91119642D01*
X146978571Y-91143452D01*
X147002380Y-91167261D01*
X147026190Y-91214880D01*
X147026190Y-91310119D01*
X147002380Y-91357738D01*
D12*
%TO.C,H2*%
X104238095Y-73552380D02*
X104238095Y-72552380D01*
X104238095Y-73028571D02*
X104809523Y-73028571D01*
X104809523Y-73552380D02*
X104809523Y-72552380D01*
X105238095Y-72647619D02*
X105285714Y-72600000D01*
X105380952Y-72552380D01*
X105619047Y-72552380D01*
X105714285Y-72600000D01*
X105761904Y-72647619D01*
X105809523Y-72742857D01*
X105809523Y-72838095D01*
X105761904Y-72980952D01*
X105190476Y-73552380D01*
X105809523Y-73552380D01*
D13*
%TO.C,U1*%
X131619047Y-81726190D02*
X131619047Y-82130952D01*
X131642857Y-82178571D01*
X131666666Y-82202380D01*
X131714285Y-82226190D01*
X131809523Y-82226190D01*
X131857142Y-82202380D01*
X131880952Y-82178571D01*
X131904761Y-82130952D01*
X131904761Y-81726190D01*
X132404761Y-82226190D02*
X132119047Y-82226190D01*
X132261904Y-82226190D02*
X132261904Y-81726190D01*
X132214285Y-81797619D01*
X132166666Y-81845238D01*
X132119047Y-81869047D01*
D14*
X127538095Y-88626190D02*
X127538095Y-88126190D01*
X127704761Y-88483333D01*
X127871428Y-88126190D01*
X127871428Y-88626190D01*
X128085714Y-88483333D02*
X128323809Y-88483333D01*
X128038095Y-88626190D02*
X128204761Y-88126190D01*
X128371428Y-88626190D01*
X128490476Y-88126190D02*
X128823809Y-88626190D01*
X128823809Y-88126190D02*
X128490476Y-88626190D01*
X128990476Y-88173809D02*
X129014285Y-88150000D01*
X129061904Y-88126190D01*
X129180952Y-88126190D01*
X129228571Y-88150000D01*
X129252380Y-88173809D01*
X129276190Y-88221428D01*
X129276190Y-88269047D01*
X129252380Y-88340476D01*
X128966666Y-88626190D01*
X129276190Y-88626190D01*
X129585714Y-88126190D02*
X129633333Y-88126190D01*
X129680952Y-88150000D01*
X129704761Y-88173809D01*
X129728571Y-88221428D01*
X129752380Y-88316666D01*
X129752380Y-88435714D01*
X129728571Y-88530952D01*
X129704761Y-88578571D01*
X129680952Y-88602380D01*
X129633333Y-88626190D01*
X129585714Y-88626190D01*
X129538095Y-88602380D01*
X129514285Y-88578571D01*
X129490476Y-88530952D01*
X129466666Y-88435714D01*
X129466666Y-88316666D01*
X129490476Y-88221428D01*
X129514285Y-88173809D01*
X129538095Y-88150000D01*
X129585714Y-88126190D01*
X130061904Y-88126190D02*
X130109523Y-88126190D01*
X130157142Y-88150000D01*
X130180952Y-88173809D01*
X130204761Y-88221428D01*
X130228571Y-88316666D01*
X130228571Y-88435714D01*
X130204761Y-88530952D01*
X130180952Y-88578571D01*
X130157142Y-88602380D01*
X130109523Y-88626190D01*
X130061904Y-88626190D01*
X130014285Y-88602380D01*
X129990476Y-88578571D01*
X129966666Y-88530952D01*
X129942857Y-88435714D01*
X129942857Y-88316666D01*
X129966666Y-88221428D01*
X129990476Y-88173809D01*
X130014285Y-88150000D01*
X130061904Y-88126190D01*
X130538095Y-88126190D02*
X130585714Y-88126190D01*
X130633333Y-88150000D01*
X130657142Y-88173809D01*
X130680952Y-88221428D01*
X130704761Y-88316666D01*
X130704761Y-88435714D01*
X130680952Y-88530952D01*
X130657142Y-88578571D01*
X130633333Y-88602380D01*
X130585714Y-88626190D01*
X130538095Y-88626190D01*
X130490476Y-88602380D01*
X130466666Y-88578571D01*
X130442857Y-88530952D01*
X130419047Y-88435714D01*
X130419047Y-88316666D01*
X130442857Y-88221428D01*
X130466666Y-88173809D01*
X130490476Y-88150000D01*
X130538095Y-88126190D01*
X131014285Y-88126190D02*
X131061904Y-88126190D01*
X131109523Y-88150000D01*
X131133333Y-88173809D01*
X131157142Y-88221428D01*
X131180952Y-88316666D01*
X131180952Y-88435714D01*
X131157142Y-88530952D01*
X131133333Y-88578571D01*
X131109523Y-88602380D01*
X131061904Y-88626190D01*
X131014285Y-88626190D01*
X130966666Y-88602380D01*
X130942857Y-88578571D01*
X130919047Y-88530952D01*
X130895238Y-88435714D01*
X130895238Y-88316666D01*
X130919047Y-88221428D01*
X130942857Y-88173809D01*
X130966666Y-88150000D01*
X131014285Y-88126190D01*
X131466666Y-88340476D02*
X131419047Y-88316666D01*
X131395238Y-88292857D01*
X131371428Y-88245238D01*
X131371428Y-88221428D01*
X131395238Y-88173809D01*
X131419047Y-88150000D01*
X131466666Y-88126190D01*
X131561904Y-88126190D01*
X131609523Y-88150000D01*
X131633333Y-88173809D01*
X131657142Y-88221428D01*
X131657142Y-88245238D01*
X131633333Y-88292857D01*
X131609523Y-88316666D01*
X131561904Y-88340476D01*
X131466666Y-88340476D01*
X131419047Y-88364285D01*
X131395238Y-88388095D01*
X131371428Y-88435714D01*
X131371428Y-88530952D01*
X131395238Y-88578571D01*
X131419047Y-88602380D01*
X131466666Y-88626190D01*
X131561904Y-88626190D01*
X131609523Y-88602380D01*
X131633333Y-88578571D01*
X131657142Y-88530952D01*
X131657142Y-88435714D01*
X131633333Y-88388095D01*
X131609523Y-88364285D01*
X131561904Y-88340476D01*
X131847619Y-88483333D02*
X132085714Y-88483333D01*
X131800000Y-88626190D02*
X131966666Y-88126190D01*
X132133333Y-88626190D01*
D13*
%TO.C,Cc1*%
X130702380Y-75148571D02*
X130678571Y-75172380D01*
X130607142Y-75196190D01*
X130559523Y-75196190D01*
X130488095Y-75172380D01*
X130440476Y-75124761D01*
X130416666Y-75077142D01*
X130392857Y-74981904D01*
X130392857Y-74910476D01*
X130416666Y-74815238D01*
X130440476Y-74767619D01*
X130488095Y-74720000D01*
X130559523Y-74696190D01*
X130607142Y-74696190D01*
X130678571Y-74720000D01*
X130702380Y-74743809D01*
X131130952Y-75172380D02*
X131083333Y-75196190D01*
X130988095Y-75196190D01*
X130940476Y-75172380D01*
X130916666Y-75148571D01*
X130892857Y-75100952D01*
X130892857Y-74958095D01*
X130916666Y-74910476D01*
X130940476Y-74886666D01*
X130988095Y-74862857D01*
X131083333Y-74862857D01*
X131130952Y-74886666D01*
X131607142Y-75196190D02*
X131321428Y-75196190D01*
X131464285Y-75196190D02*
X131464285Y-74696190D01*
X131416666Y-74767619D01*
X131369047Y-74815238D01*
X131321428Y-74839047D01*
%TO.C,Cout3*%
X154846428Y-94578571D02*
X154822619Y-94602380D01*
X154751190Y-94626190D01*
X154703571Y-94626190D01*
X154632142Y-94602380D01*
X154584523Y-94554761D01*
X154560714Y-94507142D01*
X154536904Y-94411904D01*
X154536904Y-94340476D01*
X154560714Y-94245238D01*
X154584523Y-94197619D01*
X154632142Y-94150000D01*
X154703571Y-94126190D01*
X154751190Y-94126190D01*
X154822619Y-94150000D01*
X154846428Y-94173809D01*
X155132142Y-94626190D02*
X155084523Y-94602380D01*
X155060714Y-94578571D01*
X155036904Y-94530952D01*
X155036904Y-94388095D01*
X155060714Y-94340476D01*
X155084523Y-94316666D01*
X155132142Y-94292857D01*
X155203571Y-94292857D01*
X155251190Y-94316666D01*
X155275000Y-94340476D01*
X155298809Y-94388095D01*
X155298809Y-94530952D01*
X155275000Y-94578571D01*
X155251190Y-94602380D01*
X155203571Y-94626190D01*
X155132142Y-94626190D01*
X155727380Y-94292857D02*
X155727380Y-94626190D01*
X155513095Y-94292857D02*
X155513095Y-94554761D01*
X155536904Y-94602380D01*
X155584523Y-94626190D01*
X155655952Y-94626190D01*
X155703571Y-94602380D01*
X155727380Y-94578571D01*
X155894047Y-94292857D02*
X156084523Y-94292857D01*
X155965476Y-94126190D02*
X155965476Y-94554761D01*
X155989285Y-94602380D01*
X156036904Y-94626190D01*
X156084523Y-94626190D01*
X156203571Y-94126190D02*
X156513095Y-94126190D01*
X156346428Y-94316666D01*
X156417857Y-94316666D01*
X156465476Y-94340476D01*
X156489285Y-94364285D01*
X156513095Y-94411904D01*
X156513095Y-94530952D01*
X156489285Y-94578571D01*
X156465476Y-94602380D01*
X156417857Y-94626190D01*
X156275000Y-94626190D01*
X156227380Y-94602380D01*
X156203571Y-94578571D01*
D12*
%TO.C,H1*%
X166038095Y-113552380D02*
X166038095Y-112552380D01*
X166038095Y-113028571D02*
X166609523Y-113028571D01*
X166609523Y-113552380D02*
X166609523Y-112552380D01*
X167609523Y-113552380D02*
X167038095Y-113552380D01*
X167323809Y-113552380D02*
X167323809Y-112552380D01*
X167228571Y-112695238D01*
X167133333Y-112790476D01*
X167038095Y-112838095D01*
%TO.C,L1*%
X134833333Y-104452380D02*
X134357142Y-104452380D01*
X134357142Y-103452380D01*
X135690476Y-104452380D02*
X135119047Y-104452380D01*
X135404761Y-104452380D02*
X135404761Y-103452380D01*
X135309523Y-103595238D01*
X135214285Y-103690476D01*
X135119047Y-103738095D01*
D13*
%TO.C,TP1*%
X139269047Y-74628190D02*
X139554761Y-74628190D01*
X139411904Y-75128190D02*
X139411904Y-74628190D01*
X139721428Y-75128190D02*
X139721428Y-74628190D01*
X139911904Y-74628190D01*
X139959523Y-74652000D01*
X139983333Y-74675809D01*
X140007142Y-74723428D01*
X140007142Y-74794857D01*
X139983333Y-74842476D01*
X139959523Y-74866285D01*
X139911904Y-74890095D01*
X139721428Y-74890095D01*
X140483333Y-75128190D02*
X140197619Y-75128190D01*
X140340476Y-75128190D02*
X140340476Y-74628190D01*
X140292857Y-74699619D01*
X140245238Y-74747238D01*
X140197619Y-74771047D01*
D12*
%TO.C,H3*%
X166038095Y-73152380D02*
X166038095Y-72152380D01*
X166038095Y-72628571D02*
X166609523Y-72628571D01*
X166609523Y-73152380D02*
X166609523Y-72152380D01*
X166990476Y-72152380D02*
X167609523Y-72152380D01*
X167276190Y-72533333D01*
X167419047Y-72533333D01*
X167514285Y-72580952D01*
X167561904Y-72628571D01*
X167609523Y-72723809D01*
X167609523Y-72961904D01*
X167561904Y-73057142D01*
X167514285Y-73104761D01*
X167419047Y-73152380D01*
X167133333Y-73152380D01*
X167038095Y-73104761D01*
X166990476Y-73057142D01*
D13*
%TO.C,CF1*%
X130602380Y-81278571D02*
X130578571Y-81302380D01*
X130507142Y-81326190D01*
X130459523Y-81326190D01*
X130388095Y-81302380D01*
X130340476Y-81254761D01*
X130316666Y-81207142D01*
X130292857Y-81111904D01*
X130292857Y-81040476D01*
X130316666Y-80945238D01*
X130340476Y-80897619D01*
X130388095Y-80850000D01*
X130459523Y-80826190D01*
X130507142Y-80826190D01*
X130578571Y-80850000D01*
X130602380Y-80873809D01*
X130983333Y-81064285D02*
X130816666Y-81064285D01*
X130816666Y-81326190D02*
X130816666Y-80826190D01*
X131054761Y-80826190D01*
X131507142Y-81326190D02*
X131221428Y-81326190D01*
X131364285Y-81326190D02*
X131364285Y-80826190D01*
X131316666Y-80897619D01*
X131269047Y-80945238D01*
X131221428Y-80969047D01*
%TO.C,RCOMP1*%
X126669047Y-78026190D02*
X126502380Y-77788095D01*
X126383333Y-78026190D02*
X126383333Y-77526190D01*
X126573809Y-77526190D01*
X126621428Y-77550000D01*
X126645238Y-77573809D01*
X126669047Y-77621428D01*
X126669047Y-77692857D01*
X126645238Y-77740476D01*
X126621428Y-77764285D01*
X126573809Y-77788095D01*
X126383333Y-77788095D01*
X127169047Y-77978571D02*
X127145238Y-78002380D01*
X127073809Y-78026190D01*
X127026190Y-78026190D01*
X126954761Y-78002380D01*
X126907142Y-77954761D01*
X126883333Y-77907142D01*
X126859523Y-77811904D01*
X126859523Y-77740476D01*
X126883333Y-77645238D01*
X126907142Y-77597619D01*
X126954761Y-77550000D01*
X127026190Y-77526190D01*
X127073809Y-77526190D01*
X127145238Y-77550000D01*
X127169047Y-77573809D01*
X127478571Y-77526190D02*
X127573809Y-77526190D01*
X127621428Y-77550000D01*
X127669047Y-77597619D01*
X127692857Y-77692857D01*
X127692857Y-77859523D01*
X127669047Y-77954761D01*
X127621428Y-78002380D01*
X127573809Y-78026190D01*
X127478571Y-78026190D01*
X127430952Y-78002380D01*
X127383333Y-77954761D01*
X127359523Y-77859523D01*
X127359523Y-77692857D01*
X127383333Y-77597619D01*
X127430952Y-77550000D01*
X127478571Y-77526190D01*
X127907142Y-78026190D02*
X127907142Y-77526190D01*
X128073809Y-77883333D01*
X128240476Y-77526190D01*
X128240476Y-78026190D01*
X128478571Y-78026190D02*
X128478571Y-77526190D01*
X128669047Y-77526190D01*
X128716666Y-77550000D01*
X128740476Y-77573809D01*
X128764285Y-77621428D01*
X128764285Y-77692857D01*
X128740476Y-77740476D01*
X128716666Y-77764285D01*
X128669047Y-77788095D01*
X128478571Y-77788095D01*
X129240476Y-78026190D02*
X128954761Y-78026190D01*
X129097619Y-78026190D02*
X129097619Y-77526190D01*
X129050000Y-77597619D01*
X129002380Y-77645238D01*
X128954761Y-77669047D01*
%TO.C,TP5*%
X143669047Y-97726190D02*
X143954761Y-97726190D01*
X143811904Y-98226190D02*
X143811904Y-97726190D01*
X144121428Y-98226190D02*
X144121428Y-97726190D01*
X144311904Y-97726190D01*
X144359523Y-97750000D01*
X144383333Y-97773809D01*
X144407142Y-97821428D01*
X144407142Y-97892857D01*
X144383333Y-97940476D01*
X144359523Y-97964285D01*
X144311904Y-97988095D01*
X144121428Y-97988095D01*
X144859523Y-97726190D02*
X144621428Y-97726190D01*
X144597619Y-97964285D01*
X144621428Y-97940476D01*
X144669047Y-97916666D01*
X144788095Y-97916666D01*
X144835714Y-97940476D01*
X144859523Y-97964285D01*
X144883333Y-98011904D01*
X144883333Y-98130952D01*
X144859523Y-98178571D01*
X144835714Y-98202380D01*
X144788095Y-98226190D01*
X144669047Y-98226190D01*
X144621428Y-98202380D01*
X144597619Y-98178571D01*
%TO.C,TP3*%
X155019047Y-104226190D02*
X155304761Y-104226190D01*
X155161904Y-104726190D02*
X155161904Y-104226190D01*
X155471428Y-104726190D02*
X155471428Y-104226190D01*
X155661904Y-104226190D01*
X155709523Y-104250000D01*
X155733333Y-104273809D01*
X155757142Y-104321428D01*
X155757142Y-104392857D01*
X155733333Y-104440476D01*
X155709523Y-104464285D01*
X155661904Y-104488095D01*
X155471428Y-104488095D01*
X155923809Y-104226190D02*
X156233333Y-104226190D01*
X156066666Y-104416666D01*
X156138095Y-104416666D01*
X156185714Y-104440476D01*
X156209523Y-104464285D01*
X156233333Y-104511904D01*
X156233333Y-104630952D01*
X156209523Y-104678571D01*
X156185714Y-104702380D01*
X156138095Y-104726190D01*
X155995238Y-104726190D01*
X155947619Y-104702380D01*
X155923809Y-104678571D01*
%TO.C,CSup2*%
X143326190Y-88678571D02*
X143302380Y-88702380D01*
X143230952Y-88726190D01*
X143183333Y-88726190D01*
X143111904Y-88702380D01*
X143064285Y-88654761D01*
X143040476Y-88607142D01*
X143016666Y-88511904D01*
X143016666Y-88440476D01*
X143040476Y-88345238D01*
X143064285Y-88297619D01*
X143111904Y-88250000D01*
X143183333Y-88226190D01*
X143230952Y-88226190D01*
X143302380Y-88250000D01*
X143326190Y-88273809D01*
X143516666Y-88702380D02*
X143588095Y-88726190D01*
X143707142Y-88726190D01*
X143754761Y-88702380D01*
X143778571Y-88678571D01*
X143802380Y-88630952D01*
X143802380Y-88583333D01*
X143778571Y-88535714D01*
X143754761Y-88511904D01*
X143707142Y-88488095D01*
X143611904Y-88464285D01*
X143564285Y-88440476D01*
X143540476Y-88416666D01*
X143516666Y-88369047D01*
X143516666Y-88321428D01*
X143540476Y-88273809D01*
X143564285Y-88250000D01*
X143611904Y-88226190D01*
X143730952Y-88226190D01*
X143802380Y-88250000D01*
X144230952Y-88392857D02*
X144230952Y-88726190D01*
X144016666Y-88392857D02*
X144016666Y-88654761D01*
X144040476Y-88702380D01*
X144088095Y-88726190D01*
X144159523Y-88726190D01*
X144207142Y-88702380D01*
X144230952Y-88678571D01*
X144469047Y-88392857D02*
X144469047Y-88892857D01*
X144469047Y-88416666D02*
X144516666Y-88392857D01*
X144611904Y-88392857D01*
X144659523Y-88416666D01*
X144683333Y-88440476D01*
X144707142Y-88488095D01*
X144707142Y-88630952D01*
X144683333Y-88678571D01*
X144659523Y-88702380D01*
X144611904Y-88726190D01*
X144516666Y-88726190D01*
X144469047Y-88702380D01*
X144897619Y-88273809D02*
X144921428Y-88250000D01*
X144969047Y-88226190D01*
X145088095Y-88226190D01*
X145135714Y-88250000D01*
X145159523Y-88273809D01*
X145183333Y-88321428D01*
X145183333Y-88369047D01*
X145159523Y-88440476D01*
X144873809Y-88726190D01*
X145183333Y-88726190D01*
%TO.C,CBIAS1*%
X133495238Y-82178571D02*
X133471428Y-82202380D01*
X133400000Y-82226190D01*
X133352380Y-82226190D01*
X133280952Y-82202380D01*
X133233333Y-82154761D01*
X133209523Y-82107142D01*
X133185714Y-82011904D01*
X133185714Y-81940476D01*
X133209523Y-81845238D01*
X133233333Y-81797619D01*
X133280952Y-81750000D01*
X133352380Y-81726190D01*
X133400000Y-81726190D01*
X133471428Y-81750000D01*
X133495238Y-81773809D01*
X133876190Y-81964285D02*
X133947619Y-81988095D01*
X133971428Y-82011904D01*
X133995238Y-82059523D01*
X133995238Y-82130952D01*
X133971428Y-82178571D01*
X133947619Y-82202380D01*
X133900000Y-82226190D01*
X133709523Y-82226190D01*
X133709523Y-81726190D01*
X133876190Y-81726190D01*
X133923809Y-81750000D01*
X133947619Y-81773809D01*
X133971428Y-81821428D01*
X133971428Y-81869047D01*
X133947619Y-81916666D01*
X133923809Y-81940476D01*
X133876190Y-81964285D01*
X133709523Y-81964285D01*
X134209523Y-82226190D02*
X134209523Y-81726190D01*
X134423809Y-82083333D02*
X134661904Y-82083333D01*
X134376190Y-82226190D02*
X134542857Y-81726190D01*
X134709523Y-82226190D01*
X134852380Y-82202380D02*
X134923809Y-82226190D01*
X135042857Y-82226190D01*
X135090476Y-82202380D01*
X135114285Y-82178571D01*
X135138095Y-82130952D01*
X135138095Y-82083333D01*
X135114285Y-82035714D01*
X135090476Y-82011904D01*
X135042857Y-81988095D01*
X134947619Y-81964285D01*
X134900000Y-81940476D01*
X134876190Y-81916666D01*
X134852380Y-81869047D01*
X134852380Y-81821428D01*
X134876190Y-81773809D01*
X134900000Y-81750000D01*
X134947619Y-81726190D01*
X135066666Y-81726190D01*
X135138095Y-81750000D01*
X135614285Y-82226190D02*
X135328571Y-82226190D01*
X135471428Y-82226190D02*
X135471428Y-81726190D01*
X135423809Y-81797619D01*
X135376190Y-81845238D01*
X135328571Y-81869047D01*
%TO.C,TP2*%
X150569047Y-97726190D02*
X150854761Y-97726190D01*
X150711904Y-98226190D02*
X150711904Y-97726190D01*
X151021428Y-98226190D02*
X151021428Y-97726190D01*
X151211904Y-97726190D01*
X151259523Y-97750000D01*
X151283333Y-97773809D01*
X151307142Y-97821428D01*
X151307142Y-97892857D01*
X151283333Y-97940476D01*
X151259523Y-97964285D01*
X151211904Y-97988095D01*
X151021428Y-97988095D01*
X151497619Y-97773809D02*
X151521428Y-97750000D01*
X151569047Y-97726190D01*
X151688095Y-97726190D01*
X151735714Y-97750000D01*
X151759523Y-97773809D01*
X151783333Y-97821428D01*
X151783333Y-97869047D01*
X151759523Y-97940476D01*
X151473809Y-98226190D01*
X151783333Y-98226190D01*
D12*
%TO.C,H4*%
X104438095Y-113652380D02*
X104438095Y-112652380D01*
X104438095Y-113128571D02*
X105009523Y-113128571D01*
X105009523Y-113652380D02*
X105009523Y-112652380D01*
X105914285Y-112985714D02*
X105914285Y-113652380D01*
X105676190Y-112604761D02*
X105438095Y-113319047D01*
X106057142Y-113319047D01*
D13*
%TO.C,Cbst1*%
X123345238Y-85978571D02*
X123321428Y-86002380D01*
X123250000Y-86026190D01*
X123202380Y-86026190D01*
X123130952Y-86002380D01*
X123083333Y-85954761D01*
X123059523Y-85907142D01*
X123035714Y-85811904D01*
X123035714Y-85740476D01*
X123059523Y-85645238D01*
X123083333Y-85597619D01*
X123130952Y-85550000D01*
X123202380Y-85526190D01*
X123250000Y-85526190D01*
X123321428Y-85550000D01*
X123345238Y-85573809D01*
X123559523Y-86026190D02*
X123559523Y-85526190D01*
X123559523Y-85716666D02*
X123607142Y-85692857D01*
X123702380Y-85692857D01*
X123750000Y-85716666D01*
X123773809Y-85740476D01*
X123797619Y-85788095D01*
X123797619Y-85930952D01*
X123773809Y-85978571D01*
X123750000Y-86002380D01*
X123702380Y-86026190D01*
X123607142Y-86026190D01*
X123559523Y-86002380D01*
X123988095Y-86002380D02*
X124035714Y-86026190D01*
X124130952Y-86026190D01*
X124178571Y-86002380D01*
X124202380Y-85954761D01*
X124202380Y-85930952D01*
X124178571Y-85883333D01*
X124130952Y-85859523D01*
X124059523Y-85859523D01*
X124011904Y-85835714D01*
X123988095Y-85788095D01*
X123988095Y-85764285D01*
X124011904Y-85716666D01*
X124059523Y-85692857D01*
X124130952Y-85692857D01*
X124178571Y-85716666D01*
X124345238Y-85692857D02*
X124535714Y-85692857D01*
X124416666Y-85526190D02*
X124416666Y-85954761D01*
X124440476Y-86002380D01*
X124488095Y-86026190D01*
X124535714Y-86026190D01*
X124964285Y-86026190D02*
X124678571Y-86026190D01*
X124821428Y-86026190D02*
X124821428Y-85526190D01*
X124773809Y-85597619D01*
X124726190Y-85645238D01*
X124678571Y-85669047D01*
%TO.C,R_RST1*%
X122947619Y-82026190D02*
X122780952Y-81788095D01*
X122661904Y-82026190D02*
X122661904Y-81526190D01*
X122852380Y-81526190D01*
X122900000Y-81550000D01*
X122923809Y-81573809D01*
X122947619Y-81621428D01*
X122947619Y-81692857D01*
X122923809Y-81740476D01*
X122900000Y-81764285D01*
X122852380Y-81788095D01*
X122661904Y-81788095D01*
X123042857Y-82073809D02*
X123423809Y-82073809D01*
X123828571Y-82026190D02*
X123661904Y-81788095D01*
X123542857Y-82026190D02*
X123542857Y-81526190D01*
X123733333Y-81526190D01*
X123780952Y-81550000D01*
X123804761Y-81573809D01*
X123828571Y-81621428D01*
X123828571Y-81692857D01*
X123804761Y-81740476D01*
X123780952Y-81764285D01*
X123733333Y-81788095D01*
X123542857Y-81788095D01*
X124019047Y-82002380D02*
X124090476Y-82026190D01*
X124209523Y-82026190D01*
X124257142Y-82002380D01*
X124280952Y-81978571D01*
X124304761Y-81930952D01*
X124304761Y-81883333D01*
X124280952Y-81835714D01*
X124257142Y-81811904D01*
X124209523Y-81788095D01*
X124114285Y-81764285D01*
X124066666Y-81740476D01*
X124042857Y-81716666D01*
X124019047Y-81669047D01*
X124019047Y-81621428D01*
X124042857Y-81573809D01*
X124066666Y-81550000D01*
X124114285Y-81526190D01*
X124233333Y-81526190D01*
X124304761Y-81550000D01*
X124447619Y-81526190D02*
X124733333Y-81526190D01*
X124590476Y-82026190D02*
X124590476Y-81526190D01*
X125161904Y-82026190D02*
X124876190Y-82026190D01*
X125019047Y-82026190D02*
X125019047Y-81526190D01*
X124971428Y-81597619D01*
X124923809Y-81645238D01*
X124876190Y-81669047D01*
%TO.C,XT60_1*%
X164238095Y-85526190D02*
X164571428Y-86026190D01*
X164571428Y-85526190D02*
X164238095Y-86026190D01*
X164690476Y-85526190D02*
X164976190Y-85526190D01*
X164833333Y-86026190D02*
X164833333Y-85526190D01*
X165357142Y-85526190D02*
X165261904Y-85526190D01*
X165214285Y-85550000D01*
X165190476Y-85573809D01*
X165142857Y-85645238D01*
X165119047Y-85740476D01*
X165119047Y-85930952D01*
X165142857Y-85978571D01*
X165166666Y-86002380D01*
X165214285Y-86026190D01*
X165309523Y-86026190D01*
X165357142Y-86002380D01*
X165380952Y-85978571D01*
X165404761Y-85930952D01*
X165404761Y-85811904D01*
X165380952Y-85764285D01*
X165357142Y-85740476D01*
X165309523Y-85716666D01*
X165214285Y-85716666D01*
X165166666Y-85740476D01*
X165142857Y-85764285D01*
X165119047Y-85811904D01*
X165714285Y-85526190D02*
X165761904Y-85526190D01*
X165809523Y-85550000D01*
X165833333Y-85573809D01*
X165857142Y-85621428D01*
X165880952Y-85716666D01*
X165880952Y-85835714D01*
X165857142Y-85930952D01*
X165833333Y-85978571D01*
X165809523Y-86002380D01*
X165761904Y-86026190D01*
X165714285Y-86026190D01*
X165666666Y-86002380D01*
X165642857Y-85978571D01*
X165619047Y-85930952D01*
X165595238Y-85835714D01*
X165595238Y-85716666D01*
X165619047Y-85621428D01*
X165642857Y-85573809D01*
X165666666Y-85550000D01*
X165714285Y-85526190D01*
X165976190Y-86073809D02*
X166357142Y-86073809D01*
X166738095Y-86026190D02*
X166452380Y-86026190D01*
X166595238Y-86026190D02*
X166595238Y-85526190D01*
X166547619Y-85597619D01*
X166500000Y-85645238D01*
X166452380Y-85669047D01*
%TO.C,DNP*%
X149226190Y-92505357D02*
X148726190Y-92505357D01*
X148726190Y-92386309D01*
X148750000Y-92314880D01*
X148797619Y-92267261D01*
X148845238Y-92243452D01*
X148940476Y-92219642D01*
X149011904Y-92219642D01*
X149107142Y-92243452D01*
X149154761Y-92267261D01*
X149202380Y-92314880D01*
X149226190Y-92386309D01*
X149226190Y-92505357D01*
X149226190Y-92005357D02*
X148726190Y-92005357D01*
X149226190Y-91719642D01*
X148726190Y-91719642D01*
X149226190Y-91481547D02*
X148726190Y-91481547D01*
X148726190Y-91291071D01*
X148750000Y-91243452D01*
X148773809Y-91219642D01*
X148821428Y-91195833D01*
X148892857Y-91195833D01*
X148940476Y-91219642D01*
X148964285Y-91243452D01*
X148988095Y-91291071D01*
X148988095Y-91481547D01*
%TO.C,Csup1*%
X139478571Y-86238095D02*
X139502380Y-86261904D01*
X139526190Y-86333333D01*
X139526190Y-86380952D01*
X139502380Y-86452380D01*
X139454761Y-86500000D01*
X139407142Y-86523809D01*
X139311904Y-86547619D01*
X139240476Y-86547619D01*
X139145238Y-86523809D01*
X139097619Y-86500000D01*
X139050000Y-86452380D01*
X139026190Y-86380952D01*
X139026190Y-86333333D01*
X139050000Y-86261904D01*
X139073809Y-86238095D01*
X139502380Y-86047619D02*
X139526190Y-86000000D01*
X139526190Y-85904761D01*
X139502380Y-85857142D01*
X139454761Y-85833333D01*
X139430952Y-85833333D01*
X139383333Y-85857142D01*
X139359523Y-85904761D01*
X139359523Y-85976190D01*
X139335714Y-86023809D01*
X139288095Y-86047619D01*
X139264285Y-86047619D01*
X139216666Y-86023809D01*
X139192857Y-85976190D01*
X139192857Y-85904761D01*
X139216666Y-85857142D01*
X139192857Y-85404761D02*
X139526190Y-85404761D01*
X139192857Y-85619047D02*
X139454761Y-85619047D01*
X139502380Y-85595238D01*
X139526190Y-85547619D01*
X139526190Y-85476190D01*
X139502380Y-85428571D01*
X139478571Y-85404761D01*
X139192857Y-85166666D02*
X139692857Y-85166666D01*
X139216666Y-85166666D02*
X139192857Y-85119047D01*
X139192857Y-85023809D01*
X139216666Y-84976190D01*
X139240476Y-84952380D01*
X139288095Y-84928571D01*
X139430952Y-84928571D01*
X139478571Y-84952380D01*
X139502380Y-84976190D01*
X139526190Y-85023809D01*
X139526190Y-85119047D01*
X139502380Y-85166666D01*
X139526190Y-84452380D02*
X139526190Y-84738095D01*
X139526190Y-84595238D02*
X139026190Y-84595238D01*
X139097619Y-84642857D01*
X139145238Y-84690476D01*
X139169047Y-84738095D01*
%TO.C,Cout1*%
X152721428Y-88778571D02*
X152697619Y-88802380D01*
X152626190Y-88826190D01*
X152578571Y-88826190D01*
X152507142Y-88802380D01*
X152459523Y-88754761D01*
X152435714Y-88707142D01*
X152411904Y-88611904D01*
X152411904Y-88540476D01*
X152435714Y-88445238D01*
X152459523Y-88397619D01*
X152507142Y-88350000D01*
X152578571Y-88326190D01*
X152626190Y-88326190D01*
X152697619Y-88350000D01*
X152721428Y-88373809D01*
X153007142Y-88826190D02*
X152959523Y-88802380D01*
X152935714Y-88778571D01*
X152911904Y-88730952D01*
X152911904Y-88588095D01*
X152935714Y-88540476D01*
X152959523Y-88516666D01*
X153007142Y-88492857D01*
X153078571Y-88492857D01*
X153126190Y-88516666D01*
X153150000Y-88540476D01*
X153173809Y-88588095D01*
X153173809Y-88730952D01*
X153150000Y-88778571D01*
X153126190Y-88802380D01*
X153078571Y-88826190D01*
X153007142Y-88826190D01*
X153602380Y-88492857D02*
X153602380Y-88826190D01*
X153388095Y-88492857D02*
X153388095Y-88754761D01*
X153411904Y-88802380D01*
X153459523Y-88826190D01*
X153530952Y-88826190D01*
X153578571Y-88802380D01*
X153602380Y-88778571D01*
X153769047Y-88492857D02*
X153959523Y-88492857D01*
X153840476Y-88326190D02*
X153840476Y-88754761D01*
X153864285Y-88802380D01*
X153911904Y-88826190D01*
X153959523Y-88826190D01*
X154388095Y-88826190D02*
X154102380Y-88826190D01*
X154245238Y-88826190D02*
X154245238Y-88326190D01*
X154197619Y-88397619D01*
X154150000Y-88445238D01*
X154102380Y-88469047D01*
%TO.C,R_OSC1*%
X127376190Y-83426190D02*
X127209523Y-83188095D01*
X127090476Y-83426190D02*
X127090476Y-82926190D01*
X127280952Y-82926190D01*
X127328571Y-82950000D01*
X127352380Y-82973809D01*
X127376190Y-83021428D01*
X127376190Y-83092857D01*
X127352380Y-83140476D01*
X127328571Y-83164285D01*
X127280952Y-83188095D01*
X127090476Y-83188095D01*
X127471428Y-83473809D02*
X127852380Y-83473809D01*
X128066666Y-82926190D02*
X128161904Y-82926190D01*
X128209523Y-82950000D01*
X128257142Y-82997619D01*
X128280952Y-83092857D01*
X128280952Y-83259523D01*
X128257142Y-83354761D01*
X128209523Y-83402380D01*
X128161904Y-83426190D01*
X128066666Y-83426190D01*
X128019047Y-83402380D01*
X127971428Y-83354761D01*
X127947619Y-83259523D01*
X127947619Y-83092857D01*
X127971428Y-82997619D01*
X128019047Y-82950000D01*
X128066666Y-82926190D01*
X128471428Y-83402380D02*
X128542857Y-83426190D01*
X128661904Y-83426190D01*
X128709523Y-83402380D01*
X128733333Y-83378571D01*
X128757142Y-83330952D01*
X128757142Y-83283333D01*
X128733333Y-83235714D01*
X128709523Y-83211904D01*
X128661904Y-83188095D01*
X128566666Y-83164285D01*
X128519047Y-83140476D01*
X128495238Y-83116666D01*
X128471428Y-83069047D01*
X128471428Y-83021428D01*
X128495238Y-82973809D01*
X128519047Y-82950000D01*
X128566666Y-82926190D01*
X128685714Y-82926190D01*
X128757142Y-82950000D01*
X129257142Y-83378571D02*
X129233333Y-83402380D01*
X129161904Y-83426190D01*
X129114285Y-83426190D01*
X129042857Y-83402380D01*
X128995238Y-83354761D01*
X128971428Y-83307142D01*
X128947619Y-83211904D01*
X128947619Y-83140476D01*
X128971428Y-83045238D01*
X128995238Y-82997619D01*
X129042857Y-82950000D01*
X129114285Y-82926190D01*
X129161904Y-82926190D01*
X129233333Y-82950000D01*
X129257142Y-82973809D01*
X129733333Y-83426190D02*
X129447619Y-83426190D01*
X129590476Y-83426190D02*
X129590476Y-82926190D01*
X129542857Y-82997619D01*
X129495238Y-83045238D01*
X129447619Y-83069047D01*
D12*
%TO.C,J1*%
X137796666Y-118252380D02*
X137796666Y-118966666D01*
X137749047Y-119109523D01*
X137653809Y-119204761D01*
X137510952Y-119252380D01*
X137415714Y-119252380D01*
X138796666Y-119252380D02*
X138225238Y-119252380D01*
X138510952Y-119252380D02*
X138510952Y-118252380D01*
X138415714Y-118395238D01*
X138320476Y-118490476D01*
X138225238Y-118538095D01*
D15*
%TO.C,Drpp1*%
X154490000Y-79050000D02*
X154490000Y-78790000D01*
X160110000Y-83010000D02*
X160110000Y-82600000D01*
X160110000Y-78790000D02*
X154490000Y-78790000D01*
X154490000Y-83010000D02*
X160110000Y-83010000D01*
X154490000Y-83010000D02*
X154490000Y-82750000D01*
X160110000Y-79200000D02*
X160900000Y-79200000D01*
X160110000Y-79200000D02*
X160110000Y-78790000D01*
%TO.C,G\u002A\u002A\u002A*%
G36*
X106573151Y-93803461D02*
G01*
X107029638Y-93819847D01*
X107349332Y-93839584D01*
X107565319Y-93868633D01*
X107710685Y-93912955D01*
X107818515Y-93978511D01*
X107889873Y-94040688D01*
X108066672Y-94314637D01*
X108102764Y-94648089D01*
X107997565Y-95004464D01*
X107907726Y-95157127D01*
X107709568Y-95445777D01*
X107936795Y-95785576D01*
X108208103Y-96205913D01*
X108404846Y-96541730D01*
X108519505Y-96778401D01*
X108544561Y-96901301D01*
X108517468Y-96915108D01*
X108382592Y-96903611D01*
X108127352Y-96888625D01*
X107801164Y-96872972D01*
X107718457Y-96869457D01*
X107033705Y-96841098D01*
X106847194Y-96207150D01*
X106749116Y-95907971D01*
X106656816Y-95684863D01*
X106587206Y-95577400D01*
X106576261Y-95573202D01*
X106534056Y-95652087D01*
X106504367Y-95864838D01*
X106491947Y-96175601D01*
X106491838Y-96210325D01*
X106491838Y-96847449D01*
X105472440Y-96847449D01*
X105472440Y-94439485D01*
X106510492Y-94439485D01*
X106537321Y-94558672D01*
X106663939Y-94626774D01*
X106848954Y-94613961D01*
X107011763Y-94537012D01*
X107070751Y-94447616D01*
X107051603Y-94339927D01*
X106913504Y-94300808D01*
X106842879Y-94298954D01*
X106612703Y-94337128D01*
X106510492Y-94439485D01*
X105472440Y-94439485D01*
X105472440Y-93769166D01*
X106573151Y-93803461D01*
G37*
G36*
X114736144Y-93809185D02*
G01*
X114641706Y-93753910D01*
X114449449Y-93632116D01*
X114228325Y-93488089D01*
X113774998Y-93189538D01*
X113833437Y-93553109D01*
X113947197Y-94276304D01*
X114041671Y-94908591D01*
X114114898Y-95435021D01*
X114164913Y-95840648D01*
X114189755Y-96110525D01*
X114187459Y-96229705D01*
X114185384Y-96233055D01*
X114144438Y-96208720D01*
X114137323Y-96144547D01*
X114083053Y-95988832D01*
X114039443Y-95947485D01*
X113982388Y-95957975D01*
X113974469Y-96103715D01*
X113990832Y-96254315D01*
X114003750Y-96448942D01*
X113978570Y-96643581D01*
X113903446Y-96881024D01*
X113766533Y-97204063D01*
X113669761Y-97414142D01*
X113511826Y-97743143D01*
X113377943Y-98005423D01*
X113285112Y-98168636D01*
X113253251Y-98206646D01*
X113245615Y-98138965D01*
X113289927Y-97988742D01*
X113338770Y-97774715D01*
X113368404Y-97479739D01*
X113372538Y-97330380D01*
X113450540Y-96799424D01*
X113563108Y-96529681D01*
X113753915Y-96169438D01*
X113565131Y-95456799D01*
X113466930Y-95098184D01*
X113372866Y-94775215D01*
X113299516Y-94544265D01*
X113284590Y-94502822D01*
X113192834Y-94261484D01*
X113019612Y-94535069D01*
X112878221Y-94712925D01*
X112748740Y-94805084D01*
X112727308Y-94808653D01*
X112609326Y-94857129D01*
X112604980Y-94976911D01*
X112698235Y-95129526D01*
X112873052Y-95276505D01*
X112937548Y-95313007D01*
X113198327Y-95478357D01*
X113330532Y-95670472D01*
X113372019Y-95950271D01*
X113372774Y-96013394D01*
X113306626Y-96271944D01*
X113096466Y-96545995D01*
X113083945Y-96558620D01*
X112795115Y-96847449D01*
X111079129Y-96847449D01*
X111079129Y-95743101D01*
X111327030Y-95743101D01*
X111634210Y-95711331D01*
X111809537Y-95621205D01*
X111843677Y-95534378D01*
X111783352Y-95432297D01*
X111623333Y-95256019D01*
X111395057Y-95039377D01*
X111332460Y-94984138D01*
X111074153Y-94738049D01*
X112125063Y-94738049D01*
X112224135Y-94891596D01*
X112390412Y-95038340D01*
X112488315Y-95031201D01*
X112523066Y-94869424D01*
X112523276Y-94848462D01*
X112468737Y-94660937D01*
X112339855Y-94568324D01*
X112188733Y-94602856D01*
X112162784Y-94625466D01*
X112125063Y-94738049D01*
X111074153Y-94738049D01*
X110972912Y-94641597D01*
X110734345Y-94348138D01*
X110625730Y-94116799D01*
X110641492Y-93980007D01*
X110775146Y-93891161D01*
X111034286Y-93811808D01*
X111374500Y-93750376D01*
X111751378Y-93715290D01*
X112053951Y-93712001D01*
X112354984Y-93710951D01*
X112602507Y-93690612D01*
X112714413Y-93665086D01*
X112835895Y-93651971D01*
X112863075Y-93737691D01*
X112906266Y-93856455D01*
X112948025Y-93874205D01*
X113017045Y-93803055D01*
X113032975Y-93704305D01*
X112983899Y-93571673D01*
X112817934Y-93534406D01*
X112644239Y-93497445D01*
X112571385Y-93428218D01*
X112532620Y-93287537D01*
X112480900Y-93092238D01*
X113051135Y-93092238D01*
X113067587Y-93215844D01*
X113128794Y-93450968D01*
X113173063Y-93640593D01*
X113249569Y-93810028D01*
X113350127Y-93874205D01*
X113435889Y-93825409D01*
X113423780Y-93665577D01*
X113315361Y-93311164D01*
X113204759Y-93091809D01*
X113110119Y-93024707D01*
X113051135Y-93092238D01*
X112480900Y-93092238D01*
X112469829Y-93050435D01*
X112434277Y-92913840D01*
X112408321Y-92813510D01*
X114065500Y-92813510D01*
X114085060Y-92895950D01*
X114198748Y-93026295D01*
X114357495Y-93161014D01*
X114512232Y-93256578D01*
X114588046Y-93277066D01*
X114593333Y-93226457D01*
X114492447Y-93100615D01*
X114405300Y-93016168D01*
X114224973Y-92873269D01*
X114095380Y-92808746D01*
X114065500Y-92813510D01*
X112408321Y-92813510D01*
X112328676Y-92505650D01*
X111849121Y-92268771D01*
X112887140Y-92268771D01*
X112904964Y-92353893D01*
X112911012Y-92370009D01*
X112978308Y-92474034D01*
X113016569Y-92474781D01*
X113007040Y-92384916D01*
X112958566Y-92322455D01*
X112887140Y-92268771D01*
X111849121Y-92268771D01*
X111530959Y-92111613D01*
X113066357Y-92111613D01*
X113072587Y-92178731D01*
X113082594Y-92205668D01*
X113158994Y-92310054D01*
X113249470Y-92354290D01*
X113287824Y-92313035D01*
X113231468Y-92239825D01*
X113158455Y-92173594D01*
X113066357Y-92111613D01*
X111530959Y-92111613D01*
X111240727Y-91968251D01*
X113245349Y-91968251D01*
X113436486Y-92183392D01*
X113569054Y-92374877D01*
X113627487Y-92542940D01*
X113627624Y-92548799D01*
X113674867Y-92657869D01*
X113733811Y-92663670D01*
X113832730Y-92560937D01*
X113839998Y-92518816D01*
X113776823Y-92404691D01*
X113618200Y-92248430D01*
X113542674Y-92188804D01*
X113245349Y-91968251D01*
X111240727Y-91968251D01*
X111228831Y-91962375D01*
X110796175Y-91753256D01*
X110381003Y-91560762D01*
X110024615Y-91403503D01*
X109768315Y-91300086D01*
X109725699Y-91285151D01*
X109499621Y-91217072D01*
X109323674Y-91196638D01*
X109133431Y-91227906D01*
X108864464Y-91314932D01*
X108780825Y-91344642D01*
X108463007Y-91472235D01*
X108243332Y-91611003D01*
X108054788Y-91811997D01*
X107913620Y-92005309D01*
X107733220Y-92248096D01*
X107578330Y-92428321D01*
X107485906Y-92504855D01*
X107344752Y-92582643D01*
X107223527Y-92674755D01*
X107124949Y-92754002D01*
X107107099Y-92736280D01*
X107167692Y-92598126D01*
X107207968Y-92515008D01*
X107396178Y-92134807D01*
X107529551Y-91884655D01*
X107623380Y-91739849D01*
X107692958Y-91675684D01*
X107733839Y-91665509D01*
X107847562Y-91597370D01*
X107881755Y-91538085D01*
X107900676Y-91450109D01*
X107852388Y-91421774D01*
X107713223Y-91457516D01*
X107459512Y-91561773D01*
X107246690Y-91657137D01*
X106903343Y-91798557D01*
X106687238Y-91854564D01*
X106604539Y-91824695D01*
X106661409Y-91708491D01*
X106668014Y-91700421D01*
X106725874Y-91599546D01*
X106676496Y-91585477D01*
X106552583Y-91648676D01*
X106386841Y-91779605D01*
X106382365Y-91783736D01*
X106221591Y-91995011D01*
X106209573Y-92164497D01*
X106201845Y-92317589D01*
X106056390Y-92417851D01*
X106042473Y-92423268D01*
X105823907Y-92569305D01*
X105599037Y-92815972D01*
X105416755Y-93103217D01*
X105345331Y-93279556D01*
X105242976Y-93496803D01*
X105093650Y-93704305D01*
X104907852Y-93928247D01*
X104758657Y-94129054D01*
X104613467Y-94341429D01*
X104674146Y-94086579D01*
X104806738Y-93565479D01*
X104933727Y-93164485D01*
X105075430Y-92835792D01*
X105252166Y-92531596D01*
X105461079Y-92235084D01*
X105787404Y-91837261D01*
X106128533Y-91520095D01*
X106555368Y-91218285D01*
X106586756Y-91198285D01*
X107000136Y-90936836D01*
X108220491Y-90936836D01*
X108266642Y-91002352D01*
X108367316Y-91007587D01*
X108573092Y-90953885D01*
X108596480Y-90946819D01*
X108738443Y-90926826D01*
X108777557Y-90958271D01*
X108782094Y-91106950D01*
X108861138Y-91118910D01*
X108867230Y-91115315D01*
X108900146Y-91002364D01*
X108853594Y-90855452D01*
X108804172Y-90772815D01*
X110924540Y-90772815D01*
X111063769Y-90872885D01*
X111292504Y-91010092D01*
X111561944Y-91158361D01*
X111823284Y-91291620D01*
X112027723Y-91383797D01*
X112118038Y-91410441D01*
X112251155Y-91337762D01*
X112394388Y-91149918D01*
X112425699Y-91092098D01*
X112577322Y-90780971D01*
X112641497Y-90573187D01*
X112603387Y-90425021D01*
X112448150Y-90292749D01*
X112160948Y-90132646D01*
X112086852Y-90093693D01*
X111783846Y-89937406D01*
X111593843Y-89853827D01*
X111480341Y-89834952D01*
X111406840Y-89872776D01*
X111356084Y-89933434D01*
X111241564Y-90107658D01*
X111115685Y-90329427D01*
X111004467Y-90548134D01*
X110933928Y-90713169D01*
X110924540Y-90772815D01*
X108804172Y-90772815D01*
X108761220Y-90700995D01*
X108690895Y-90646111D01*
X108530355Y-90685072D01*
X108358425Y-90775687D01*
X108238859Y-90878554D01*
X108220491Y-90936836D01*
X107000136Y-90936836D01*
X107005388Y-90933514D01*
X107291866Y-90745432D01*
X107454909Y-90615751D01*
X107503234Y-90526181D01*
X107445561Y-90458433D01*
X107290606Y-90394219D01*
X107047090Y-90315250D01*
X107012999Y-90304133D01*
X106650187Y-90199805D01*
X106509261Y-90178887D01*
X108330014Y-90178887D01*
X108344181Y-90280146D01*
X108462282Y-90304128D01*
X108636786Y-90250527D01*
X108748009Y-90181589D01*
X108847814Y-90095792D01*
X108816862Y-90061590D01*
X108645910Y-90054164D01*
X108428082Y-90091502D01*
X108330014Y-90178887D01*
X106509261Y-90178887D01*
X106416828Y-90165167D01*
X106321149Y-90199947D01*
X106371378Y-90303873D01*
X106391314Y-90324718D01*
X106480414Y-90460585D01*
X106491838Y-90512103D01*
X106452239Y-90517385D01*
X106359492Y-90410015D01*
X106277192Y-90245424D01*
X106274324Y-90144727D01*
X106252908Y-90102477D01*
X107590984Y-90102477D01*
X107708448Y-90115882D01*
X107766085Y-90116704D01*
X107920636Y-90107847D01*
X107938850Y-90085796D01*
X107914747Y-90077854D01*
X107699295Y-90064643D01*
X107617423Y-90077854D01*
X107590984Y-90102477D01*
X106252908Y-90102477D01*
X106234230Y-90065627D01*
X106079402Y-89949510D01*
X105960684Y-89882415D01*
X105559384Y-89638917D01*
X105288305Y-89394828D01*
X105157154Y-89163559D01*
X105175634Y-88958519D01*
X105234580Y-88879155D01*
X105375412Y-88784322D01*
X105459603Y-88848744D01*
X105487769Y-88964734D01*
X105570617Y-89122788D01*
X105749414Y-89308499D01*
X105854714Y-89390424D01*
X106100565Y-89539845D01*
X106311868Y-89594246D01*
X106555550Y-89579975D01*
X106796615Y-89566083D01*
X106911170Y-89601622D01*
X106916587Y-89618519D01*
X106990302Y-89742698D01*
X107172480Y-89815936D01*
X107404673Y-89819010D01*
X107477121Y-89802869D01*
X107723610Y-89731982D01*
X107299299Y-89538747D01*
X106863640Y-89364532D01*
X106415091Y-89225765D01*
X106013255Y-89139003D01*
X105784773Y-89118023D01*
X105602950Y-89078800D01*
X105553075Y-88988599D01*
X105622371Y-88885445D01*
X105798064Y-88807360D01*
X105894397Y-88791746D01*
X106194216Y-88810420D01*
X106585279Y-88898928D01*
X107013914Y-89038425D01*
X107426445Y-89210064D01*
X107769199Y-89394998D01*
X107915376Y-89501356D01*
X108134935Y-89671720D01*
X108311782Y-89744887D01*
X108520569Y-89746509D01*
X108600733Y-89736861D01*
X108818729Y-89691544D01*
X108943760Y-89634407D01*
X108955383Y-89613675D01*
X108889121Y-89533176D01*
X108715069Y-89393592D01*
X108470326Y-89224567D01*
X108460242Y-89218034D01*
X108004453Y-88915618D01*
X107566284Y-88610784D01*
X107184112Y-88331098D01*
X106896313Y-88104123D01*
X106831637Y-88048218D01*
X106654065Y-87927306D01*
X106370712Y-87774621D01*
X106034812Y-87618227D01*
X105939664Y-87578034D01*
X105627946Y-87446113D01*
X105380758Y-87335108D01*
X105237094Y-87262791D01*
X105217590Y-87248962D01*
X105128417Y-87181612D01*
X104937431Y-87053917D01*
X104707891Y-86907362D01*
X104222571Y-86568886D01*
X103798118Y-86206366D01*
X103455640Y-85843065D01*
X103216245Y-85502244D01*
X103101040Y-85207166D01*
X103093844Y-85128591D01*
X103167052Y-84910267D01*
X103345634Y-84720424D01*
X103568025Y-84619133D01*
X103620533Y-84614673D01*
X103744555Y-84633165D01*
X103718915Y-84702702D01*
X103705483Y-84716613D01*
X103616685Y-84886047D01*
X103603543Y-84976548D01*
X103667849Y-85140461D01*
X103840491Y-85371739D01*
X104091061Y-85639692D01*
X104389147Y-85913629D01*
X104704341Y-86162859D01*
X104924229Y-86309431D01*
X105409366Y-86602516D01*
X105560707Y-86415618D01*
X105736448Y-86291713D01*
X105976021Y-86227727D01*
X106219079Y-86226927D01*
X106405274Y-86292579D01*
X106465153Y-86366661D01*
X106447215Y-86521263D01*
X106377537Y-86583256D01*
X106265618Y-86698896D01*
X106242906Y-86828500D01*
X106315983Y-86905189D01*
X106345534Y-86908319D01*
X106480078Y-86967544D01*
X106592404Y-87069871D01*
X106773852Y-87195907D01*
X107090706Y-87327173D01*
X107509260Y-87452571D01*
X107995807Y-87561003D01*
X108185857Y-87594525D01*
X108633858Y-87656246D01*
X108955074Y-87667259D01*
X109186045Y-87623663D01*
X109363310Y-87521556D01*
X109429055Y-87461767D01*
X109640156Y-87250667D01*
X109724682Y-87472987D01*
X109771371Y-87764326D01*
X109662032Y-88019475D01*
X109541593Y-88147728D01*
X109408845Y-88233659D01*
X109219703Y-88280466D01*
X108928927Y-88296465D01*
X108737031Y-88295598D01*
X108418606Y-88292654D01*
X108245301Y-88301107D01*
X108192377Y-88328656D01*
X108235093Y-88382997D01*
X108297314Y-88432413D01*
X108642058Y-88684068D01*
X108990031Y-88916261D01*
X109306699Y-89108077D01*
X109557529Y-89238600D01*
X109707987Y-89286914D01*
X109708191Y-89286914D01*
X109874700Y-89339137D01*
X109907732Y-89492574D01*
X109806533Y-89742373D01*
X109784581Y-89779844D01*
X109687310Y-89969672D01*
X109655841Y-90092301D01*
X109661502Y-90106300D01*
X109724502Y-90069595D01*
X109823797Y-89921269D01*
X109852084Y-89868220D01*
X109985653Y-89636791D01*
X110172129Y-89349636D01*
X110296705Y-89172045D01*
X110470856Y-88943445D01*
X110598426Y-88826198D01*
X110728704Y-88791392D01*
X110910982Y-88810117D01*
X110913154Y-88810464D01*
X111208570Y-88886791D01*
X111598669Y-89027719D01*
X112031590Y-89211885D01*
X112455468Y-89417924D01*
X112664034Y-89531726D01*
X112914747Y-89709759D01*
X113058581Y-89921100D01*
X113117041Y-90090781D01*
X113173293Y-90346927D01*
X113192449Y-90553341D01*
X113188658Y-90595868D01*
X113208021Y-90684241D01*
X113320359Y-90769198D01*
X113552599Y-90866353D01*
X113797523Y-90948886D01*
X114098679Y-91045003D01*
X114328564Y-91117209D01*
X114447011Y-91152921D01*
X114454510Y-91154673D01*
X114435084Y-91087971D01*
X114362066Y-90921006D01*
X114336864Y-90867450D01*
X114250020Y-90561003D01*
X114277387Y-90287061D01*
X114411849Y-90093204D01*
X114456887Y-90065096D01*
X114638147Y-89999196D01*
X114887941Y-89938006D01*
X114923094Y-89931373D01*
X115241641Y-89873870D01*
X115029281Y-90086229D01*
X114885508Y-90264817D01*
X114817707Y-90417566D01*
X114816921Y-90429631D01*
X114887144Y-90609457D01*
X115076764Y-90843505D01*
X115354206Y-91108060D01*
X115687897Y-91379410D01*
X116046263Y-91633841D01*
X116397731Y-91847638D01*
X116710726Y-91997089D01*
X116953675Y-92058480D01*
X116985651Y-92058458D01*
X117264181Y-92012312D01*
X117397187Y-91902969D01*
X117402052Y-91715471D01*
X117398994Y-91702778D01*
X117385513Y-91537366D01*
X117462407Y-91514129D01*
X117627532Y-91632742D01*
X117753035Y-91756084D01*
X117942441Y-92019072D01*
X118002356Y-92303951D01*
X118002540Y-92323971D01*
X118002540Y-92631382D01*
X118597189Y-92782054D01*
X119006105Y-92871896D01*
X119453469Y-92949591D01*
X119758772Y-92989055D01*
X120067722Y-93014545D01*
X120262045Y-93007139D01*
X120395633Y-92955552D01*
X120522379Y-92848496D01*
X120547145Y-92823944D01*
X120768584Y-92602506D01*
X120850946Y-92819136D01*
X120924773Y-93089298D01*
X120890552Y-93285806D01*
X120763410Y-93449456D01*
X120658363Y-93531389D01*
X120516525Y-93582290D01*
X120298562Y-93609097D01*
X119965141Y-93618745D01*
X119800075Y-93619355D01*
X119093311Y-93581755D01*
X118450097Y-93475429D01*
X118377166Y-93457468D01*
X118056773Y-93375512D01*
X117791070Y-93308346D01*
X117631336Y-93268919D01*
X117620266Y-93266331D01*
X117480414Y-93215361D01*
X117450366Y-93194606D01*
X117355435Y-93137638D01*
X117156153Y-93036071D01*
X116983142Y-92953126D01*
X116716460Y-92813644D01*
X116370308Y-92612678D01*
X116004790Y-92385616D01*
X115870928Y-92298267D01*
X115124955Y-91889308D01*
X114280246Y-91575953D01*
X113420205Y-91382696D01*
X113085363Y-91331108D01*
X113664846Y-91915066D01*
X113956973Y-92199441D01*
X114176235Y-92381680D01*
X114361353Y-92487764D01*
X114551047Y-92543676D01*
X114618819Y-92555182D01*
X115046500Y-92648175D01*
X115521310Y-92795954D01*
X115965507Y-92971865D01*
X116240031Y-93111049D01*
X116527767Y-93280818D01*
X116475311Y-93089050D01*
X116446002Y-92962408D01*
X116478450Y-92988114D01*
X116518970Y-93051104D01*
X116579321Y-93225076D01*
X116572140Y-93316839D01*
X116586197Y-93469044D01*
X116624496Y-93524054D01*
X116674093Y-93641530D01*
X116624890Y-93714263D01*
X116520917Y-93745183D01*
X116365125Y-93652299D01*
X116289338Y-93585391D01*
X115989105Y-93378951D01*
X115537295Y-93171446D01*
X114986821Y-92981773D01*
X114841715Y-92943246D01*
X114834256Y-92978732D01*
X114934312Y-93096198D01*
X115112803Y-93250138D01*
X115257740Y-93327131D01*
X115415572Y-93443305D01*
X115494741Y-93572202D01*
X115636365Y-93730247D01*
X115884156Y-93833665D01*
X116181008Y-93874809D01*
X116469813Y-93846035D01*
X116693464Y-93739697D01*
X116700366Y-93733614D01*
X116815216Y-93644543D01*
X116852561Y-93693965D01*
X116855717Y-93801574D01*
X116816425Y-94005094D01*
X116753777Y-94112064D01*
X116588722Y-94182969D01*
X116315897Y-94210494D01*
X115992073Y-94193596D01*
X115676246Y-94131873D01*
X115355984Y-94105771D01*
X115088721Y-94207663D01*
X114969121Y-94332199D01*
X114879399Y-94369575D01*
X114799221Y-94307019D01*
X114732285Y-94225277D01*
X114787919Y-94244871D01*
X114799089Y-94251134D01*
X114868435Y-94258044D01*
X114864864Y-94139895D01*
X114849659Y-94072460D01*
X114828998Y-94009583D01*
X114901871Y-94009583D01*
X114964514Y-94108024D01*
X115093468Y-94122975D01*
X115193227Y-94053763D01*
X115163235Y-93976277D01*
X115070815Y-93934291D01*
X114929612Y-93941541D01*
X114901871Y-94009583D01*
X114828998Y-94009583D01*
X114790526Y-93892502D01*
X114736144Y-93809185D01*
G37*
G36*
X116770767Y-93237081D02*
G01*
X116728292Y-93279556D01*
X116685818Y-93237081D01*
X116728292Y-93194606D01*
X116770767Y-93237081D01*
G37*
G36*
X116940667Y-93322031D02*
G01*
X116898192Y-93364506D01*
X116855717Y-93322031D01*
X116898192Y-93279556D01*
X116940667Y-93322031D01*
G37*
G36*
X105217590Y-87545442D02*
G01*
X105175115Y-87587917D01*
X105132640Y-87545442D01*
X105175115Y-87502967D01*
X105217590Y-87545442D01*
G37*
G36*
X116793113Y-96222497D02*
G01*
X117022261Y-96132454D01*
X117312847Y-96099829D01*
X117603048Y-96064825D01*
X117731238Y-96011130D01*
X117696928Y-95956719D01*
X117499629Y-95919567D01*
X117317928Y-95913001D01*
X117049970Y-95889739D01*
X116943016Y-95819472D01*
X116940667Y-95802566D01*
X116985128Y-95652118D01*
X117132945Y-95554862D01*
X117405770Y-95502888D01*
X117801043Y-95488252D01*
X118457539Y-95488252D01*
X118514021Y-95940319D01*
X118556725Y-96309868D01*
X118557689Y-96555806D01*
X118491160Y-96704439D01*
X118331383Y-96782073D01*
X118052605Y-96815014D01*
X117643861Y-96829157D01*
X116775483Y-96853341D01*
X116718141Y-96624872D01*
X116700029Y-96411104D01*
X117233056Y-96411104D01*
X117237991Y-96422700D01*
X117352830Y-96483903D01*
X117540329Y-96507650D01*
X117717089Y-96482589D01*
X117790165Y-96422700D01*
X117715399Y-96366925D01*
X117531174Y-96338627D01*
X117487827Y-96337750D01*
X117294535Y-96357872D01*
X117233056Y-96411104D01*
X116700029Y-96411104D01*
X116697523Y-96381529D01*
X116793113Y-96222497D01*
G37*
G36*
X117148630Y-93417043D02*
G01*
X117268202Y-93485593D01*
X117248171Y-93529920D01*
X117200530Y-93534406D01*
X117085336Y-93472708D01*
X117068693Y-93450429D01*
X117082367Y-93402156D01*
X117148630Y-93417043D01*
G37*
G36*
X106746687Y-90348787D02*
G01*
X106704212Y-90391262D01*
X106661737Y-90348787D01*
X106704212Y-90306312D01*
X106746687Y-90348787D01*
G37*
G36*
X102884240Y-96171857D02*
G01*
X103197958Y-96083319D01*
X103236589Y-96077575D01*
X103646018Y-96020652D01*
X103242507Y-96009301D01*
X102998140Y-95994201D01*
X102879235Y-95950600D01*
X102841400Y-95853886D01*
X102838995Y-95785576D01*
X102846378Y-95679689D01*
X102891794Y-95616561D01*
X103010136Y-95585140D01*
X103236304Y-95574373D01*
X103509505Y-95573202D01*
X103861178Y-95576988D01*
X104084367Y-95609694D01*
X104213243Y-95703344D01*
X104281976Y-95889959D01*
X104324737Y-96201563D01*
X104340507Y-96351963D01*
X104392295Y-96847449D01*
X103573170Y-96847449D01*
X103180797Y-96842427D01*
X102931380Y-96824741D01*
X102798200Y-96790460D01*
X102754539Y-96735656D01*
X102754045Y-96726972D01*
X102724933Y-96532859D01*
X102712462Y-96493360D01*
X102715234Y-96422700D01*
X103221269Y-96422700D01*
X103254803Y-96482564D01*
X103421085Y-96507571D01*
X103433644Y-96507650D01*
X103606323Y-96485029D01*
X103648272Y-96426743D01*
X103646018Y-96422700D01*
X103525847Y-96350594D01*
X103433644Y-96337750D01*
X103273114Y-96377925D01*
X103221269Y-96422700D01*
X102715234Y-96422700D01*
X102719626Y-96310745D01*
X102884240Y-96171857D01*
G37*
G36*
X105700637Y-88322389D02*
G01*
X105684814Y-88352466D01*
X105604773Y-88433593D01*
X105589837Y-88437416D01*
X105584041Y-88382542D01*
X105599864Y-88352466D01*
X105679905Y-88271338D01*
X105694841Y-88267516D01*
X105700637Y-88322389D01*
G37*
G36*
X116006219Y-89929502D02*
G01*
X116725864Y-90072955D01*
X117503182Y-90309692D01*
X118281275Y-90617226D01*
X119003247Y-90973071D01*
X119611755Y-91354419D01*
X119881428Y-91575056D01*
X120146357Y-91833515D01*
X120374624Y-92093483D01*
X120534311Y-92318648D01*
X120593510Y-92471322D01*
X120541318Y-92586746D01*
X120424204Y-92727177D01*
X120301358Y-92828905D01*
X120247022Y-92844265D01*
X120174786Y-92783004D01*
X120015154Y-92629911D01*
X119799184Y-92414953D01*
X119740761Y-92355804D01*
X119313332Y-91992181D01*
X118763242Y-91629771D01*
X118130796Y-91286533D01*
X117456300Y-90980422D01*
X116780057Y-90729395D01*
X116142374Y-90551409D01*
X115583556Y-90464421D01*
X115484413Y-90459512D01*
X115166622Y-90428952D01*
X115013923Y-90359815D01*
X115026589Y-90252827D01*
X115204890Y-90108711D01*
X115326620Y-90038690D01*
X115619425Y-89929042D01*
X115945397Y-89922239D01*
X116006219Y-89929502D01*
G37*
G36*
X110253365Y-93900379D02*
G01*
X110316911Y-93975271D01*
X110344530Y-94066922D01*
X110427608Y-94237592D01*
X110592614Y-94476130D01*
X110788723Y-94713455D01*
X111179823Y-95148452D01*
X110556064Y-95149753D01*
X110144683Y-95170161D01*
X109865172Y-95222033D01*
X109724339Y-95294314D01*
X109728990Y-95375949D01*
X109885930Y-95455883D01*
X110201967Y-95523063D01*
X110317167Y-95537774D01*
X110824279Y-95595147D01*
X110824279Y-96847449D01*
X110123443Y-96838753D01*
X109755371Y-96826622D01*
X109418742Y-96802430D01*
X109176826Y-96770979D01*
X109147043Y-96764640D01*
X108770675Y-96593280D01*
X108484197Y-96292357D01*
X108303816Y-95885399D01*
X108245682Y-95456090D01*
X108316009Y-94981284D01*
X108533620Y-94577007D01*
X108886502Y-94254703D01*
X109362641Y-94025817D01*
X109866613Y-93911742D01*
X110119491Y-93884471D01*
X110253365Y-93900379D01*
G37*
G36*
X119119226Y-95764339D02*
G01*
X119421766Y-94978553D01*
X120512013Y-94978553D01*
X120340387Y-95314968D01*
X120236855Y-95523318D01*
X120175755Y-95656737D01*
X120168761Y-95677935D01*
X120244068Y-95694792D01*
X120431477Y-95703942D01*
X120497830Y-95704488D01*
X120749423Y-95733149D01*
X120943397Y-95803669D01*
X120965054Y-95819146D01*
X121084694Y-96017787D01*
X121087538Y-96276516D01*
X120978596Y-96536974D01*
X120894696Y-96638936D01*
X120795246Y-96728464D01*
X120686634Y-96787893D01*
X120533596Y-96823358D01*
X120300866Y-96840995D01*
X119953180Y-96846940D01*
X119696309Y-96847449D01*
X119273894Y-96845472D01*
X118994837Y-96836730D01*
X118832615Y-96817004D01*
X118760705Y-96782075D01*
X118752586Y-96727727D01*
X118761561Y-96698787D01*
X118814802Y-96558146D01*
X118912814Y-96301729D01*
X118913125Y-96300918D01*
X119913911Y-96300918D01*
X119980079Y-96387041D01*
X120130780Y-96410355D01*
X120294307Y-96374801D01*
X120398957Y-96284321D01*
X120402901Y-96274038D01*
X120358547Y-96193201D01*
X120175840Y-96167850D01*
X119974133Y-96201343D01*
X119913911Y-96300918D01*
X118913125Y-96300918D01*
X119039237Y-95972281D01*
X119119226Y-95764339D01*
G37*
G36*
X105177276Y-87699526D02*
G01*
X105238828Y-87746981D01*
X105356480Y-87851775D01*
X105387490Y-87895643D01*
X105346167Y-87921071D01*
X105233237Y-87811944D01*
X105206754Y-87779054D01*
X105133286Y-87678432D01*
X105177276Y-87699526D01*
G37*
G36*
X105557389Y-87970192D02*
G01*
X105514915Y-88012666D01*
X105472440Y-87970192D01*
X105514915Y-87927717D01*
X105557389Y-87970192D01*
G37*
G36*
X104921174Y-95192761D02*
G01*
X104962741Y-95275877D01*
X104888894Y-95378362D01*
X104750366Y-95403302D01*
X104579558Y-95358994D01*
X104537991Y-95275877D01*
X104611839Y-95173392D01*
X104750366Y-95148452D01*
X104921174Y-95192761D01*
G37*
G36*
X106643420Y-90606384D02*
G01*
X106558681Y-90701570D01*
X106483475Y-90731061D01*
X106461276Y-90682260D01*
X106509726Y-90612204D01*
X106613392Y-90526325D01*
X106649006Y-90521603D01*
X106643420Y-90606384D01*
G37*
G36*
X105445643Y-84691580D02*
G01*
X106293005Y-84921882D01*
X107147587Y-85269899D01*
X107969919Y-85721275D01*
X108246413Y-85903505D01*
X108612182Y-86176787D01*
X108943374Y-86461565D01*
X109213545Y-86731383D01*
X109396252Y-86959782D01*
X109465049Y-87120304D01*
X109465082Y-87122818D01*
X109412537Y-87236601D01*
X109294831Y-87376245D01*
X109171856Y-87477722D01*
X109118593Y-87493225D01*
X109046939Y-87431818D01*
X108888758Y-87277574D01*
X108674755Y-87060627D01*
X108615583Y-86999558D01*
X108197066Y-86641075D01*
X107649598Y-86282950D01*
X107013268Y-85942605D01*
X106328166Y-85637458D01*
X105634381Y-85384932D01*
X104972004Y-85202448D01*
X104381123Y-85107426D01*
X104242230Y-85099130D01*
X103963267Y-85079006D01*
X103818786Y-85035048D01*
X103773816Y-84955712D01*
X103773443Y-84944356D01*
X103831728Y-84760177D01*
X104015373Y-84645221D01*
X104337565Y-84594178D01*
X104644971Y-84593354D01*
X105445643Y-84691580D01*
G37*
G36*
X105472440Y-88309991D02*
G01*
X105429965Y-88352466D01*
X105387490Y-88309991D01*
X105429965Y-88267516D01*
X105472440Y-88309991D01*
G37*
G36*
X117110567Y-93661830D02*
G01*
X117068092Y-93704305D01*
X117025617Y-93661830D01*
X117068092Y-93619355D01*
X117110567Y-93661830D01*
G37*
G36*
X115915386Y-95424539D02*
G01*
X115783972Y-95672351D01*
X115694146Y-95859800D01*
X115667958Y-95934238D01*
X115743069Y-95971824D01*
X115935365Y-95994705D01*
X116058602Y-95997951D01*
X116295418Y-96004824D01*
X116401142Y-96039902D01*
X116414459Y-96124868D01*
X116399561Y-96189088D01*
X116359094Y-96426721D01*
X116347178Y-96613837D01*
X116346018Y-96847449D01*
X114150133Y-96847449D01*
X114485766Y-95986217D01*
X114626558Y-95628692D01*
X114747195Y-95329287D01*
X114833022Y-95123949D01*
X114866648Y-95051769D01*
X114967776Y-95016208D01*
X115192683Y-94990178D01*
X115495305Y-94978711D01*
X115536586Y-94978553D01*
X116161274Y-94978553D01*
X115915386Y-95424539D01*
G37*
G36*
X104943660Y-95674843D02*
G01*
X105027566Y-95755999D01*
X105076072Y-95948243D01*
X105087246Y-96019188D01*
X105133321Y-96309479D01*
X105178281Y-96570274D01*
X105186412Y-96613837D01*
X105202997Y-96762213D01*
X105148434Y-96829108D01*
X104980936Y-96846861D01*
X104884541Y-96847449D01*
X104537991Y-96847449D01*
X104537991Y-95658151D01*
X104785374Y-95658151D01*
X104943660Y-95674843D01*
G37*
G36*
X105215003Y-88074490D02*
G01*
X105246904Y-88136427D01*
X105268641Y-88256126D01*
X105211576Y-88232894D01*
X105171622Y-88176914D01*
X105145510Y-88065731D01*
X105156114Y-88045826D01*
X105215003Y-88074490D01*
G37*
G36*
X106117635Y-87991429D02*
G01*
X105928746Y-88150665D01*
X105766006Y-88169289D01*
X105685416Y-88098589D01*
X105699238Y-88050649D01*
X105768516Y-88066417D01*
X105926954Y-88053796D01*
X106091490Y-87959257D01*
X106279463Y-87800292D01*
X106117635Y-87991429D01*
G37*
%TO.C,Cbyp1*%
X134990000Y-85353733D02*
X134990000Y-85646267D01*
X136010000Y-85353733D02*
X136010000Y-85646267D01*
%TO.C,TP4*%
X133200000Y-79600000D02*
X133200000Y-77200000D01*
X135600000Y-77200000D02*
X135600000Y-79600000D01*
X135600000Y-79600000D02*
X133200000Y-79600000D01*
X133200000Y-77200000D02*
X135600000Y-77200000D01*
%TO.C,DNp*%
X147290000Y-92008767D02*
X147290000Y-91716233D01*
X148310000Y-92008767D02*
X148310000Y-91716233D01*
%TO.C,U1*%
X130120400Y-87006600D02*
X131489460Y-87006600D01*
X132510540Y-87006600D02*
X133879600Y-87006600D01*
X133879600Y-87006600D02*
X133879600Y-86809753D01*
X133879600Y-83514859D02*
X133879600Y-82993400D01*
X130120400Y-86809741D02*
X130120400Y-87006600D01*
X130120400Y-82993400D02*
X130120400Y-83514859D01*
%TO.C,Cc1*%
X130853733Y-75890000D02*
X131146267Y-75890000D01*
X130853733Y-76910000D02*
X131146267Y-76910000D01*
%TO.C,Cout3*%
X154813748Y-95040000D02*
X156236252Y-95040000D01*
X154813748Y-97760000D02*
X156236252Y-97760000D01*
%TO.C,TP1*%
X141100000Y-78100000D02*
X138700000Y-78100000D01*
X141100000Y-75700000D02*
X141100000Y-78100000D01*
X138700000Y-75700000D02*
X141100000Y-75700000D01*
X138700000Y-78100000D02*
X138700000Y-75700000D01*
%TO.C,CF1*%
X131146267Y-79390000D02*
X130853733Y-79390000D01*
X131146267Y-80410000D02*
X130853733Y-80410000D01*
%TO.C,RCOMP1*%
X131254724Y-78722500D02*
X130745276Y-78722500D01*
X131254724Y-77677500D02*
X130745276Y-77677500D01*
%TO.C,TP5*%
X145700000Y-97200000D02*
X143300000Y-97200000D01*
X143300000Y-94800000D02*
X145700000Y-94800000D01*
X145700000Y-94800000D02*
X145700000Y-97200000D01*
X143300000Y-97200000D02*
X143300000Y-94800000D01*
%TO.C,TP3*%
X154550000Y-101300000D02*
X156950000Y-101300000D01*
X154550000Y-103700000D02*
X154550000Y-101300000D01*
X156950000Y-103700000D02*
X154550000Y-103700000D01*
X156950000Y-101300000D02*
X156950000Y-103700000D01*
%TO.C,CSup2*%
X152460000Y-87660000D02*
X148610000Y-87660000D01*
X150485000Y-76075000D02*
X149235000Y-76075000D01*
X152460000Y-78004437D02*
X152460000Y-87660000D01*
X142804437Y-76940000D02*
X141740000Y-78004437D01*
X141740000Y-78004437D02*
X141740000Y-87660000D01*
X151395563Y-76940000D02*
X152460000Y-78004437D01*
X142804437Y-76940000D02*
X145590000Y-76940000D01*
X141740000Y-87660000D02*
X145590000Y-87660000D01*
X149860000Y-75450000D02*
X149860000Y-76700000D01*
X151395563Y-76940000D02*
X148610000Y-76940000D01*
%TO.C,CBIAS1*%
X134216233Y-81310000D02*
X134508767Y-81310000D01*
X134216233Y-80290000D02*
X134508767Y-80290000D01*
%TO.C,TP2*%
X150000000Y-94800000D02*
X152400000Y-94800000D01*
X152400000Y-94800000D02*
X152400000Y-97200000D01*
X152400000Y-97200000D02*
X150000000Y-97200000D01*
X150000000Y-97200000D02*
X150000000Y-94800000D01*
%TO.C,Cbst1*%
X125691233Y-83990000D02*
X125983767Y-83990000D01*
X125691233Y-85010000D02*
X125983767Y-85010000D01*
%TO.C,R_RST1*%
X125477500Y-81745276D02*
X125477500Y-82254724D01*
X126522500Y-81745276D02*
X126522500Y-82254724D01*
%TO.C,DNP*%
X150510000Y-92008767D02*
X150510000Y-91716233D01*
X149490000Y-92008767D02*
X149490000Y-91716233D01*
%TO.C,Csup1*%
X137490000Y-85353733D02*
X137490000Y-85646267D01*
X138510000Y-85353733D02*
X138510000Y-85646267D01*
%TO.C,Cout1*%
X151240000Y-92311252D02*
X151240000Y-90888748D01*
X153960000Y-92311252D02*
X153960000Y-90888748D01*
%TO.C,R_OSC1*%
X127877500Y-81254724D02*
X127877500Y-80745276D01*
X128922500Y-81254724D02*
X128922500Y-80745276D01*
%TO.C,J1*%
X153130000Y-106750000D02*
X123130000Y-106750000D01*
X123130000Y-117250000D02*
X153130000Y-117250000D01*
X123130000Y-106750000D02*
G75*
G03*
X123130000Y-117250000I0J-5250000D01*
G01*
X153130000Y-117250000D02*
G75*
G03*
X153130000Y-106750000I0J5250000D01*
G01*
%TD*%
M02*
