M48
; DRILL file {KiCad (6.0.8)} date Fri Feb 10 11:33:12 2023
; FORMAT={-:-/ absolute / inch / decimal}
; #@! TF.CreationDate,2023-02-10T11:33:12+01:00
; #@! TF.GenerationSoftware,Kicad,Pcbnew,(6.0.8)
; #@! TF.FileFunction,Plated,1,4,PTH
FMAT,2
INCH
; #@! TA.AperFunction,Plated,PTH,ViaDrill
T1C0.0157
; #@! TA.AperFunction,Plated,PTH,ComponentDrill
T2C0.0394
; #@! TA.AperFunction,Plated,PTH,ComponentDrill
T3C0.0787
; #@! TA.AperFunction,Plated,PTH,ComponentDrill
T4C0.2402
%
G90
G05
T1
X4.8661Y-3.3228
X4.9055Y-3.2638
X4.9331Y-3.4134
X4.9528Y-3.3819
X4.9606Y-3.1299
X4.9764Y-3.4173
X4.9961Y-3.3858
X5.0Y-3.4567
X5.0157Y-3.4173
X5.0354Y-3.3858
X5.0551Y-3.325
X5.0591Y-3.4173
X5.0787Y-3.3858
X5.2008Y-3.1969
X5.252Y-2.9882
X5.2559Y-3.4547
X5.2559Y-3.4941
X5.3051Y-3.4547
X5.3051Y-3.4941
X5.3051Y-3.5433
X5.3543Y-3.4547
X5.3543Y-3.4941
X5.3543Y-3.5433
X5.3819Y-2.9882
X5.3839Y-3.061
X5.3839Y-3.1299
X5.3858Y-3.2205
X5.4035Y-3.4547
X5.4035Y-3.4941
X5.4035Y-3.5433
X5.4528Y-3.4547
X5.4528Y-3.4941
X5.4528Y-3.5433
X5.4921Y-3.4547
X5.4921Y-3.4941
X5.8268Y-3.7205
T2
X5.2913Y-3.0866
X5.5079Y-3.0276
X5.689Y-3.7795
X5.9528Y-3.7795
X6.1319Y-4.0354
T3
X6.5236Y-3.189
X6.5236Y-3.5827
T4
X4.8476Y-4.4094
X6.0276Y-4.4094
T0
M30
